<?xml version="1.0" encoding="utf-8" standalone="no"?>
<!DOCTYPE svg PUBLIC "-//W3C//DTD SVG 1.1//EN"
  "http://www.w3.org/Graphics/SVG/1.1/DTD/svg11.dtd">
<!-- Created with matplotlib (http://matplotlib.org/) -->
<svg height="288pt" version="1.1" viewBox="0 0 432 288" width="432pt" xmlns="http://www.w3.org/2000/svg" xmlns:xlink="http://www.w3.org/1999/xlink">
 <defs>
  <style type="text/css">
*{stroke-linecap:butt;stroke-linejoin:round;}
  </style>
 </defs>
 <g id="figure_1">
  <g id="patch_1">
   <path d="M 0 288 
L 432 288 
L 432 0 
L 0 0 
z
" style="fill:#ffffff;"/>
  </g>
  <g id="axes_1">
   <g id="patch_2">
    <path d="M 54 252 
L 388.8 252 
L 388.8 34.56 
L 54 34.56 
z
" style="fill:#eaeaf2;"/>
   </g>
   <g id="matplotlib.axis_1">
    <g id="xtick_1">
     <g id="line2d_1">
      <path clip-path="url(#pa2c8519c01)" d="M 63.3055 252 
L 63.3055 34.56 
" style="fill:none;stroke:#ffffff;stroke-linecap:round;"/>
     </g>
     <g id="text_1">
      <!-- 0.0 -->
      <defs>
       <path d="M 31.78125 66.40625 
Q 24.171875 66.40625 20.328125 58.90625 
Q 16.5 51.421875 16.5 36.375 
Q 16.5 21.390625 20.328125 13.890625 
Q 24.171875 6.390625 31.78125 6.390625 
Q 39.453125 6.390625 43.28125 13.890625 
Q 47.125 21.390625 47.125 36.375 
Q 47.125 51.421875 43.28125 58.90625 
Q 39.453125 66.40625 31.78125 66.40625 
z
M 31.78125 74.21875 
Q 44.046875 74.21875 50.515625 64.515625 
Q 56.984375 54.828125 56.984375 36.375 
Q 56.984375 17.96875 50.515625 8.265625 
Q 44.046875 -1.421875 31.78125 -1.421875 
Q 19.53125 -1.421875 13.0625 8.265625 
Q 6.59375 17.96875 6.59375 36.375 
Q 6.59375 54.828125 13.0625 64.515625 
Q 19.53125 74.21875 31.78125 74.21875 
z
" id="DejaVuSans-30"/>
       <path d="M 10.6875 12.40625 
L 21 12.40625 
L 21 0 
L 10.6875 0 
z
" id="DejaVuSans-2e"/>
      </defs>
      <g style="fill:#262626;" transform="translate(54.558781 269.858281)scale(0.11 -0.11)">
       <use xlink:href="#DejaVuSans-30"/>
       <use x="63.623047" xlink:href="#DejaVuSans-2e"/>
       <use x="95.410156" xlink:href="#DejaVuSans-30"/>
      </g>
     </g>
    </g>
    <g id="xtick_2">
     <g id="line2d_2">
      <path clip-path="url(#pa2c8519c01)" d="M 130.10364 252 
L 130.10364 34.56 
" style="fill:none;stroke:#ffffff;stroke-linecap:round;"/>
     </g>
     <g id="text_2">
      <!-- 0.2 -->
      <defs>
       <path d="M 19.1875 8.296875 
L 53.609375 8.296875 
L 53.609375 0 
L 7.328125 0 
L 7.328125 8.296875 
Q 12.9375 14.109375 22.625 23.890625 
Q 32.328125 33.6875 34.8125 36.53125 
Q 39.546875 41.84375 41.421875 45.53125 
Q 43.3125 49.21875 43.3125 52.78125 
Q 43.3125 58.59375 39.234375 62.25 
Q 35.15625 65.921875 28.609375 65.921875 
Q 23.96875 65.921875 18.8125 64.3125 
Q 13.671875 62.703125 7.8125 59.421875 
L 7.8125 69.390625 
Q 13.765625 71.78125 18.9375 73 
Q 24.125 74.21875 28.421875 74.21875 
Q 39.75 74.21875 46.484375 68.546875 
Q 53.21875 62.890625 53.21875 53.421875 
Q 53.21875 48.921875 51.53125 44.890625 
Q 49.859375 40.875 45.40625 35.40625 
Q 44.1875 33.984375 37.640625 27.21875 
Q 31.109375 20.453125 19.1875 8.296875 
z
" id="DejaVuSans-32"/>
      </defs>
      <g style="fill:#262626;" transform="translate(121.356921 269.858281)scale(0.11 -0.11)">
       <use xlink:href="#DejaVuSans-30"/>
       <use x="63.623047" xlink:href="#DejaVuSans-2e"/>
       <use x="95.410156" xlink:href="#DejaVuSans-32"/>
      </g>
     </g>
    </g>
    <g id="xtick_3">
     <g id="line2d_3">
      <path clip-path="url(#pa2c8519c01)" d="M 196.901779 252 
L 196.901779 34.56 
" style="fill:none;stroke:#ffffff;stroke-linecap:round;"/>
     </g>
     <g id="text_3">
      <!-- 0.4 -->
      <defs>
       <path d="M 37.796875 64.3125 
L 12.890625 25.390625 
L 37.796875 25.390625 
z
M 35.203125 72.90625 
L 47.609375 72.90625 
L 47.609375 25.390625 
L 58.015625 25.390625 
L 58.015625 17.1875 
L 47.609375 17.1875 
L 47.609375 0 
L 37.796875 0 
L 37.796875 17.1875 
L 4.890625 17.1875 
L 4.890625 26.703125 
z
" id="DejaVuSans-34"/>
      </defs>
      <g style="fill:#262626;" transform="translate(188.155061 269.858281)scale(0.11 -0.11)">
       <use xlink:href="#DejaVuSans-30"/>
       <use x="63.623047" xlink:href="#DejaVuSans-2e"/>
       <use x="95.410156" xlink:href="#DejaVuSans-34"/>
      </g>
     </g>
    </g>
    <g id="xtick_4">
     <g id="line2d_4">
      <path clip-path="url(#pa2c8519c01)" d="M 263.699919 252 
L 263.699919 34.56 
" style="fill:none;stroke:#ffffff;stroke-linecap:round;"/>
     </g>
     <g id="text_4">
      <!-- 0.6 -->
      <defs>
       <path d="M 33.015625 40.375 
Q 26.375 40.375 22.484375 35.828125 
Q 18.609375 31.296875 18.609375 23.390625 
Q 18.609375 15.53125 22.484375 10.953125 
Q 26.375 6.390625 33.015625 6.390625 
Q 39.65625 6.390625 43.53125 10.953125 
Q 47.40625 15.53125 47.40625 23.390625 
Q 47.40625 31.296875 43.53125 35.828125 
Q 39.65625 40.375 33.015625 40.375 
z
M 52.59375 71.296875 
L 52.59375 62.3125 
Q 48.875 64.0625 45.09375 64.984375 
Q 41.3125 65.921875 37.59375 65.921875 
Q 27.828125 65.921875 22.671875 59.328125 
Q 17.53125 52.734375 16.796875 39.40625 
Q 19.671875 43.65625 24.015625 45.921875 
Q 28.375 48.1875 33.59375 48.1875 
Q 44.578125 48.1875 50.953125 41.515625 
Q 57.328125 34.859375 57.328125 23.390625 
Q 57.328125 12.15625 50.6875 5.359375 
Q 44.046875 -1.421875 33.015625 -1.421875 
Q 20.359375 -1.421875 13.671875 8.265625 
Q 6.984375 17.96875 6.984375 36.375 
Q 6.984375 53.65625 15.1875 63.9375 
Q 23.390625 74.21875 37.203125 74.21875 
Q 40.921875 74.21875 44.703125 73.484375 
Q 48.484375 72.75 52.59375 71.296875 
z
" id="DejaVuSans-36"/>
      </defs>
      <g style="fill:#262626;" transform="translate(254.9532 269.858281)scale(0.11 -0.11)">
       <use xlink:href="#DejaVuSans-30"/>
       <use x="63.623047" xlink:href="#DejaVuSans-2e"/>
       <use x="95.410156" xlink:href="#DejaVuSans-36"/>
      </g>
     </g>
    </g>
    <g id="xtick_5">
     <g id="line2d_5">
      <path clip-path="url(#pa2c8519c01)" d="M 330.498059 252 
L 330.498059 34.56 
" style="fill:none;stroke:#ffffff;stroke-linecap:round;"/>
     </g>
     <g id="text_5">
      <!-- 0.8 -->
      <defs>
       <path d="M 31.78125 34.625 
Q 24.75 34.625 20.71875 30.859375 
Q 16.703125 27.09375 16.703125 20.515625 
Q 16.703125 13.921875 20.71875 10.15625 
Q 24.75 6.390625 31.78125 6.390625 
Q 38.8125 6.390625 42.859375 10.171875 
Q 46.921875 13.96875 46.921875 20.515625 
Q 46.921875 27.09375 42.890625 30.859375 
Q 38.875 34.625 31.78125 34.625 
z
M 21.921875 38.8125 
Q 15.578125 40.375 12.03125 44.71875 
Q 8.5 49.078125 8.5 55.328125 
Q 8.5 64.0625 14.71875 69.140625 
Q 20.953125 74.21875 31.78125 74.21875 
Q 42.671875 74.21875 48.875 69.140625 
Q 55.078125 64.0625 55.078125 55.328125 
Q 55.078125 49.078125 51.53125 44.71875 
Q 48 40.375 41.703125 38.8125 
Q 48.828125 37.15625 52.796875 32.3125 
Q 56.78125 27.484375 56.78125 20.515625 
Q 56.78125 9.90625 50.3125 4.234375 
Q 43.84375 -1.421875 31.78125 -1.421875 
Q 19.734375 -1.421875 13.25 4.234375 
Q 6.78125 9.90625 6.78125 20.515625 
Q 6.78125 27.484375 10.78125 32.3125 
Q 14.796875 37.15625 21.921875 38.8125 
z
M 18.3125 54.390625 
Q 18.3125 48.734375 21.84375 45.5625 
Q 25.390625 42.390625 31.78125 42.390625 
Q 38.140625 42.390625 41.71875 45.5625 
Q 45.3125 48.734375 45.3125 54.390625 
Q 45.3125 60.0625 41.71875 63.234375 
Q 38.140625 66.40625 31.78125 66.40625 
Q 25.390625 66.40625 21.84375 63.234375 
Q 18.3125 60.0625 18.3125 54.390625 
z
" id="DejaVuSans-38"/>
      </defs>
      <g style="fill:#262626;" transform="translate(321.75134 269.858281)scale(0.11 -0.11)">
       <use xlink:href="#DejaVuSans-30"/>
       <use x="63.623047" xlink:href="#DejaVuSans-2e"/>
       <use x="95.410156" xlink:href="#DejaVuSans-38"/>
      </g>
     </g>
    </g>
   </g>
   <g id="matplotlib.axis_2">
    <g id="ytick_1">
     <g id="line2d_6">
      <path clip-path="url(#pa2c8519c01)" d="M 54 252 
L 388.8 252 
" style="fill:none;stroke:#ffffff;stroke-linecap:round;"/>
     </g>
     <g id="text_6">
      <!-- 0 -->
      <g style="fill:#262626;" transform="translate(37.50125 256.179141)scale(0.11 -0.11)">
       <use xlink:href="#DejaVuSans-30"/>
      </g>
     </g>
    </g>
    <g id="ytick_2">
     <g id="line2d_7">
      <path clip-path="url(#pa2c8519c01)" d="M 54 213.827581 
L 388.8 213.827581 
" style="fill:none;stroke:#ffffff;stroke-linecap:round;"/>
     </g>
     <g id="text_7">
      <!-- 5 -->
      <defs>
       <path d="M 10.796875 72.90625 
L 49.515625 72.90625 
L 49.515625 64.59375 
L 19.828125 64.59375 
L 19.828125 46.734375 
Q 21.96875 47.46875 24.109375 47.828125 
Q 26.265625 48.1875 28.421875 48.1875 
Q 40.625 48.1875 47.75 41.5 
Q 54.890625 34.8125 54.890625 23.390625 
Q 54.890625 11.625 47.5625 5.09375 
Q 40.234375 -1.421875 26.90625 -1.421875 
Q 22.3125 -1.421875 17.546875 -0.640625 
Q 12.796875 0.140625 7.71875 1.703125 
L 7.71875 11.625 
Q 12.109375 9.234375 16.796875 8.0625 
Q 21.484375 6.890625 26.703125 6.890625 
Q 35.15625 6.890625 40.078125 11.328125 
Q 45.015625 15.765625 45.015625 23.390625 
Q 45.015625 31 40.078125 35.4375 
Q 35.15625 39.890625 26.703125 39.890625 
Q 22.75 39.890625 18.8125 39.015625 
Q 14.890625 38.140625 10.796875 36.28125 
z
" id="DejaVuSans-35"/>
      </defs>
      <g style="fill:#262626;" transform="translate(37.50125 218.006722)scale(0.11 -0.11)">
       <use xlink:href="#DejaVuSans-35"/>
      </g>
     </g>
    </g>
    <g id="ytick_3">
     <g id="line2d_8">
      <path clip-path="url(#pa2c8519c01)" d="M 54 175.655163 
L 388.8 175.655163 
" style="fill:none;stroke:#ffffff;stroke-linecap:round;"/>
     </g>
     <g id="text_8">
      <!-- 10 -->
      <defs>
       <path d="M 12.40625 8.296875 
L 28.515625 8.296875 
L 28.515625 63.921875 
L 10.984375 60.40625 
L 10.984375 69.390625 
L 28.421875 72.90625 
L 38.28125 72.90625 
L 38.28125 8.296875 
L 54.390625 8.296875 
L 54.390625 0 
L 12.40625 0 
z
" id="DejaVuSans-31"/>
      </defs>
      <g style="fill:#262626;" transform="translate(30.5025 179.834303)scale(0.11 -0.11)">
       <use xlink:href="#DejaVuSans-31"/>
       <use x="63.623047" xlink:href="#DejaVuSans-30"/>
      </g>
     </g>
    </g>
    <g id="ytick_4">
     <g id="line2d_9">
      <path clip-path="url(#pa2c8519c01)" d="M 54 137.482744 
L 388.8 137.482744 
" style="fill:none;stroke:#ffffff;stroke-linecap:round;"/>
     </g>
     <g id="text_9">
      <!-- 15 -->
      <g style="fill:#262626;" transform="translate(30.5025 141.661884)scale(0.11 -0.11)">
       <use xlink:href="#DejaVuSans-31"/>
       <use x="63.623047" xlink:href="#DejaVuSans-35"/>
      </g>
     </g>
    </g>
    <g id="ytick_5">
     <g id="line2d_10">
      <path clip-path="url(#pa2c8519c01)" d="M 54 99.310325 
L 388.8 99.310325 
" style="fill:none;stroke:#ffffff;stroke-linecap:round;"/>
     </g>
     <g id="text_10">
      <!-- 20 -->
      <g style="fill:#262626;" transform="translate(30.5025 103.489466)scale(0.11 -0.11)">
       <use xlink:href="#DejaVuSans-32"/>
       <use x="63.623047" xlink:href="#DejaVuSans-30"/>
      </g>
     </g>
    </g>
    <g id="ytick_6">
     <g id="line2d_11">
      <path clip-path="url(#pa2c8519c01)" d="M 54 61.137906 
L 388.8 61.137906 
" style="fill:none;stroke:#ffffff;stroke-linecap:round;"/>
     </g>
     <g id="text_11">
      <!-- 25 -->
      <g style="fill:#262626;" transform="translate(30.5025 65.317047)scale(0.11 -0.11)">
       <use xlink:href="#DejaVuSans-32"/>
       <use x="63.623047" xlink:href="#DejaVuSans-35"/>
      </g>
     </g>
    </g>
   </g>
   <g id="patch_3">
    <path clip-path="url(#pa2c8519c01)" d="M 69.218182 252 
L 74.122944 252 
L 74.122944 234.622676 
L 69.218182 234.622676 
z
" style="fill:#4c72b0;opacity:0.4;stroke:#ffffff;stroke-linejoin:miter;"/>
   </g>
   <g id="patch_4">
    <path clip-path="url(#pa2c8519c01)" d="M 74.122944 252 
L 79.027706 252 
L 79.027706 233.174566 
L 74.122944 233.174566 
z
" style="fill:#4c72b0;opacity:0.4;stroke:#ffffff;stroke-linejoin:miter;"/>
   </g>
   <g id="patch_5">
    <path clip-path="url(#pa2c8519c01)" d="M 79.027706 252 
L 83.932468 252 
L 83.932468 204.212359 
L 79.027706 204.212359 
z
" style="fill:#4c72b0;opacity:0.4;stroke:#ffffff;stroke-linejoin:miter;"/>
   </g>
   <g id="patch_6">
    <path clip-path="url(#pa2c8519c01)" d="M 83.932468 252 
L 88.83723 252 
L 88.83723 169.457711 
L 83.932468 169.457711 
z
" style="fill:#4c72b0;opacity:0.4;stroke:#ffffff;stroke-linejoin:miter;"/>
   </g>
   <g id="patch_7">
    <path clip-path="url(#pa2c8519c01)" d="M 88.83723 252 
L 93.741992 252 
L 93.741992 170.905822 
L 88.83723 170.905822 
z
" style="fill:#4c72b0;opacity:0.4;stroke:#ffffff;stroke-linejoin:miter;"/>
   </g>
   <g id="patch_8">
    <path clip-path="url(#pa2c8519c01)" d="M 93.741992 252 
L 98.646754 252 
L 98.646754 188.283145 
L 93.741992 188.283145 
z
" style="fill:#4c72b0;opacity:0.4;stroke:#ffffff;stroke-linejoin:miter;"/>
   </g>
   <g id="patch_9">
    <path clip-path="url(#pa2c8519c01)" d="M 98.646754 252 
L 103.551516 252 
L 103.551516 186.835035 
L 98.646754 186.835035 
z
" style="fill:#4c72b0;opacity:0.4;stroke:#ffffff;stroke-linejoin:miter;"/>
   </g>
   <g id="patch_10">
    <path clip-path="url(#pa2c8519c01)" d="M 103.551516 252 
L 108.456279 252 
L 108.456279 220.141573 
L 103.551516 220.141573 
z
" style="fill:#4c72b0;opacity:0.4;stroke:#ffffff;stroke-linejoin:miter;"/>
   </g>
   <g id="patch_11">
    <path clip-path="url(#pa2c8519c01)" d="M 108.456279 252 
L 113.361041 252 
L 113.361041 233.174566 
L 108.456279 233.174566 
z
" style="fill:#4c72b0;opacity:0.4;stroke:#ffffff;stroke-linejoin:miter;"/>
   </g>
   <g id="patch_12">
    <path clip-path="url(#pa2c8519c01)" d="M 113.361041 252 
L 118.265803 252 
L 118.265803 241.863228 
L 113.361041 241.863228 
z
" style="fill:#4c72b0;opacity:0.4;stroke:#ffffff;stroke-linejoin:miter;"/>
   </g>
   <g id="patch_13">
    <path clip-path="url(#pa2c8519c01)" d="M 118.265803 252 
L 123.170565 252 
L 123.170565 237.518897 
L 118.265803 237.518897 
z
" style="fill:#4c72b0;opacity:0.4;stroke:#ffffff;stroke-linejoin:miter;"/>
   </g>
   <g id="patch_14">
    <path clip-path="url(#pa2c8519c01)" d="M 123.170565 252 
L 128.075327 252 
L 128.075327 247.655669 
L 123.170565 247.655669 
z
" style="fill:#4c72b0;opacity:0.4;stroke:#ffffff;stroke-linejoin:miter;"/>
   </g>
   <g id="patch_15">
    <path clip-path="url(#pa2c8519c01)" d="M 128.075327 252 
L 132.980089 252 
L 132.980089 243.311338 
L 128.075327 243.311338 
z
" style="fill:#4c72b0;opacity:0.4;stroke:#ffffff;stroke-linejoin:miter;"/>
   </g>
   <g id="patch_16">
    <path clip-path="url(#pa2c8519c01)" d="M 132.980089 252 
L 137.884851 252 
L 137.884851 247.655669 
L 132.980089 247.655669 
z
" style="fill:#4c72b0;opacity:0.4;stroke:#ffffff;stroke-linejoin:miter;"/>
   </g>
   <g id="patch_17">
    <path clip-path="url(#pa2c8519c01)" d="M 137.884851 252 
L 142.789613 252 
L 142.789613 244.759448 
L 137.884851 244.759448 
z
" style="fill:#4c72b0;opacity:0.4;stroke:#ffffff;stroke-linejoin:miter;"/>
   </g>
   <g id="patch_18">
    <path clip-path="url(#pa2c8519c01)" d="M 142.789613 252 
L 147.694375 252 
L 147.694375 244.759448 
L 142.789613 244.759448 
z
" style="fill:#4c72b0;opacity:0.4;stroke:#ffffff;stroke-linejoin:miter;"/>
   </g>
   <g id="patch_19">
    <path clip-path="url(#pa2c8519c01)" d="M 147.694375 252 
L 152.599137 252 
L 152.599137 246.207559 
L 147.694375 246.207559 
z
" style="fill:#4c72b0;opacity:0.4;stroke:#ffffff;stroke-linejoin:miter;"/>
   </g>
   <g id="patch_20">
    <path clip-path="url(#pa2c8519c01)" d="M 152.599137 252 
L 157.503899 252 
L 157.503899 249.103779 
L 152.599137 249.103779 
z
" style="fill:#4c72b0;opacity:0.4;stroke:#ffffff;stroke-linejoin:miter;"/>
   </g>
   <g id="patch_21">
    <path clip-path="url(#pa2c8519c01)" d="M 157.503899 252 
L 162.408661 252 
L 162.408661 246.207559 
L 157.503899 246.207559 
z
" style="fill:#4c72b0;opacity:0.4;stroke:#ffffff;stroke-linejoin:miter;"/>
   </g>
   <g id="patch_22">
    <path clip-path="url(#pa2c8519c01)" d="M 162.408661 252 
L 167.313424 252 
L 167.313424 250.55189 
L 162.408661 250.55189 
z
" style="fill:#4c72b0;opacity:0.4;stroke:#ffffff;stroke-linejoin:miter;"/>
   </g>
   <g id="patch_23">
    <path clip-path="url(#pa2c8519c01)" d="M 167.313424 252 
L 172.218186 252 
L 172.218186 249.103779 
L 167.313424 249.103779 
z
" style="fill:#4c72b0;opacity:0.4;stroke:#ffffff;stroke-linejoin:miter;"/>
   </g>
   <g id="patch_24">
    <path clip-path="url(#pa2c8519c01)" d="M 172.218186 252 
L 177.122948 252 
L 177.122948 247.655669 
L 172.218186 247.655669 
z
" style="fill:#4c72b0;opacity:0.4;stroke:#ffffff;stroke-linejoin:miter;"/>
   </g>
   <g id="patch_25">
    <path clip-path="url(#pa2c8519c01)" d="M 177.122948 252 
L 182.02771 252 
L 182.02771 249.103779 
L 177.122948 249.103779 
z
" style="fill:#4c72b0;opacity:0.4;stroke:#ffffff;stroke-linejoin:miter;"/>
   </g>
   <g id="patch_26">
    <path clip-path="url(#pa2c8519c01)" d="M 182.02771 252 
L 186.932472 252 
L 186.932472 252 
L 182.02771 252 
z
" style="fill:#4c72b0;opacity:0.4;stroke:#ffffff;stroke-linejoin:miter;"/>
   </g>
   <g id="patch_27">
    <path clip-path="url(#pa2c8519c01)" d="M 186.932472 252 
L 191.837234 252 
L 191.837234 250.55189 
L 186.932472 250.55189 
z
" style="fill:#4c72b0;opacity:0.4;stroke:#ffffff;stroke-linejoin:miter;"/>
   </g>
   <g id="patch_28">
    <path clip-path="url(#pa2c8519c01)" d="M 191.837234 252 
L 196.741996 252 
L 196.741996 250.55189 
L 191.837234 250.55189 
z
" style="fill:#4c72b0;opacity:0.4;stroke:#ffffff;stroke-linejoin:miter;"/>
   </g>
   <g id="patch_29">
    <path clip-path="url(#pa2c8519c01)" d="M 196.741996 252 
L 201.646758 252 
L 201.646758 250.55189 
L 196.741996 250.55189 
z
" style="fill:#4c72b0;opacity:0.4;stroke:#ffffff;stroke-linejoin:miter;"/>
   </g>
   <g id="patch_30">
    <path clip-path="url(#pa2c8519c01)" d="M 201.646758 252 
L 206.55152 252 
L 206.55152 252 
L 201.646758 252 
z
" style="fill:#4c72b0;opacity:0.4;stroke:#ffffff;stroke-linejoin:miter;"/>
   </g>
   <g id="patch_31">
    <path clip-path="url(#pa2c8519c01)" d="M 206.55152 252 
L 211.456282 252 
L 211.456282 250.55189 
L 206.55152 250.55189 
z
" style="fill:#4c72b0;opacity:0.4;stroke:#ffffff;stroke-linejoin:miter;"/>
   </g>
   <g id="patch_32">
    <path clip-path="url(#pa2c8519c01)" d="M 211.456282 252 
L 216.361044 252 
L 216.361044 247.655669 
L 211.456282 247.655669 
z
" style="fill:#4c72b0;opacity:0.4;stroke:#ffffff;stroke-linejoin:miter;"/>
   </g>
   <g id="patch_33">
    <path clip-path="url(#pa2c8519c01)" d="M 168.832899 252 
L 174.747226 252 
L 174.747226 249.253946 
L 168.832899 249.253946 
z
" style="fill:#dd8452;opacity:0.4;stroke:#ffffff;stroke-linejoin:miter;"/>
   </g>
   <g id="patch_34">
    <path clip-path="url(#pa2c8519c01)" d="M 174.747226 252 
L 180.661553 252 
L 180.661553 246.507892 
L 174.747226 246.507892 
z
" style="fill:#dd8452;opacity:0.4;stroke:#ffffff;stroke-linejoin:miter;"/>
   </g>
   <g id="patch_35">
    <path clip-path="url(#pa2c8519c01)" d="M 180.661553 252 
L 186.57588 252 
L 186.57588 250.626973 
L 180.661553 250.626973 
z
" style="fill:#dd8452;opacity:0.4;stroke:#ffffff;stroke-linejoin:miter;"/>
   </g>
   <g id="patch_36">
    <path clip-path="url(#pa2c8519c01)" d="M 186.57588 252 
L 192.490207 252 
L 192.490207 245.134865 
L 186.57588 245.134865 
z
" style="fill:#dd8452;opacity:0.4;stroke:#ffffff;stroke-linejoin:miter;"/>
   </g>
   <g id="patch_37">
    <path clip-path="url(#pa2c8519c01)" d="M 192.490207 252 
L 198.404534 252 
L 198.404534 235.523676 
L 192.490207 235.523676 
z
" style="fill:#dd8452;opacity:0.4;stroke:#ffffff;stroke-linejoin:miter;"/>
   </g>
   <g id="patch_38">
    <path clip-path="url(#pa2c8519c01)" d="M 198.404534 252 
L 204.318861 252 
L 204.318861 217.674326 
L 198.404534 217.674326 
z
" style="fill:#dd8452;opacity:0.4;stroke:#ffffff;stroke-linejoin:miter;"/>
   </g>
   <g id="patch_39">
    <path clip-path="url(#pa2c8519c01)" d="M 204.318861 252 
L 210.233188 252 
L 210.233188 220.42038 
L 204.318861 220.42038 
z
" style="fill:#dd8452;opacity:0.4;stroke:#ffffff;stroke-linejoin:miter;"/>
   </g>
   <g id="patch_40">
    <path clip-path="url(#pa2c8519c01)" d="M 210.233188 252 
L 216.147515 252 
L 216.147515 198.451948 
L 210.233188 198.451948 
z
" style="fill:#dd8452;opacity:0.4;stroke:#ffffff;stroke-linejoin:miter;"/>
   </g>
   <g id="patch_41">
    <path clip-path="url(#pa2c8519c01)" d="M 216.147515 252 
L 222.061842 252 
L 222.061842 179.229571 
L 216.147515 179.229571 
z
" style="fill:#dd8452;opacity:0.4;stroke:#ffffff;stroke-linejoin:miter;"/>
   </g>
   <g id="patch_42">
    <path clip-path="url(#pa2c8519c01)" d="M 222.061842 252 
L 227.976169 252 
L 227.976169 194.332867 
L 222.061842 194.332867 
z
" style="fill:#dd8452;opacity:0.4;stroke:#ffffff;stroke-linejoin:miter;"/>
   </g>
   <g id="patch_43">
    <path clip-path="url(#pa2c8519c01)" d="M 227.976169 252 
L 233.890496 252 
L 233.890496 184.721679 
L 227.976169 184.721679 
z
" style="fill:#dd8452;opacity:0.4;stroke:#ffffff;stroke-linejoin:miter;"/>
   </g>
   <g id="patch_44">
    <path clip-path="url(#pa2c8519c01)" d="M 233.890496 252 
L 239.804823 252 
L 239.804823 217.674326 
L 233.890496 217.674326 
z
" style="fill:#dd8452;opacity:0.4;stroke:#ffffff;stroke-linejoin:miter;"/>
   </g>
   <g id="patch_45">
    <path clip-path="url(#pa2c8519c01)" d="M 239.804823 252 
L 245.71915 252 
L 245.71915 221.793407 
L 239.804823 221.793407 
z
" style="fill:#dd8452;opacity:0.4;stroke:#ffffff;stroke-linejoin:miter;"/>
   </g>
   <g id="patch_46">
    <path clip-path="url(#pa2c8519c01)" d="M 245.71915 252 
L 251.633477 252 
L 251.633477 242.388811 
L 245.71915 242.388811 
z
" style="fill:#dd8452;opacity:0.4;stroke:#ffffff;stroke-linejoin:miter;"/>
   </g>
   <g id="patch_47">
    <path clip-path="url(#pa2c8519c01)" d="M 251.633477 252 
L 257.547804 252 
L 257.547804 246.507892 
L 251.633477 246.507892 
z
" style="fill:#dd8452;opacity:0.4;stroke:#ffffff;stroke-linejoin:miter;"/>
   </g>
   <g id="patch_48">
    <path clip-path="url(#pa2c8519c01)" d="M 257.547804 252 
L 263.462131 252 
L 263.462131 250.626973 
L 257.547804 250.626973 
z
" style="fill:#dd8452;opacity:0.4;stroke:#ffffff;stroke-linejoin:miter;"/>
   </g>
   <g id="patch_49">
    <path clip-path="url(#pa2c8519c01)" d="M 337.771828 252 
L 339.842822 252 
L 339.842822 244.46961 
L 337.771828 244.46961 
z
" style="fill:#55a868;opacity:0.4;stroke:#ffffff;stroke-linejoin:miter;"/>
   </g>
   <g id="patch_50">
    <path clip-path="url(#pa2c8519c01)" d="M 339.842822 252 
L 341.913816 252 
L 341.913816 244.46961 
L 339.842822 244.46961 
z
" style="fill:#55a868;opacity:0.4;stroke:#ffffff;stroke-linejoin:miter;"/>
   </g>
   <g id="patch_51">
    <path clip-path="url(#pa2c8519c01)" d="M 341.913816 252 
L 343.98481 252 
L 343.98481 248.234805 
L 341.913816 248.234805 
z
" style="fill:#55a868;opacity:0.4;stroke:#ffffff;stroke-linejoin:miter;"/>
   </g>
   <g id="patch_52">
    <path clip-path="url(#pa2c8519c01)" d="M 343.98481 252 
L 346.055804 252 
L 346.055804 240.704416 
L 343.98481 240.704416 
z
" style="fill:#55a868;opacity:0.4;stroke:#ffffff;stroke-linejoin:miter;"/>
   </g>
   <g id="patch_53">
    <path clip-path="url(#pa2c8519c01)" d="M 346.055804 252 
L 348.126798 252 
L 348.126798 244.46961 
L 346.055804 244.46961 
z
" style="fill:#55a868;opacity:0.4;stroke:#ffffff;stroke-linejoin:miter;"/>
   </g>
   <g id="patch_54">
    <path clip-path="url(#pa2c8519c01)" d="M 348.126798 252 
L 350.197792 252 
L 350.197792 180.461299 
L 348.126798 180.461299 
z
" style="fill:#55a868;opacity:0.4;stroke:#ffffff;stroke-linejoin:miter;"/>
   </g>
   <g id="patch_55">
    <path clip-path="url(#pa2c8519c01)" d="M 350.197792 252 
L 352.268786 252 
L 352.268786 154.104935 
L 350.197792 154.104935 
z
" style="fill:#55a868;opacity:0.4;stroke:#ffffff;stroke-linejoin:miter;"/>
   </g>
   <g id="patch_56">
    <path clip-path="url(#pa2c8519c01)" d="M 352.268786 252 
L 354.33978 252 
L 354.33978 86.331429 
L 352.268786 86.331429 
z
" style="fill:#55a868;opacity:0.4;stroke:#ffffff;stroke-linejoin:miter;"/>
   </g>
   <g id="patch_57">
    <path clip-path="url(#pa2c8519c01)" d="M 354.33978 252 
L 356.410774 252 
L 356.410774 67.505455 
L 354.33978 67.505455 
z
" style="fill:#55a868;opacity:0.4;stroke:#ffffff;stroke-linejoin:miter;"/>
   </g>
   <g id="patch_58">
    <path clip-path="url(#pa2c8519c01)" d="M 356.410774 252 
L 358.481768 252 
L 358.481768 44.914286 
L 356.410774 44.914286 
z
" style="fill:#55a868;opacity:0.4;stroke:#ffffff;stroke-linejoin:miter;"/>
   </g>
   <g id="patch_59">
    <path clip-path="url(#pa2c8519c01)" d="M 358.481768 252 
L 360.552762 252 
L 360.552762 93.861818 
L 358.481768 93.861818 
z
" style="fill:#55a868;opacity:0.4;stroke:#ffffff;stroke-linejoin:miter;"/>
   </g>
   <g id="patch_60">
    <path clip-path="url(#pa2c8519c01)" d="M 360.552762 252 
L 362.623756 252 
L 362.623756 71.270649 
L 360.552762 71.270649 
z
" style="fill:#55a868;opacity:0.4;stroke:#ffffff;stroke-linejoin:miter;"/>
   </g>
   <g id="patch_61">
    <path clip-path="url(#pa2c8519c01)" d="M 362.623756 252 
L 364.69475 252 
L 364.69475 184.226494 
L 362.623756 184.226494 
z
" style="fill:#55a868;opacity:0.4;stroke:#ffffff;stroke-linejoin:miter;"/>
   </g>
   <g id="patch_62">
    <path clip-path="url(#pa2c8519c01)" d="M 364.69475 252 
L 366.765744 252 
L 366.765744 214.348052 
L 364.69475 214.348052 
z
" style="fill:#55a868;opacity:0.4;stroke:#ffffff;stroke-linejoin:miter;"/>
   </g>
   <g id="patch_63">
    <path clip-path="url(#pa2c8519c01)" d="M 366.765744 252 
L 368.836738 252 
L 368.836738 229.408831 
L 366.765744 229.408831 
z
" style="fill:#55a868;opacity:0.4;stroke:#ffffff;stroke-linejoin:miter;"/>
   </g>
   <g id="line2d_12">
    <path clip-path="url(#pa2c8519c01)" d="M 154.100839 251.992278 
L 155.354307 251.983782 
L 156.607775 251.967978 
L 157.861243 251.940502 
L 159.114711 251.895834 
L 160.36818 251.827874 
L 161.621648 251.730971 
L 162.875116 251.601146 
L 164.128584 251.437079 
L 165.382053 251.240309 
L 166.635521 251.014434 
L 167.888989 250.763577 
L 169.142457 250.49095 
L 170.395925 250.198549 
L 171.649394 249.888594 
L 172.902862 249.566401 
L 174.15633 249.24326 
L 175.409798 248.937323 
L 176.663266 248.670763 
L 177.916735 248.462841 
L 179.170203 248.320405 
L 180.423671 248.228981 
L 181.677139 248.148131 
L 182.930608 248.013625 
L 184.184076 247.746668 
L 185.437544 247.267734 
L 186.691012 246.510927 
L 187.94448 245.434766 
L 189.197949 244.02696 
L 190.451417 242.303149 
L 191.704885 240.301696 
L 192.958353 238.077449 
L 194.211821 235.696853 
L 195.46529 233.234951 
L 196.718758 230.772659 
L 197.972226 228.391211 
L 199.225694 226.161106 
L 200.479162 224.125726 
L 201.732631 222.283953 
L 202.986099 220.579381 
L 204.239567 218.903438 
L 205.493035 217.115276 
L 206.746504 215.074614 
L 207.999972 212.678307 
L 209.25344 209.89008 
L 210.506908 206.755475 
L 211.760376 203.398738 
L 213.013845 200.002651 
L 214.267313 196.775618 
L 215.520781 193.912817 
L 216.774249 191.560263 
L 218.027717 189.790875 
L 219.281186 188.599147 
L 220.534654 187.915725 
L 221.788122 187.637293 
L 223.04159 187.662906 
L 224.295059 187.92676 
L 225.548527 188.418797 
L 226.801995 189.187696 
L 228.055463 190.325003 
L 229.308931 191.934027 
L 230.5624 194.091834 
L 231.815868 196.815513 
L 233.069336 200.043387 
L 234.322804 203.637777 
L 235.576272 207.409536 
L 236.829741 211.15798 
L 238.083209 214.715102 
L 239.336677 217.981263 
L 240.590145 220.941527 
L 241.843613 223.657225 
L 243.097082 226.2351 
L 244.35055 228.784106 
L 245.604018 231.37464 
L 246.857486 234.014207 
L 248.110955 236.647107 
L 249.364423 239.176142 
L 250.617891 241.496047 
L 251.871359 243.524936 
L 253.124827 245.222913 
L 254.378296 246.593954 
L 255.631764 247.67454 
L 256.885232 248.516755 
L 258.1387 249.17349 
L 259.392168 249.689982 
L 260.645637 250.101735 
L 261.899105 250.436077 
L 263.152573 250.714253 
L 264.406041 250.952345 
L 265.659509 251.161136 
L 266.912978 251.346032 
L 268.166446 251.50798 
L 269.419914 251.645461 
L 270.673382 251.756804 
L 271.926851 251.841926 
L 273.180319 251.902967 
L 274.433787 251.943884 
L 275.687255 251.969476 
L 276.940723 251.984401 
L 278.194192 251.992517 
" style="fill:none;stroke:#dd8452;stroke-linecap:round;stroke-width:1.5;"/>
   </g>
   <g id="line2d_13">
    <path clip-path="url(#pa2c8519c01)" d="M 333.026749 251.977453 
L 333.436396 251.952338 
L 333.846043 251.905506 
L 334.25569 251.82411 
L 334.665337 251.692199 
L 335.074984 251.492704 
L 335.484632 251.210757 
L 335.894279 250.837577 
L 336.303926 250.373601 
L 336.713573 249.829634 
L 337.12322 249.225642 
L 337.532867 248.587981 
L 337.942515 247.946455 
L 338.352162 247.332113 
L 338.761809 246.77555 
L 339.171456 246.304725 
L 339.581103 245.941903 
L 339.99075 245.700625 
L 340.400398 245.58427 
L 340.810045 245.586596 
L 341.219692 245.692484 
L 341.629339 245.876125 
L 342.038986 246.095671 
L 342.448633 246.287295 
L 342.858281 246.364411 
L 343.267928 246.226674 
L 343.677575 245.777911 
L 344.087222 244.945457 
L 344.496869 243.690222 
L 344.906516 242.000084 
L 345.316164 239.868209 
L 345.725811 237.267635 
L 346.135458 234.137905 
L 346.545105 230.39475 
L 346.954752 225.96121 
L 347.364399 220.804783 
L 347.774047 214.958646 
L 348.183694 208.511008 
L 348.593341 201.563245 
L 349.002988 194.176332 
L 349.412635 186.335534 
L 349.822282 177.958645 
L 350.23193 168.953931 
L 350.641577 159.308306 
L 351.051224 149.166103 
L 351.460871 138.855099 
L 351.870518 128.83393 
L 352.280165 119.5688 
L 352.689813 111.383108 
L 353.09946 104.343046 
L 353.509107 98.233056 
L 353.918754 92.638821 
L 354.328401 87.108623 
L 354.738048 81.329756 
L 355.147696 75.252083 
L 355.557343 69.11714 
L 355.96699 63.392649 
L 356.376637 58.646881 
L 356.786284 55.409205 
L 357.195931 54.052901 
L 357.605579 54.717725 
L 358.015226 57.278632 
L 358.424873 61.367421 
L 358.83452 66.455772 
L 359.244167 71.996489 
L 359.653814 77.591982 
L 360.063462 83.130515 
L 360.473109 88.825818 
L 360.882756 95.127716 
L 361.292403 102.529329 
L 361.70205 111.348956 
L 362.111697 121.580499 
L 362.521345 132.874669 
L 362.930992 144.651255 
L 363.340639 156.284108 
L 363.750286 167.274831 
L 364.159933 177.347954 
L 364.56958 186.445895 
L 364.979228 194.649936 
L 365.388875 202.080235 
L 365.798522 208.824347 
L 366.208169 214.917472 
L 366.617816 220.366053 
L 367.027463 225.186388 
L 367.437111 229.429365 
L 367.846758 233.177498 
L 368.256405 236.519815 
L 368.666052 239.522225 
L 369.075699 242.210689 
L 369.485347 244.574643 
L 369.894994 246.58623 
L 370.304641 248.223942 
L 370.714288 249.489679 
L 371.123935 250.41384 
L 371.533582 251.04949 
L 371.94323 251.460699 
L 372.352877 251.710676 
L 372.762524 251.853403 
L 373.172171 251.929916 
L 373.581818 251.968415 
" style="fill:none;stroke:#55a868;stroke-linecap:round;stroke-width:1.5;"/>
   </g>
   <g id="patch_64">
    <path d="M 54 252 
L 54 34.56 
" style="fill:none;stroke:#ffffff;stroke-linecap:square;stroke-linejoin:miter;stroke-width:1.25;"/>
   </g>
   <g id="patch_65">
    <path d="M 388.8 252 
L 388.8 34.56 
" style="fill:none;stroke:#ffffff;stroke-linecap:square;stroke-linejoin:miter;stroke-width:1.25;"/>
   </g>
   <g id="patch_66">
    <path d="M 54 252 
L 388.8 252 
" style="fill:none;stroke:#ffffff;stroke-linecap:square;stroke-linejoin:miter;stroke-width:1.25;"/>
   </g>
   <g id="patch_67">
    <path d="M 54 34.56 
L 388.8 34.56 
" style="fill:none;stroke:#ffffff;stroke-linecap:square;stroke-linejoin:miter;stroke-width:1.25;"/>
   </g>
  </g>
 </g>
 <defs>
  <clipPath id="pa2c8519c01">
   <rect height="217.44" width="334.8" x="54" y="34.56"/>
  </clipPath>
 </defs>
</svg>
