<?xml version="1.0" encoding="utf-8" standalone="no"?>
<!DOCTYPE svg PUBLIC "-//W3C//DTD SVG 1.1//EN"
  "http://www.w3.org/Graphics/SVG/1.1/DTD/svg11.dtd">
<!-- Created with matplotlib (http://matplotlib.org/) -->
<svg height="288pt" version="1.1" viewBox="0 0 432 288" width="432pt" xmlns="http://www.w3.org/2000/svg" xmlns:xlink="http://www.w3.org/1999/xlink">
 <defs>
  <style type="text/css">
*{stroke-linecap:butt;stroke-linejoin:round;}
  </style>
 </defs>
 <g id="figure_1">
  <g id="patch_1">
   <path d="M 0 288 
L 432 288 
L 432 0 
L 0 0 
z
" style="fill:#ffffff;"/>
  </g>
  <g id="axes_1">
   <g id="patch_2">
    <path d="M 54 252 
L 388.8 252 
L 388.8 34.56 
L 54 34.56 
z
" style="fill:#eaeaf2;"/>
   </g>
   <g id="matplotlib.axis_1">
    <g id="xtick_1">
     <g id="line2d_1">
      <path clip-path="url(#p7431ff072d)" d="M 54 252 
L 54 34.56 
" style="fill:none;stroke:#ffffff;stroke-linecap:round;"/>
     </g>
     <g id="text_1">
      <!-- 0.0 -->
      <defs>
       <path d="M 31.78125 66.40625 
Q 24.171875 66.40625 20.328125 58.90625 
Q 16.5 51.421875 16.5 36.375 
Q 16.5 21.390625 20.328125 13.890625 
Q 24.171875 6.390625 31.78125 6.390625 
Q 39.453125 6.390625 43.28125 13.890625 
Q 47.125 21.390625 47.125 36.375 
Q 47.125 51.421875 43.28125 58.90625 
Q 39.453125 66.40625 31.78125 66.40625 
z
M 31.78125 74.21875 
Q 44.046875 74.21875 50.515625 64.515625 
Q 56.984375 54.828125 56.984375 36.375 
Q 56.984375 17.96875 50.515625 8.265625 
Q 44.046875 -1.421875 31.78125 -1.421875 
Q 19.53125 -1.421875 13.0625 8.265625 
Q 6.59375 17.96875 6.59375 36.375 
Q 6.59375 54.828125 13.0625 64.515625 
Q 19.53125 74.21875 31.78125 74.21875 
z
" id="DejaVuSans-30"/>
       <path d="M 10.6875 12.40625 
L 21 12.40625 
L 21 0 
L 10.6875 0 
z
" id="DejaVuSans-2e"/>
      </defs>
      <g style="fill:#262626;" transform="translate(45.253281 269.858281)scale(0.11 -0.11)">
       <use xlink:href="#DejaVuSans-30"/>
       <use x="63.623047" xlink:href="#DejaVuSans-2e"/>
       <use x="95.410156" xlink:href="#DejaVuSans-30"/>
      </g>
     </g>
    </g>
    <g id="xtick_2">
     <g id="line2d_2">
      <path clip-path="url(#p7431ff072d)" d="M 120.96 252 
L 120.96 34.56 
" style="fill:none;stroke:#ffffff;stroke-linecap:round;"/>
     </g>
     <g id="text_2">
      <!-- 0.2 -->
      <defs>
       <path d="M 19.1875 8.296875 
L 53.609375 8.296875 
L 53.609375 0 
L 7.328125 0 
L 7.328125 8.296875 
Q 12.9375 14.109375 22.625 23.890625 
Q 32.328125 33.6875 34.8125 36.53125 
Q 39.546875 41.84375 41.421875 45.53125 
Q 43.3125 49.21875 43.3125 52.78125 
Q 43.3125 58.59375 39.234375 62.25 
Q 35.15625 65.921875 28.609375 65.921875 
Q 23.96875 65.921875 18.8125 64.3125 
Q 13.671875 62.703125 7.8125 59.421875 
L 7.8125 69.390625 
Q 13.765625 71.78125 18.9375 73 
Q 24.125 74.21875 28.421875 74.21875 
Q 39.75 74.21875 46.484375 68.546875 
Q 53.21875 62.890625 53.21875 53.421875 
Q 53.21875 48.921875 51.53125 44.890625 
Q 49.859375 40.875 45.40625 35.40625 
Q 44.1875 33.984375 37.640625 27.21875 
Q 31.109375 20.453125 19.1875 8.296875 
z
" id="DejaVuSans-32"/>
      </defs>
      <g style="fill:#262626;" transform="translate(112.213281 269.858281)scale(0.11 -0.11)">
       <use xlink:href="#DejaVuSans-30"/>
       <use x="63.623047" xlink:href="#DejaVuSans-2e"/>
       <use x="95.410156" xlink:href="#DejaVuSans-32"/>
      </g>
     </g>
    </g>
    <g id="xtick_3">
     <g id="line2d_3">
      <path clip-path="url(#p7431ff072d)" d="M 187.92 252 
L 187.92 34.56 
" style="fill:none;stroke:#ffffff;stroke-linecap:round;"/>
     </g>
     <g id="text_3">
      <!-- 0.4 -->
      <defs>
       <path d="M 37.796875 64.3125 
L 12.890625 25.390625 
L 37.796875 25.390625 
z
M 35.203125 72.90625 
L 47.609375 72.90625 
L 47.609375 25.390625 
L 58.015625 25.390625 
L 58.015625 17.1875 
L 47.609375 17.1875 
L 47.609375 0 
L 37.796875 0 
L 37.796875 17.1875 
L 4.890625 17.1875 
L 4.890625 26.703125 
z
" id="DejaVuSans-34"/>
      </defs>
      <g style="fill:#262626;" transform="translate(179.173281 269.858281)scale(0.11 -0.11)">
       <use xlink:href="#DejaVuSans-30"/>
       <use x="63.623047" xlink:href="#DejaVuSans-2e"/>
       <use x="95.410156" xlink:href="#DejaVuSans-34"/>
      </g>
     </g>
    </g>
    <g id="xtick_4">
     <g id="line2d_4">
      <path clip-path="url(#p7431ff072d)" d="M 254.88 252 
L 254.88 34.56 
" style="fill:none;stroke:#ffffff;stroke-linecap:round;"/>
     </g>
     <g id="text_4">
      <!-- 0.6 -->
      <defs>
       <path d="M 33.015625 40.375 
Q 26.375 40.375 22.484375 35.828125 
Q 18.609375 31.296875 18.609375 23.390625 
Q 18.609375 15.53125 22.484375 10.953125 
Q 26.375 6.390625 33.015625 6.390625 
Q 39.65625 6.390625 43.53125 10.953125 
Q 47.40625 15.53125 47.40625 23.390625 
Q 47.40625 31.296875 43.53125 35.828125 
Q 39.65625 40.375 33.015625 40.375 
z
M 52.59375 71.296875 
L 52.59375 62.3125 
Q 48.875 64.0625 45.09375 64.984375 
Q 41.3125 65.921875 37.59375 65.921875 
Q 27.828125 65.921875 22.671875 59.328125 
Q 17.53125 52.734375 16.796875 39.40625 
Q 19.671875 43.65625 24.015625 45.921875 
Q 28.375 48.1875 33.59375 48.1875 
Q 44.578125 48.1875 50.953125 41.515625 
Q 57.328125 34.859375 57.328125 23.390625 
Q 57.328125 12.15625 50.6875 5.359375 
Q 44.046875 -1.421875 33.015625 -1.421875 
Q 20.359375 -1.421875 13.671875 8.265625 
Q 6.984375 17.96875 6.984375 36.375 
Q 6.984375 53.65625 15.1875 63.9375 
Q 23.390625 74.21875 37.203125 74.21875 
Q 40.921875 74.21875 44.703125 73.484375 
Q 48.484375 72.75 52.59375 71.296875 
z
" id="DejaVuSans-36"/>
      </defs>
      <g style="fill:#262626;" transform="translate(246.133281 269.858281)scale(0.11 -0.11)">
       <use xlink:href="#DejaVuSans-30"/>
       <use x="63.623047" xlink:href="#DejaVuSans-2e"/>
       <use x="95.410156" xlink:href="#DejaVuSans-36"/>
      </g>
     </g>
    </g>
    <g id="xtick_5">
     <g id="line2d_5">
      <path clip-path="url(#p7431ff072d)" d="M 321.84 252 
L 321.84 34.56 
" style="fill:none;stroke:#ffffff;stroke-linecap:round;"/>
     </g>
     <g id="text_5">
      <!-- 0.8 -->
      <defs>
       <path d="M 31.78125 34.625 
Q 24.75 34.625 20.71875 30.859375 
Q 16.703125 27.09375 16.703125 20.515625 
Q 16.703125 13.921875 20.71875 10.15625 
Q 24.75 6.390625 31.78125 6.390625 
Q 38.8125 6.390625 42.859375 10.171875 
Q 46.921875 13.96875 46.921875 20.515625 
Q 46.921875 27.09375 42.890625 30.859375 
Q 38.875 34.625 31.78125 34.625 
z
M 21.921875 38.8125 
Q 15.578125 40.375 12.03125 44.71875 
Q 8.5 49.078125 8.5 55.328125 
Q 8.5 64.0625 14.71875 69.140625 
Q 20.953125 74.21875 31.78125 74.21875 
Q 42.671875 74.21875 48.875 69.140625 
Q 55.078125 64.0625 55.078125 55.328125 
Q 55.078125 49.078125 51.53125 44.71875 
Q 48 40.375 41.703125 38.8125 
Q 48.828125 37.15625 52.796875 32.3125 
Q 56.78125 27.484375 56.78125 20.515625 
Q 56.78125 9.90625 50.3125 4.234375 
Q 43.84375 -1.421875 31.78125 -1.421875 
Q 19.734375 -1.421875 13.25 4.234375 
Q 6.78125 9.90625 6.78125 20.515625 
Q 6.78125 27.484375 10.78125 32.3125 
Q 14.796875 37.15625 21.921875 38.8125 
z
M 18.3125 54.390625 
Q 18.3125 48.734375 21.84375 45.5625 
Q 25.390625 42.390625 31.78125 42.390625 
Q 38.140625 42.390625 41.71875 45.5625 
Q 45.3125 48.734375 45.3125 54.390625 
Q 45.3125 60.0625 41.71875 63.234375 
Q 38.140625 66.40625 31.78125 66.40625 
Q 25.390625 66.40625 21.84375 63.234375 
Q 18.3125 60.0625 18.3125 54.390625 
z
" id="DejaVuSans-38"/>
      </defs>
      <g style="fill:#262626;" transform="translate(313.093281 269.858281)scale(0.11 -0.11)">
       <use xlink:href="#DejaVuSans-30"/>
       <use x="63.623047" xlink:href="#DejaVuSans-2e"/>
       <use x="95.410156" xlink:href="#DejaVuSans-38"/>
      </g>
     </g>
    </g>
    <g id="xtick_6">
     <g id="line2d_6">
      <path clip-path="url(#p7431ff072d)" d="M 388.8 252 
L 388.8 34.56 
" style="fill:none;stroke:#ffffff;stroke-linecap:round;"/>
     </g>
     <g id="text_6">
      <!-- 1.0 -->
      <defs>
       <path d="M 12.40625 8.296875 
L 28.515625 8.296875 
L 28.515625 63.921875 
L 10.984375 60.40625 
L 10.984375 69.390625 
L 28.421875 72.90625 
L 38.28125 72.90625 
L 38.28125 8.296875 
L 54.390625 8.296875 
L 54.390625 0 
L 12.40625 0 
z
" id="DejaVuSans-31"/>
      </defs>
      <g style="fill:#262626;" transform="translate(380.053281 269.858281)scale(0.11 -0.11)">
       <use xlink:href="#DejaVuSans-31"/>
       <use x="63.623047" xlink:href="#DejaVuSans-2e"/>
       <use x="95.410156" xlink:href="#DejaVuSans-30"/>
      </g>
     </g>
    </g>
   </g>
   <g id="matplotlib.axis_2">
    <g id="ytick_1">
     <g id="line2d_7">
      <path clip-path="url(#p7431ff072d)" d="M 54 252 
L 388.8 252 
" style="fill:none;stroke:#ffffff;stroke-linecap:round;"/>
     </g>
     <g id="text_7">
      <!-- 0 -->
      <g style="fill:#262626;" transform="translate(37.50125 256.179141)scale(0.11 -0.11)">
       <use xlink:href="#DejaVuSans-30"/>
      </g>
     </g>
    </g>
    <g id="ytick_2">
     <g id="line2d_8">
      <path clip-path="url(#p7431ff072d)" d="M 54 211.733333 
L 388.8 211.733333 
" style="fill:none;stroke:#ffffff;stroke-linecap:round;"/>
     </g>
     <g id="text_8">
      <!-- 5 -->
      <defs>
       <path d="M 10.796875 72.90625 
L 49.515625 72.90625 
L 49.515625 64.59375 
L 19.828125 64.59375 
L 19.828125 46.734375 
Q 21.96875 47.46875 24.109375 47.828125 
Q 26.265625 48.1875 28.421875 48.1875 
Q 40.625 48.1875 47.75 41.5 
Q 54.890625 34.8125 54.890625 23.390625 
Q 54.890625 11.625 47.5625 5.09375 
Q 40.234375 -1.421875 26.90625 -1.421875 
Q 22.3125 -1.421875 17.546875 -0.640625 
Q 12.796875 0.140625 7.71875 1.703125 
L 7.71875 11.625 
Q 12.109375 9.234375 16.796875 8.0625 
Q 21.484375 6.890625 26.703125 6.890625 
Q 35.15625 6.890625 40.078125 11.328125 
Q 45.015625 15.765625 45.015625 23.390625 
Q 45.015625 31 40.078125 35.4375 
Q 35.15625 39.890625 26.703125 39.890625 
Q 22.75 39.890625 18.8125 39.015625 
Q 14.890625 38.140625 10.796875 36.28125 
z
" id="DejaVuSans-35"/>
      </defs>
      <g style="fill:#262626;" transform="translate(37.50125 215.912474)scale(0.11 -0.11)">
       <use xlink:href="#DejaVuSans-35"/>
      </g>
     </g>
    </g>
    <g id="ytick_3">
     <g id="line2d_9">
      <path clip-path="url(#p7431ff072d)" d="M 54 171.466667 
L 388.8 171.466667 
" style="fill:none;stroke:#ffffff;stroke-linecap:round;"/>
     </g>
     <g id="text_9">
      <!-- 10 -->
      <g style="fill:#262626;" transform="translate(30.5025 175.645807)scale(0.11 -0.11)">
       <use xlink:href="#DejaVuSans-31"/>
       <use x="63.623047" xlink:href="#DejaVuSans-30"/>
      </g>
     </g>
    </g>
    <g id="ytick_4">
     <g id="line2d_10">
      <path clip-path="url(#p7431ff072d)" d="M 54 131.2 
L 388.8 131.2 
" style="fill:none;stroke:#ffffff;stroke-linecap:round;"/>
     </g>
     <g id="text_10">
      <!-- 15 -->
      <g style="fill:#262626;" transform="translate(30.5025 135.379141)scale(0.11 -0.11)">
       <use xlink:href="#DejaVuSans-31"/>
       <use x="63.623047" xlink:href="#DejaVuSans-35"/>
      </g>
     </g>
    </g>
    <g id="ytick_5">
     <g id="line2d_11">
      <path clip-path="url(#p7431ff072d)" d="M 54 90.933333 
L 388.8 90.933333 
" style="fill:none;stroke:#ffffff;stroke-linecap:round;"/>
     </g>
     <g id="text_11">
      <!-- 20 -->
      <g style="fill:#262626;" transform="translate(30.5025 95.112474)scale(0.11 -0.11)">
       <use xlink:href="#DejaVuSans-32"/>
       <use x="63.623047" xlink:href="#DejaVuSans-30"/>
      </g>
     </g>
    </g>
    <g id="ytick_6">
     <g id="line2d_12">
      <path clip-path="url(#p7431ff072d)" d="M 54 50.666667 
L 388.8 50.666667 
" style="fill:none;stroke:#ffffff;stroke-linecap:round;"/>
     </g>
     <g id="text_12">
      <!-- 25 -->
      <g style="fill:#262626;" transform="translate(30.5025 54.845807)scale(0.11 -0.11)">
       <use xlink:href="#DejaVuSans-32"/>
       <use x="63.623047" xlink:href="#DejaVuSans-35"/>
      </g>
     </g>
    </g>
   </g>
   <g id="patch_3">
    <path clip-path="url(#p7431ff072d)" d="M 148.726617 252 
L 153.544341 252 
L 153.544341 244.205383 
L 148.726617 244.205383 
z
" style="fill:#4c72b0;opacity:0.4;stroke:#ffffff;stroke-linejoin:miter;"/>
   </g>
   <g id="patch_4">
    <path clip-path="url(#p7431ff072d)" d="M 153.544341 252 
L 158.362065 252 
L 158.362065 247.32323 
L 153.544341 247.32323 
z
" style="fill:#4c72b0;opacity:0.4;stroke:#ffffff;stroke-linejoin:miter;"/>
   </g>
   <g id="patch_5">
    <path clip-path="url(#p7431ff072d)" d="M 158.362065 252 
L 163.179788 252 
L 163.179788 245.764306 
L 158.362065 245.764306 
z
" style="fill:#4c72b0;opacity:0.4;stroke:#ffffff;stroke-linejoin:miter;"/>
   </g>
   <g id="patch_6">
    <path clip-path="url(#p7431ff072d)" d="M 163.179788 252 
L 167.997512 252 
L 167.997512 225.498301 
L 163.179788 225.498301 
z
" style="fill:#4c72b0;opacity:0.4;stroke:#ffffff;stroke-linejoin:miter;"/>
   </g>
   <g id="patch_7">
    <path clip-path="url(#p7431ff072d)" d="M 167.997512 252 
L 172.815235 252 
L 172.815235 208.350143 
L 167.997512 208.350143 
z
" style="fill:#4c72b0;opacity:0.4;stroke:#ffffff;stroke-linejoin:miter;"/>
   </g>
   <g id="patch_8">
    <path clip-path="url(#p7431ff072d)" d="M 172.815235 252 
L 177.632959 252 
L 177.632959 184.96629 
L 172.815235 184.96629 
z
" style="fill:#4c72b0;opacity:0.4;stroke:#ffffff;stroke-linejoin:miter;"/>
   </g>
   <g id="patch_9">
    <path clip-path="url(#p7431ff072d)" d="M 177.632959 252 
L 182.450683 252 
L 182.450683 166.259209 
L 177.632959 166.259209 
z
" style="fill:#4c72b0;opacity:0.4;stroke:#ffffff;stroke-linejoin:miter;"/>
   </g>
   <g id="patch_10">
    <path clip-path="url(#p7431ff072d)" d="M 182.450683 252 
L 187.268406 252 
L 187.268406 163.141362 
L 182.450683 163.141362 
z
" style="fill:#4c72b0;opacity:0.4;stroke:#ffffff;stroke-linejoin:miter;"/>
   </g>
   <g id="patch_11">
    <path clip-path="url(#p7431ff072d)" d="M 187.268406 252 
L 192.08613 252 
L 192.08613 178.730597 
L 187.268406 178.730597 
z
" style="fill:#4c72b0;opacity:0.4;stroke:#ffffff;stroke-linejoin:miter;"/>
   </g>
   <g id="patch_12">
    <path clip-path="url(#p7431ff072d)" d="M 192.08613 252 
L 196.903853 252 
L 196.903853 197.437678 
L 192.08613 197.437678 
z
" style="fill:#4c72b0;opacity:0.4;stroke:#ffffff;stroke-linejoin:miter;"/>
   </g>
   <g id="patch_13">
    <path clip-path="url(#p7431ff072d)" d="M 196.903853 252 
L 201.721577 252 
L 201.721577 195.878755 
L 196.903853 195.878755 
z
" style="fill:#4c72b0;opacity:0.4;stroke:#ffffff;stroke-linejoin:miter;"/>
   </g>
   <g id="patch_14">
    <path clip-path="url(#p7431ff072d)" d="M 201.721577 252 
L 206.5393 252 
L 206.5393 234.851842 
L 201.721577 234.851842 
z
" style="fill:#4c72b0;opacity:0.4;stroke:#ffffff;stroke-linejoin:miter;"/>
   </g>
   <g id="patch_15">
    <path clip-path="url(#p7431ff072d)" d="M 206.5393 252 
L 211.357024 252 
L 211.357024 230.175071 
L 206.5393 230.175071 
z
" style="fill:#4c72b0;opacity:0.4;stroke:#ffffff;stroke-linejoin:miter;"/>
   </g>
   <g id="patch_16">
    <path clip-path="url(#p7431ff072d)" d="M 211.357024 252 
L 216.174748 252 
L 216.174748 245.764306 
L 211.357024 245.764306 
z
" style="fill:#4c72b0;opacity:0.4;stroke:#ffffff;stroke-linejoin:miter;"/>
   </g>
   <g id="patch_17">
    <path clip-path="url(#p7431ff072d)" d="M 187.255695 252 
L 192.795427 252 
L 192.795427 244.249803 
L 187.255695 244.249803 
z
" style="fill:#dd8452;opacity:0.4;stroke:#ffffff;stroke-linejoin:miter;"/>
   </g>
   <g id="patch_18">
    <path clip-path="url(#p7431ff072d)" d="M 192.795427 252 
L 198.335159 252 
L 198.335159 241.149724 
L 192.795427 241.149724 
z
" style="fill:#dd8452;opacity:0.4;stroke:#ffffff;stroke-linejoin:miter;"/>
   </g>
   <g id="patch_19">
    <path clip-path="url(#p7431ff072d)" d="M 198.335159 252 
L 203.87489 252 
L 203.87489 239.599685 
L 198.335159 239.599685 
z
" style="fill:#dd8452;opacity:0.4;stroke:#ffffff;stroke-linejoin:miter;"/>
   </g>
   <g id="patch_20">
    <path clip-path="url(#p7431ff072d)" d="M 203.87489 252 
L 209.414622 252 
L 209.414622 233.399527 
L 203.87489 233.399527 
z
" style="fill:#dd8452;opacity:0.4;stroke:#ffffff;stroke-linejoin:miter;"/>
   </g>
   <g id="patch_21">
    <path clip-path="url(#p7431ff072d)" d="M 209.414622 252 
L 214.954354 252 
L 214.954354 224.099291 
L 209.414622 224.099291 
z
" style="fill:#dd8452;opacity:0.4;stroke:#ffffff;stroke-linejoin:miter;"/>
   </g>
   <g id="patch_22">
    <path clip-path="url(#p7431ff072d)" d="M 214.954354 252 
L 220.494086 252 
L 220.494086 186.898345 
L 214.954354 186.898345 
z
" style="fill:#dd8452;opacity:0.4;stroke:#ffffff;stroke-linejoin:miter;"/>
   </g>
   <g id="patch_23">
    <path clip-path="url(#p7431ff072d)" d="M 220.494086 252 
L 226.033818 252 
L 226.033818 179.148148 
L 220.494086 179.148148 
z
" style="fill:#dd8452;opacity:0.4;stroke:#ffffff;stroke-linejoin:miter;"/>
   </g>
   <g id="patch_24">
    <path clip-path="url(#p7431ff072d)" d="M 226.033818 252 
L 231.57355 252 
L 231.57355 168.297873 
L 226.033818 168.297873 
z
" style="fill:#dd8452;opacity:0.4;stroke:#ffffff;stroke-linejoin:miter;"/>
   </g>
   <g id="patch_25">
    <path clip-path="url(#p7431ff072d)" d="M 231.57355 252 
L 237.113281 252 
L 237.113281 186.898345 
L 231.57355 186.898345 
z
" style="fill:#dd8452;opacity:0.4;stroke:#ffffff;stroke-linejoin:miter;"/>
   </g>
   <g id="patch_26">
    <path clip-path="url(#p7431ff072d)" d="M 237.113281 252 
L 242.653013 252 
L 242.653013 196.198582 
L 237.113281 196.198582 
z
" style="fill:#dd8452;opacity:0.4;stroke:#ffffff;stroke-linejoin:miter;"/>
   </g>
   <g id="patch_27">
    <path clip-path="url(#p7431ff072d)" d="M 242.653013 252 
L 248.192745 252 
L 248.192745 208.598897 
L 242.653013 208.598897 
z
" style="fill:#dd8452;opacity:0.4;stroke:#ffffff;stroke-linejoin:miter;"/>
   </g>
   <g id="patch_28">
    <path clip-path="url(#p7431ff072d)" d="M 248.192745 252 
L 253.732477 252 
L 253.732477 238.049645 
L 248.192745 238.049645 
z
" style="fill:#dd8452;opacity:0.4;stroke:#ffffff;stroke-linejoin:miter;"/>
   </g>
   <g id="patch_29">
    <path clip-path="url(#p7431ff072d)" d="M 253.732477 252 
L 259.272209 252 
L 259.272209 248.899921 
L 253.732477 248.899921 
z
" style="fill:#dd8452;opacity:0.4;stroke:#ffffff;stroke-linejoin:miter;"/>
   </g>
   <g id="patch_30">
    <path clip-path="url(#p7431ff072d)" d="M 259.272209 252 
L 264.81194 252 
L 264.81194 250.449961 
L 259.272209 250.449961 
z
" style="fill:#dd8452;opacity:0.4;stroke:#ffffff;stroke-linejoin:miter;"/>
   </g>
   <g id="patch_31">
    <path clip-path="url(#p7431ff072d)" d="M 264.81194 252 
L 270.351672 252 
L 270.351672 247.349882 
L 264.81194 247.349882 
z
" style="fill:#dd8452;opacity:0.4;stroke:#ffffff;stroke-linejoin:miter;"/>
   </g>
   <g id="patch_32">
    <path clip-path="url(#p7431ff072d)" d="M 324.046165 252 
L 326.364455 252 
L 326.364455 248.443314 
L 324.046165 248.443314 
z
" style="fill:#55a868;opacity:0.4;stroke:#ffffff;stroke-linejoin:miter;"/>
   </g>
   <g id="patch_33">
    <path clip-path="url(#p7431ff072d)" d="M 326.364455 252 
L 328.682746 252 
L 328.682746 252 
L 326.364455 252 
z
" style="fill:#55a868;opacity:0.4;stroke:#ffffff;stroke-linejoin:miter;"/>
   </g>
   <g id="patch_34">
    <path clip-path="url(#p7431ff072d)" d="M 328.682746 252 
L 331.001036 252 
L 331.001036 248.443314 
L 328.682746 248.443314 
z
" style="fill:#55a868;opacity:0.4;stroke:#ffffff;stroke-linejoin:miter;"/>
   </g>
   <g id="patch_35">
    <path clip-path="url(#p7431ff072d)" d="M 331.001036 252 
L 333.319326 252 
L 333.319326 234.216569 
L 331.001036 234.216569 
z
" style="fill:#55a868;opacity:0.4;stroke:#ffffff;stroke-linejoin:miter;"/>
   </g>
   <g id="patch_36">
    <path clip-path="url(#p7431ff072d)" d="M 333.319326 252 
L 335.637617 252 
L 335.637617 187.979649 
L 333.319326 187.979649 
z
" style="fill:#55a868;opacity:0.4;stroke:#ffffff;stroke-linejoin:miter;"/>
   </g>
   <g id="patch_37">
    <path clip-path="url(#p7431ff072d)" d="M 335.637617 252 
L 337.955907 252 
L 337.955907 173.752904 
L 335.637617 173.752904 
z
" style="fill:#55a868;opacity:0.4;stroke:#ffffff;stroke-linejoin:miter;"/>
   </g>
   <g id="patch_38">
    <path clip-path="url(#p7431ff072d)" d="M 337.955907 252 
L 340.274197 252 
L 340.274197 173.752904 
L 337.955907 173.752904 
z
" style="fill:#55a868;opacity:0.4;stroke:#ffffff;stroke-linejoin:miter;"/>
   </g>
   <g id="patch_39">
    <path clip-path="url(#p7431ff072d)" d="M 340.274197 252 
L 342.592488 252 
L 342.592488 99.062495 
L 340.274197 99.062495 
z
" style="fill:#55a868;opacity:0.4;stroke:#ffffff;stroke-linejoin:miter;"/>
   </g>
   <g id="patch_40">
    <path clip-path="url(#p7431ff072d)" d="M 342.592488 252 
L 344.910778 252 
L 344.910778 91.949123 
L 342.592488 91.949123 
z
" style="fill:#55a868;opacity:0.4;stroke:#ffffff;stroke-linejoin:miter;"/>
   </g>
   <g id="patch_41">
    <path clip-path="url(#p7431ff072d)" d="M 344.910778 252 
L 347.229068 252 
L 347.229068 70.609006 
L 344.910778 70.609006 
z
" style="fill:#55a868;opacity:0.4;stroke:#ffffff;stroke-linejoin:miter;"/>
   </g>
   <g id="patch_42">
    <path clip-path="url(#p7431ff072d)" d="M 347.229068 252 
L 349.547359 252 
L 349.547359 109.732553 
L 347.229068 109.732553 
z
" style="fill:#55a868;opacity:0.4;stroke:#ffffff;stroke-linejoin:miter;"/>
   </g>
   <g id="patch_43">
    <path clip-path="url(#p7431ff072d)" d="M 349.547359 252 
L 351.865649 252 
L 351.865649 102.619181 
L 349.547359 102.619181 
z
" style="fill:#55a868;opacity:0.4;stroke:#ffffff;stroke-linejoin:miter;"/>
   </g>
   <g id="patch_44">
    <path clip-path="url(#p7431ff072d)" d="M 351.865649 252 
L 354.183939 252 
L 354.183939 170.196218 
L 351.865649 170.196218 
z
" style="fill:#55a868;opacity:0.4;stroke:#ffffff;stroke-linejoin:miter;"/>
   </g>
   <g id="patch_45">
    <path clip-path="url(#p7431ff072d)" d="M 354.183939 252 
L 356.50223 252 
L 356.50223 223.546511 
L 354.183939 223.546511 
z
" style="fill:#55a868;opacity:0.4;stroke:#ffffff;stroke-linejoin:miter;"/>
   </g>
   <g id="patch_46">
    <path clip-path="url(#p7431ff072d)" d="M 356.50223 252 
L 358.82052 252 
L 358.82052 230.659883 
L 356.50223 230.659883 
z
" style="fill:#55a868;opacity:0.4;stroke:#ffffff;stroke-linejoin:miter;"/>
   </g>
   <g id="line2d_13">
    <path clip-path="url(#p7431ff072d)" d="M 137.239222 251.982867 
L 138.152585 251.96434 
L 139.065948 251.92963 
L 139.979311 251.868304 
L 140.892673 251.766191 
L 141.806036 251.60608 
L 142.719399 251.369913 
L 143.632762 251.042648 
L 144.546125 250.617319 
L 145.459488 250.100028 
L 146.37285 249.512986 
L 147.286213 248.893755 
L 148.199576 248.289737 
L 149.112939 247.748619 
L 150.026302 247.307211 
L 150.939665 246.982116 
L 151.853027 246.765342 
L 152.76639 246.626184 
L 153.679753 246.518384 
L 154.593116 246.389588 
L 155.506479 246.189465 
L 156.419842 245.873693 
L 157.333205 245.402967 
L 158.246567 244.738315 
L 159.15993 243.835592 
L 160.073293 242.642422 
L 160.986656 241.100006 
L 161.900019 239.150423 
L 162.813382 236.747838 
L 163.726744 233.870378 
L 164.640107 230.528955 
L 165.55347 226.770354 
L 166.466833 222.674 
L 167.380196 218.343967 
L 168.293559 213.898765 
L 169.206921 209.460883 
L 170.120284 205.146531 
L 171.033647 201.054888 
L 171.94701 197.256677 
L 172.860373 193.784 
L 173.773736 190.625544 
L 174.687098 187.731585 
L 175.600461 185.030467 
L 176.513824 182.453432 
L 177.427187 179.960363 
L 178.34055 177.557684 
L 179.253913 175.302277 
L 180.167275 173.290312 
L 181.080638 171.635048 
L 181.994001 170.440572 
L 182.907364 169.778753 
L 183.820727 169.674923 
L 184.73409 170.105052 
L 185.647452 171.004314 
L 186.560815 172.284036 
L 187.474178 173.851809 
L 188.387541 175.628462 
L 189.300904 177.556854 
L 190.214267 179.600841 
L 191.127629 181.737388 
L 192.040992 183.948143 
L 192.954355 186.216947 
L 193.867718 188.535979 
L 194.781081 190.917443 
L 195.694444 193.402926 
L 196.607807 196.061937 
L 197.521169 198.975278 
L 198.434532 202.206112 
L 199.347895 205.768272 
L 200.261258 209.604198 
L 201.174621 213.582535 
L 202.087984 217.51874 
L 203.001346 221.213907 
L 203.914709 224.500451 
L 204.828072 227.280831 
L 205.741435 229.547743 
L 206.654798 231.38033 
L 207.568161 232.918539 
L 208.481523 234.324218 
L 209.394886 235.740796 
L 210.308249 237.262565 
L 211.221612 238.920541 
L 212.134975 240.686152 
L 213.048338 242.488793 
L 213.9617 244.240065 
L 214.875063 245.857019 
L 215.788426 247.278626 
L 216.701789 248.472976 
L 217.615152 249.435978 
L 218.528515 250.184529 
L 219.441877 250.747765 
L 220.35524 251.159235 
L 221.268603 251.451489 
L 222.181966 251.653198 
L 223.095329 251.788167 
L 224.008692 251.875418 
L 224.922054 251.929685 
L 225.835417 251.962027 
L 226.74878 251.980429 
L 227.662143 251.990395 
" style="fill:none;stroke:#4c72b0;stroke-linecap:round;stroke-width:1.5;"/>
   </g>
   <g id="line2d_14">
    <path clip-path="url(#p7431ff072d)" d="M 173.723313 251.985981 
L 174.836048 251.970016 
L 175.948783 251.939332 
L 177.061517 251.883814 
L 178.174252 251.789263 
L 179.286987 251.63772 
L 180.399722 251.409139 
L 181.512456 251.084618 
L 182.625191 250.650714 
L 183.737926 250.103656 
L 184.850661 249.451717 
L 185.963395 248.714254 
L 187.07613 247.91707 
L 188.188865 247.085468 
L 189.3016 246.237866 
L 190.414335 245.383028 
L 191.527069 244.522479 
L 192.639804 243.656962 
L 193.752539 242.793301 
L 194.865274 241.947366 
L 195.978008 241.140563 
L 197.090743 240.39071 
L 198.203478 239.701323 
L 199.316213 239.054354 
L 200.428947 238.409552 
L 201.541682 237.709972 
L 202.654417 236.890006 
L 203.767152 235.881567 
L 204.879886 234.616292 
L 205.992621 233.025293 
L 207.105356 231.040719 
L 208.218091 228.603311 
L 209.330825 225.677022 
L 210.44356 222.267093 
L 211.556295 218.434205 
L 212.66903 214.296503 
L 213.781764 210.014511 
L 214.894499 205.760437 
L 216.007234 201.680694 
L 217.119969 197.865042 
L 218.232703 194.334734 
L 219.345438 191.055004 
L 220.458173 187.967183 
L 221.570908 185.027834 
L 222.683642 182.240434 
L 223.796377 179.669626 
L 224.909112 177.435582 
L 226.021847 175.692194 
L 227.134581 174.595502 
L 228.247316 174.268985 
L 229.360051 174.772163 
L 230.472786 176.079312 
L 231.58552 178.074841 
L 232.698255 180.569158 
L 233.81099 183.333518 
L 234.923725 186.146276 
L 236.03646 188.838939 
L 237.149194 191.330203 
L 238.261929 193.639462 
L 239.374664 195.876533 
L 240.487399 198.209927 
L 241.600133 200.820794 
L 242.712868 203.853365 
L 243.825603 207.374313 
L 244.938338 211.352175 
L 246.051072 215.662889 
L 247.163807 220.119633 
L 248.276542 224.517044 
L 249.389277 228.675112 
L 250.502011 232.469069 
L 251.614746 235.838024 
L 252.727481 238.773924 
L 253.840216 241.299401 
L 254.95295 243.445326 
L 256.065685 245.236303 
L 257.17842 246.687033 
L 258.291155 247.807474 
L 259.403889 248.61199 
L 260.516624 249.127531 
L 261.629359 249.397589 
L 262.742094 249.480848 
L 263.854828 249.44536 
L 264.967563 249.360193 
L 266.080298 249.286797 
L 267.193033 249.272 
L 268.305767 249.343797 
L 269.418502 249.510331 
L 270.531237 249.761871 
L 271.643972 250.075215 
L 272.756706 250.419658 
L 273.869441 250.763434 
L 274.982176 251.079398 
L 276.094911 251.348881 
L 277.207645 251.563091 
L 278.32038 251.722198 
L 279.433115 251.832802 
L 280.54585 251.904832 
L 281.658585 251.948811 
L 282.771319 251.973997 
L 283.884054 251.987532 
" style="fill:none;stroke:#dd8452;stroke-linecap:round;stroke-width:1.5;"/>
   </g>
   <g id="line2d_15">
    <path clip-path="url(#p7431ff072d)" d="M 318.409178 251.980313 
L 318.874312 251.959963 
L 319.339447 251.923405 
L 319.804582 251.862147 
L 320.269716 251.766596 
L 320.734851 251.628218 
L 321.199985 251.44285 
L 321.66512 251.214413 
L 322.130255 250.95762 
L 322.595389 250.698013 
L 323.060524 250.468148 
L 323.525659 250.300115 
L 323.990793 250.216226 
L 324.455928 250.220867 
L 324.921063 250.296481 
L 325.386197 250.405254 
L 325.851332 250.495869 
L 326.316467 250.512828 
L 326.781601 250.404932 
L 327.246736 250.130071 
L 327.711871 249.655031 
L 328.177005 248.950868 
L 328.64214 247.985954 
L 329.107274 246.719368 
L 329.572409 245.097016 
L 330.037544 243.051931 
L 330.502678 240.509379 
L 330.967813 237.396952 
L 331.432948 233.659577 
L 331.898082 229.278393 
L 332.363217 224.290079 
L 332.828352 218.800303 
L 333.293486 212.983588 
L 333.758621 207.064321 
L 334.223756 201.280118 
L 334.68889 195.836333 
L 335.154025 190.864863 
L 335.619159 186.398611 
L 336.084294 182.366328 
L 336.549429 178.605512 
L 337.014563 174.888008 
L 337.479698 170.954521 
L 337.944833 166.556976 
L 338.409967 161.506669 
L 338.875102 155.720425 
L 339.340237 149.250186 
L 339.805371 142.280431 
L 340.270506 135.086605 
L 340.735641 127.964116 
L 341.200775 121.153112 
L 341.66591 114.789682 
L 342.131044 108.904646 
L 342.596179 103.47004 
L 343.061314 98.470915 
L 343.526448 93.967588 
L 343.991583 90.117666 
L 344.456718 87.146154 
L 344.921852 85.276126 
L 345.386987 84.649934 
L 345.852122 85.273719 
L 346.317256 87.00648 
L 346.782391 89.596185 
L 347.247526 92.748754 
L 347.71266 96.206889 
L 348.177795 99.815412 
L 348.64293 103.555314 
L 349.108064 107.537426 
L 349.573199 111.957199 
L 350.038333 117.023446 
L 350.503468 122.883416 
L 350.968603 129.569797 
L 351.433737 136.988717 
L 351.898872 144.951967 
L 352.364007 153.237801 
L 352.829141 161.652154 
L 353.294276 170.063268 
L 353.759411 178.397561 
L 354.224545 186.605169 
L 354.68968 194.618432 
L 355.154815 202.327828 
L 355.619949 209.587935 
L 356.085084 216.248831 
L 356.550218 222.195835 
L 357.015353 227.378406 
L 357.480488 231.816601 
L 357.945622 235.585107 
L 358.410757 238.784222 
L 358.875892 241.510568 
L 359.341026 243.83778 
L 359.806161 245.811287 
L 360.271296 247.455104 
L 360.73643 248.784599 
L 361.201565 249.818569 
L 361.6667 250.586121 
L 362.131834 251.127143 
L 362.596969 251.487959 
L 363.062103 251.715102 
L 363.527238 251.84987 
L 363.992373 251.925159 
L 364.457507 251.964738 
" style="fill:none;stroke:#55a868;stroke-linecap:round;stroke-width:1.5;"/>
   </g>
   <g id="patch_47">
    <path d="M 54 252 
L 54 34.56 
" style="fill:none;stroke:#ffffff;stroke-linecap:square;stroke-linejoin:miter;stroke-width:1.25;"/>
   </g>
   <g id="patch_48">
    <path d="M 388.8 252 
L 388.8 34.56 
" style="fill:none;stroke:#ffffff;stroke-linecap:square;stroke-linejoin:miter;stroke-width:1.25;"/>
   </g>
   <g id="patch_49">
    <path d="M 54 252 
L 388.8 252 
" style="fill:none;stroke:#ffffff;stroke-linecap:square;stroke-linejoin:miter;stroke-width:1.25;"/>
   </g>
   <g id="patch_50">
    <path d="M 54 34.56 
L 388.8 34.56 
" style="fill:none;stroke:#ffffff;stroke-linecap:square;stroke-linejoin:miter;stroke-width:1.25;"/>
   </g>
  </g>
 </g>
 <defs>
  <clipPath id="p7431ff072d">
   <rect height="217.44" width="334.8" x="54" y="34.56"/>
  </clipPath>
 </defs>
</svg>
