<?xml version="1.0" encoding="utf-8" standalone="no"?>
<!DOCTYPE svg PUBLIC "-//W3C//DTD SVG 1.1//EN"
  "http://www.w3.org/Graphics/SVG/1.1/DTD/svg11.dtd">
<!-- Created with matplotlib (http://matplotlib.org/) -->
<svg height="404pt" version="1.1" viewBox="0 0 1269 404" width="1269pt" xmlns="http://www.w3.org/2000/svg" xmlns:xlink="http://www.w3.org/1999/xlink">
 <defs>
  <style type="text/css">
*{stroke-linecap:butt;stroke-linejoin:round;}
  </style>
 </defs>
 <g id="figure_1">
  <g id="patch_1">
   <path d="M 0 404.510384 
L 1269.30649 404.510384 
L 1269.30649 0 
L 0 0 
z
" style="fill:#ffffff;"/>
  </g>
  <g id="axes_1">
   <g id="patch_2">
    <path d="M 141.334615 280.414134 
L 1257.334615 280.414134 
L 1257.334615 8.614134 
L 141.334615 8.614134 
z
" style="fill:#eaeaf2;"/>
   </g>
   <g id="matplotlib.axis_1">
    <g id="xtick_1">
     <g id="line2d_1">
      <path clip-path="url(#p903f742206)" d="M 141.334615 280.414134 
L 141.334615 8.614134 
" style="fill:none;stroke:#ffffff;stroke-linecap:round;"/>
     </g>
     <g id="line2d_2"/>
     <g id="text_1">
      <!-- 0 -->
      <defs>
       <path d="M 31.78125 66.40625 
Q 24.171875 66.40625 20.328125 58.90625 
Q 16.5 51.421875 16.5 36.375 
Q 16.5 21.390625 20.328125 13.890625 
Q 24.171875 6.390625 31.78125 6.390625 
Q 39.453125 6.390625 43.28125 13.890625 
Q 47.125 21.390625 47.125 36.375 
Q 47.125 51.421875 43.28125 58.90625 
Q 39.453125 66.40625 31.78125 66.40625 
z
M 31.78125 74.21875 
Q 44.046875 74.21875 50.515625 64.515625 
Q 56.984375 54.828125 56.984375 36.375 
Q 56.984375 17.96875 50.515625 8.265625 
Q 44.046875 -1.421875 31.78125 -1.421875 
Q 19.53125 -1.421875 13.0625 8.265625 
Q 6.59375 17.96875 6.59375 36.375 
Q 6.59375 54.828125 13.0625 64.515625 
Q 19.53125 74.21875 31.78125 74.21875 
z
" id="DejaVuSans-30"/>
      </defs>
      <g style="fill:#262626;" transform="translate(136.56274 298.81179)scale(0.15 -0.15)">
       <use xlink:href="#DejaVuSans-30"/>
      </g>
     </g>
    </g>
    <g id="xtick_2">
     <g id="line2d_3">
      <path clip-path="url(#p903f742206)" d="M 420.334615 280.414134 
L 420.334615 8.614134 
" style="fill:none;stroke:#ffffff;stroke-linecap:round;"/>
     </g>
     <g id="line2d_4"/>
     <g id="text_2">
      <!-- 1 -->
      <defs>
       <path d="M 12.40625 8.296875 
L 28.515625 8.296875 
L 28.515625 63.921875 
L 10.984375 60.40625 
L 10.984375 69.390625 
L 28.421875 72.90625 
L 38.28125 72.90625 
L 38.28125 8.296875 
L 54.390625 8.296875 
L 54.390625 0 
L 12.40625 0 
z
" id="DejaVuSans-31"/>
      </defs>
      <g style="fill:#262626;" transform="translate(415.56274 298.81179)scale(0.15 -0.15)">
       <use xlink:href="#DejaVuSans-31"/>
      </g>
     </g>
    </g>
    <g id="xtick_3">
     <g id="line2d_5">
      <path clip-path="url(#p903f742206)" d="M 699.334615 280.414134 
L 699.334615 8.614134 
" style="fill:none;stroke:#ffffff;stroke-linecap:round;"/>
     </g>
     <g id="line2d_6"/>
     <g id="text_3">
      <!-- 2 -->
      <defs>
       <path d="M 19.1875 8.296875 
L 53.609375 8.296875 
L 53.609375 0 
L 7.328125 0 
L 7.328125 8.296875 
Q 12.9375 14.109375 22.625 23.890625 
Q 32.328125 33.6875 34.8125 36.53125 
Q 39.546875 41.84375 41.421875 45.53125 
Q 43.3125 49.21875 43.3125 52.78125 
Q 43.3125 58.59375 39.234375 62.25 
Q 35.15625 65.921875 28.609375 65.921875 
Q 23.96875 65.921875 18.8125 64.3125 
Q 13.671875 62.703125 7.8125 59.421875 
L 7.8125 69.390625 
Q 13.765625 71.78125 18.9375 73 
Q 24.125 74.21875 28.421875 74.21875 
Q 39.75 74.21875 46.484375 68.546875 
Q 53.21875 62.890625 53.21875 53.421875 
Q 53.21875 48.921875 51.53125 44.890625 
Q 49.859375 40.875 45.40625 35.40625 
Q 44.1875 33.984375 37.640625 27.21875 
Q 31.109375 20.453125 19.1875 8.296875 
z
" id="DejaVuSans-32"/>
      </defs>
      <g style="fill:#262626;" transform="translate(694.56274 298.81179)scale(0.15 -0.15)">
       <use xlink:href="#DejaVuSans-32"/>
      </g>
     </g>
    </g>
    <g id="xtick_4">
     <g id="line2d_7">
      <path clip-path="url(#p903f742206)" d="M 978.334615 280.414134 
L 978.334615 8.614134 
" style="fill:none;stroke:#ffffff;stroke-linecap:round;"/>
     </g>
     <g id="line2d_8"/>
     <g id="text_4">
      <!-- 3 -->
      <defs>
       <path d="M 40.578125 39.3125 
Q 47.65625 37.796875 51.625 33 
Q 55.609375 28.21875 55.609375 21.1875 
Q 55.609375 10.40625 48.1875 4.484375 
Q 40.765625 -1.421875 27.09375 -1.421875 
Q 22.515625 -1.421875 17.65625 -0.515625 
Q 12.796875 0.390625 7.625 2.203125 
L 7.625 11.71875 
Q 11.71875 9.328125 16.59375 8.109375 
Q 21.484375 6.890625 26.8125 6.890625 
Q 36.078125 6.890625 40.9375 10.546875 
Q 45.796875 14.203125 45.796875 21.1875 
Q 45.796875 27.640625 41.28125 31.265625 
Q 36.765625 34.90625 28.71875 34.90625 
L 20.21875 34.90625 
L 20.21875 43.015625 
L 29.109375 43.015625 
Q 36.375 43.015625 40.234375 45.921875 
Q 44.09375 48.828125 44.09375 54.296875 
Q 44.09375 59.90625 40.109375 62.90625 
Q 36.140625 65.921875 28.71875 65.921875 
Q 24.65625 65.921875 20.015625 65.03125 
Q 15.375 64.15625 9.8125 62.3125 
L 9.8125 71.09375 
Q 15.4375 72.65625 20.34375 73.4375 
Q 25.25 74.21875 29.59375 74.21875 
Q 40.828125 74.21875 47.359375 69.109375 
Q 53.90625 64.015625 53.90625 55.328125 
Q 53.90625 49.265625 50.4375 45.09375 
Q 46.96875 40.921875 40.578125 39.3125 
z
" id="DejaVuSans-33"/>
      </defs>
      <g style="fill:#262626;" transform="translate(973.56274 298.81179)scale(0.15 -0.15)">
       <use xlink:href="#DejaVuSans-33"/>
      </g>
     </g>
    </g>
    <g id="xtick_5">
     <g id="line2d_9">
      <path clip-path="url(#p903f742206)" d="M 1257.334615 280.414134 
L 1257.334615 8.614134 
" style="fill:none;stroke:#ffffff;stroke-linecap:round;"/>
     </g>
     <g id="line2d_10"/>
     <g id="text_5">
      <!-- 4 -->
      <defs>
       <path d="M 37.796875 64.3125 
L 12.890625 25.390625 
L 37.796875 25.390625 
z
M 35.203125 72.90625 
L 47.609375 72.90625 
L 47.609375 25.390625 
L 58.015625 25.390625 
L 58.015625 17.1875 
L 47.609375 17.1875 
L 47.609375 0 
L 37.796875 0 
L 37.796875 17.1875 
L 4.890625 17.1875 
L 4.890625 26.703125 
z
" id="DejaVuSans-34"/>
      </defs>
      <g style="fill:#262626;" transform="translate(1252.56274 298.81179)scale(0.15 -0.15)">
       <use xlink:href="#DejaVuSans-34"/>
      </g>
     </g>
    </g>
    <g id="text_6">
     <!-- Time (years) -->
     <defs>
      <path d="M -0.296875 72.90625 
L 61.375 72.90625 
L 61.375 64.59375 
L 35.5 64.59375 
L 35.5 0 
L 25.59375 0 
L 25.59375 64.59375 
L -0.296875 64.59375 
z
" id="DejaVuSans-54"/>
      <path d="M 9.421875 54.6875 
L 18.40625 54.6875 
L 18.40625 0 
L 9.421875 0 
z
M 9.421875 75.984375 
L 18.40625 75.984375 
L 18.40625 64.59375 
L 9.421875 64.59375 
z
" id="DejaVuSans-69"/>
      <path d="M 52 44.1875 
Q 55.375 50.25 60.0625 53.125 
Q 64.75 56 71.09375 56 
Q 79.640625 56 84.28125 50.015625 
Q 88.921875 44.046875 88.921875 33.015625 
L 88.921875 0 
L 79.890625 0 
L 79.890625 32.71875 
Q 79.890625 40.578125 77.09375 44.375 
Q 74.3125 48.1875 68.609375 48.1875 
Q 61.625 48.1875 57.5625 43.546875 
Q 53.515625 38.921875 53.515625 30.90625 
L 53.515625 0 
L 44.484375 0 
L 44.484375 32.71875 
Q 44.484375 40.625 41.703125 44.40625 
Q 38.921875 48.1875 33.109375 48.1875 
Q 26.21875 48.1875 22.15625 43.53125 
Q 18.109375 38.875 18.109375 30.90625 
L 18.109375 0 
L 9.078125 0 
L 9.078125 54.6875 
L 18.109375 54.6875 
L 18.109375 46.1875 
Q 21.1875 51.21875 25.484375 53.609375 
Q 29.78125 56 35.6875 56 
Q 41.65625 56 45.828125 52.96875 
Q 50 49.953125 52 44.1875 
z
" id="DejaVuSans-6d"/>
      <path d="M 56.203125 29.59375 
L 56.203125 25.203125 
L 14.890625 25.203125 
Q 15.484375 15.921875 20.484375 11.0625 
Q 25.484375 6.203125 34.421875 6.203125 
Q 39.59375 6.203125 44.453125 7.46875 
Q 49.3125 8.734375 54.109375 11.28125 
L 54.109375 2.78125 
Q 49.265625 0.734375 44.1875 -0.34375 
Q 39.109375 -1.421875 33.890625 -1.421875 
Q 20.796875 -1.421875 13.15625 6.1875 
Q 5.515625 13.8125 5.515625 26.8125 
Q 5.515625 40.234375 12.765625 48.109375 
Q 20.015625 56 32.328125 56 
Q 43.359375 56 49.78125 48.890625 
Q 56.203125 41.796875 56.203125 29.59375 
z
M 47.21875 32.234375 
Q 47.125 39.59375 43.09375 43.984375 
Q 39.0625 48.390625 32.421875 48.390625 
Q 24.90625 48.390625 20.390625 44.140625 
Q 15.875 39.890625 15.1875 32.171875 
z
" id="DejaVuSans-65"/>
      <path id="DejaVuSans-20"/>
      <path d="M 31 75.875 
Q 24.46875 64.65625 21.28125 53.65625 
Q 18.109375 42.671875 18.109375 31.390625 
Q 18.109375 20.125 21.3125 9.0625 
Q 24.515625 -2 31 -13.1875 
L 23.1875 -13.1875 
Q 15.875 -1.703125 12.234375 9.375 
Q 8.59375 20.453125 8.59375 31.390625 
Q 8.59375 42.28125 12.203125 53.3125 
Q 15.828125 64.359375 23.1875 75.875 
z
" id="DejaVuSans-28"/>
      <path d="M 32.171875 -5.078125 
Q 28.375 -14.84375 24.75 -17.8125 
Q 21.140625 -20.796875 15.09375 -20.796875 
L 7.90625 -20.796875 
L 7.90625 -13.28125 
L 13.1875 -13.28125 
Q 16.890625 -13.28125 18.9375 -11.515625 
Q 21 -9.765625 23.484375 -3.21875 
L 25.09375 0.875 
L 2.984375 54.6875 
L 12.5 54.6875 
L 29.59375 11.921875 
L 46.6875 54.6875 
L 56.203125 54.6875 
z
" id="DejaVuSans-79"/>
      <path d="M 34.28125 27.484375 
Q 23.390625 27.484375 19.1875 25 
Q 14.984375 22.515625 14.984375 16.5 
Q 14.984375 11.71875 18.140625 8.90625 
Q 21.296875 6.109375 26.703125 6.109375 
Q 34.1875 6.109375 38.703125 11.40625 
Q 43.21875 16.703125 43.21875 25.484375 
L 43.21875 27.484375 
z
M 52.203125 31.203125 
L 52.203125 0 
L 43.21875 0 
L 43.21875 8.296875 
Q 40.140625 3.328125 35.546875 0.953125 
Q 30.953125 -1.421875 24.3125 -1.421875 
Q 15.921875 -1.421875 10.953125 3.296875 
Q 6 8.015625 6 15.921875 
Q 6 25.140625 12.171875 29.828125 
Q 18.359375 34.515625 30.609375 34.515625 
L 43.21875 34.515625 
L 43.21875 35.40625 
Q 43.21875 41.609375 39.140625 45 
Q 35.0625 48.390625 27.6875 48.390625 
Q 23 48.390625 18.546875 47.265625 
Q 14.109375 46.140625 10.015625 43.890625 
L 10.015625 52.203125 
Q 14.9375 54.109375 19.578125 55.046875 
Q 24.21875 56 28.609375 56 
Q 40.484375 56 46.34375 49.84375 
Q 52.203125 43.703125 52.203125 31.203125 
z
" id="DejaVuSans-61"/>
      <path d="M 41.109375 46.296875 
Q 39.59375 47.171875 37.8125 47.578125 
Q 36.03125 48 33.890625 48 
Q 26.265625 48 22.1875 43.046875 
Q 18.109375 38.09375 18.109375 28.8125 
L 18.109375 0 
L 9.078125 0 
L 9.078125 54.6875 
L 18.109375 54.6875 
L 18.109375 46.1875 
Q 20.953125 51.171875 25.484375 53.578125 
Q 30.03125 56 36.53125 56 
Q 37.453125 56 38.578125 55.875 
Q 39.703125 55.765625 41.0625 55.515625 
z
" id="DejaVuSans-72"/>
      <path d="M 44.28125 53.078125 
L 44.28125 44.578125 
Q 40.484375 46.53125 36.375 47.5 
Q 32.28125 48.484375 27.875 48.484375 
Q 21.1875 48.484375 17.84375 46.4375 
Q 14.5 44.390625 14.5 40.28125 
Q 14.5 37.15625 16.890625 35.375 
Q 19.28125 33.59375 26.515625 31.984375 
L 29.59375 31.296875 
Q 39.15625 29.25 43.1875 25.515625 
Q 47.21875 21.78125 47.21875 15.09375 
Q 47.21875 7.46875 41.1875 3.015625 
Q 35.15625 -1.421875 24.609375 -1.421875 
Q 20.21875 -1.421875 15.453125 -0.5625 
Q 10.6875 0.296875 5.421875 2 
L 5.421875 11.28125 
Q 10.40625 8.6875 15.234375 7.390625 
Q 20.0625 6.109375 24.8125 6.109375 
Q 31.15625 6.109375 34.5625 8.28125 
Q 37.984375 10.453125 37.984375 14.40625 
Q 37.984375 18.0625 35.515625 20.015625 
Q 33.0625 21.96875 24.703125 23.78125 
L 21.578125 24.515625 
Q 13.234375 26.265625 9.515625 29.90625 
Q 5.8125 33.546875 5.8125 39.890625 
Q 5.8125 47.609375 11.28125 51.796875 
Q 16.75 56 26.8125 56 
Q 31.78125 56 36.171875 55.265625 
Q 40.578125 54.546875 44.28125 53.078125 
z
" id="DejaVuSans-73"/>
      <path d="M 8.015625 75.875 
L 15.828125 75.875 
Q 23.140625 64.359375 26.78125 53.3125 
Q 30.421875 42.28125 30.421875 31.390625 
Q 30.421875 20.453125 26.78125 9.375 
Q 23.140625 -1.703125 15.828125 -13.1875 
L 8.015625 -13.1875 
Q 14.5 -2 17.703125 9.0625 
Q 20.90625 20.125 20.90625 31.390625 
Q 20.90625 42.671875 17.703125 53.65625 
Q 14.5 64.65625 8.015625 75.875 
z
" id="DejaVuSans-29"/>
     </defs>
     <g style="fill:#262626;" transform="translate(636.058053 321.128196)scale(0.2 -0.2)">
      <use xlink:href="#DejaVuSans-54"/>
      <use x="61.037109" xlink:href="#DejaVuSans-69"/>
      <use x="88.820312" xlink:href="#DejaVuSans-6d"/>
      <use x="186.232422" xlink:href="#DejaVuSans-65"/>
      <use x="247.755859" xlink:href="#DejaVuSans-20"/>
      <use x="279.542969" xlink:href="#DejaVuSans-28"/>
      <use x="318.556641" xlink:href="#DejaVuSans-79"/>
      <use x="377.736328" xlink:href="#DejaVuSans-65"/>
      <use x="439.259766" xlink:href="#DejaVuSans-61"/>
      <use x="500.539062" xlink:href="#DejaVuSans-72"/>
      <use x="541.652344" xlink:href="#DejaVuSans-73"/>
      <use x="593.751953" xlink:href="#DejaVuSans-29"/>
     </g>
    </g>
   </g>
   <g id="matplotlib.axis_2">
    <g id="ytick_1">
     <g id="line2d_11">
      <path clip-path="url(#p903f742206)" d="M 141.334615 257.735757 
L 1257.334615 257.735757 
" style="fill:none;stroke:#ffffff;stroke-linecap:round;"/>
     </g>
     <g id="line2d_12"/>
     <g id="text_7">
      <!-- 0.0 -->
      <defs>
       <path d="M 10.6875 12.40625 
L 21 12.40625 
L 21 0 
L 10.6875 0 
z
" id="DejaVuSans-2e"/>
      </defs>
      <g style="fill:#262626;" transform="translate(110.479928 263.434585)scale(0.15 -0.15)">
       <use xlink:href="#DejaVuSans-30"/>
       <use x="63.623047" xlink:href="#DejaVuSans-2e"/>
       <use x="95.410156" xlink:href="#DejaVuSans-30"/>
      </g>
     </g>
    </g>
    <g id="ytick_2">
     <g id="line2d_13">
      <path clip-path="url(#p903f742206)" d="M 141.334615 211.590878 
L 1257.334615 211.590878 
" style="fill:none;stroke:#ffffff;stroke-linecap:round;"/>
     </g>
     <g id="line2d_14"/>
     <g id="text_8">
      <!-- 0.2 -->
      <g style="fill:#262626;" transform="translate(110.479928 217.289706)scale(0.15 -0.15)">
       <use xlink:href="#DejaVuSans-30"/>
       <use x="63.623047" xlink:href="#DejaVuSans-2e"/>
       <use x="95.410156" xlink:href="#DejaVuSans-32"/>
      </g>
     </g>
    </g>
    <g id="ytick_3">
     <g id="line2d_15">
      <path clip-path="url(#p903f742206)" d="M 141.334615 165.445999 
L 1257.334615 165.445999 
" style="fill:none;stroke:#ffffff;stroke-linecap:round;"/>
     </g>
     <g id="line2d_16"/>
     <g id="text_9">
      <!-- 0.4 -->
      <g style="fill:#262626;" transform="translate(110.479928 171.144827)scale(0.15 -0.15)">
       <use xlink:href="#DejaVuSans-30"/>
       <use x="63.623047" xlink:href="#DejaVuSans-2e"/>
       <use x="95.410156" xlink:href="#DejaVuSans-34"/>
      </g>
     </g>
    </g>
    <g id="ytick_4">
     <g id="line2d_17">
      <path clip-path="url(#p903f742206)" d="M 141.334615 119.30112 
L 1257.334615 119.30112 
" style="fill:none;stroke:#ffffff;stroke-linecap:round;"/>
     </g>
     <g id="line2d_18"/>
     <g id="text_10">
      <!-- 0.6 -->
      <defs>
       <path d="M 33.015625 40.375 
Q 26.375 40.375 22.484375 35.828125 
Q 18.609375 31.296875 18.609375 23.390625 
Q 18.609375 15.53125 22.484375 10.953125 
Q 26.375 6.390625 33.015625 6.390625 
Q 39.65625 6.390625 43.53125 10.953125 
Q 47.40625 15.53125 47.40625 23.390625 
Q 47.40625 31.296875 43.53125 35.828125 
Q 39.65625 40.375 33.015625 40.375 
z
M 52.59375 71.296875 
L 52.59375 62.3125 
Q 48.875 64.0625 45.09375 64.984375 
Q 41.3125 65.921875 37.59375 65.921875 
Q 27.828125 65.921875 22.671875 59.328125 
Q 17.53125 52.734375 16.796875 39.40625 
Q 19.671875 43.65625 24.015625 45.921875 
Q 28.375 48.1875 33.59375 48.1875 
Q 44.578125 48.1875 50.953125 41.515625 
Q 57.328125 34.859375 57.328125 23.390625 
Q 57.328125 12.15625 50.6875 5.359375 
Q 44.046875 -1.421875 33.015625 -1.421875 
Q 20.359375 -1.421875 13.671875 8.265625 
Q 6.984375 17.96875 6.984375 36.375 
Q 6.984375 53.65625 15.1875 63.9375 
Q 23.390625 74.21875 37.203125 74.21875 
Q 40.921875 74.21875 44.703125 73.484375 
Q 48.484375 72.75 52.59375 71.296875 
z
" id="DejaVuSans-36"/>
      </defs>
      <g style="fill:#262626;" transform="translate(110.479928 124.999949)scale(0.15 -0.15)">
       <use xlink:href="#DejaVuSans-30"/>
       <use x="63.623047" xlink:href="#DejaVuSans-2e"/>
       <use x="95.410156" xlink:href="#DejaVuSans-36"/>
      </g>
     </g>
    </g>
    <g id="ytick_5">
     <g id="line2d_19">
      <path clip-path="url(#p903f742206)" d="M 141.334615 73.156242 
L 1257.334615 73.156242 
" style="fill:none;stroke:#ffffff;stroke-linecap:round;"/>
     </g>
     <g id="line2d_20"/>
     <g id="text_11">
      <!-- 0.8 -->
      <defs>
       <path d="M 31.78125 34.625 
Q 24.75 34.625 20.71875 30.859375 
Q 16.703125 27.09375 16.703125 20.515625 
Q 16.703125 13.921875 20.71875 10.15625 
Q 24.75 6.390625 31.78125 6.390625 
Q 38.8125 6.390625 42.859375 10.171875 
Q 46.921875 13.96875 46.921875 20.515625 
Q 46.921875 27.09375 42.890625 30.859375 
Q 38.875 34.625 31.78125 34.625 
z
M 21.921875 38.8125 
Q 15.578125 40.375 12.03125 44.71875 
Q 8.5 49.078125 8.5 55.328125 
Q 8.5 64.0625 14.71875 69.140625 
Q 20.953125 74.21875 31.78125 74.21875 
Q 42.671875 74.21875 48.875 69.140625 
Q 55.078125 64.0625 55.078125 55.328125 
Q 55.078125 49.078125 51.53125 44.71875 
Q 48 40.375 41.703125 38.8125 
Q 48.828125 37.15625 52.796875 32.3125 
Q 56.78125 27.484375 56.78125 20.515625 
Q 56.78125 9.90625 50.3125 4.234375 
Q 43.84375 -1.421875 31.78125 -1.421875 
Q 19.734375 -1.421875 13.25 4.234375 
Q 6.78125 9.90625 6.78125 20.515625 
Q 6.78125 27.484375 10.78125 32.3125 
Q 14.796875 37.15625 21.921875 38.8125 
z
M 18.3125 54.390625 
Q 18.3125 48.734375 21.84375 45.5625 
Q 25.390625 42.390625 31.78125 42.390625 
Q 38.140625 42.390625 41.71875 45.5625 
Q 45.3125 48.734375 45.3125 54.390625 
Q 45.3125 60.0625 41.71875 63.234375 
Q 38.140625 66.40625 31.78125 66.40625 
Q 25.390625 66.40625 21.84375 63.234375 
Q 18.3125 60.0625 18.3125 54.390625 
z
" id="DejaVuSans-38"/>
      </defs>
      <g style="fill:#262626;" transform="translate(110.479928 78.85507)scale(0.15 -0.15)">
       <use xlink:href="#DejaVuSans-30"/>
       <use x="63.623047" xlink:href="#DejaVuSans-2e"/>
       <use x="95.410156" xlink:href="#DejaVuSans-38"/>
      </g>
     </g>
    </g>
    <g id="ytick_6">
     <g id="line2d_21">
      <path clip-path="url(#p903f742206)" d="M 141.334615 27.011363 
L 1257.334615 27.011363 
" style="fill:none;stroke:#ffffff;stroke-linecap:round;"/>
     </g>
     <g id="line2d_22"/>
     <g id="text_12">
      <!-- 1.0 -->
      <g style="fill:#262626;" transform="translate(110.479928 32.710191)scale(0.15 -0.15)">
       <use xlink:href="#DejaVuSans-31"/>
       <use x="63.623047" xlink:href="#DejaVuSans-2e"/>
       <use x="95.410156" xlink:href="#DejaVuSans-30"/>
      </g>
     </g>
    </g>
    <g id="text_13">
     <!-- PoS -->
     <defs>
      <path d="M 19.671875 64.796875 
L 19.671875 37.40625 
L 32.078125 37.40625 
Q 38.96875 37.40625 42.71875 40.96875 
Q 46.484375 44.53125 46.484375 51.125 
Q 46.484375 57.671875 42.71875 61.234375 
Q 38.96875 64.796875 32.078125 64.796875 
z
M 9.8125 72.90625 
L 32.078125 72.90625 
Q 44.34375 72.90625 50.609375 67.359375 
Q 56.890625 61.8125 56.890625 51.125 
Q 56.890625 40.328125 50.609375 34.8125 
Q 44.34375 29.296875 32.078125 29.296875 
L 19.671875 29.296875 
L 19.671875 0 
L 9.8125 0 
z
" id="DejaVuSans-50"/>
      <path d="M 30.609375 48.390625 
Q 23.390625 48.390625 19.1875 42.75 
Q 14.984375 37.109375 14.984375 27.296875 
Q 14.984375 17.484375 19.15625 11.84375 
Q 23.34375 6.203125 30.609375 6.203125 
Q 37.796875 6.203125 41.984375 11.859375 
Q 46.1875 17.53125 46.1875 27.296875 
Q 46.1875 37.015625 41.984375 42.703125 
Q 37.796875 48.390625 30.609375 48.390625 
z
M 30.609375 56 
Q 42.328125 56 49.015625 48.375 
Q 55.71875 40.765625 55.71875 27.296875 
Q 55.71875 13.875 49.015625 6.21875 
Q 42.328125 -1.421875 30.609375 -1.421875 
Q 18.84375 -1.421875 12.171875 6.21875 
Q 5.515625 13.875 5.515625 27.296875 
Q 5.515625 40.765625 12.171875 48.375 
Q 18.84375 56 30.609375 56 
z
" id="DejaVuSans-6f"/>
      <path d="M 53.515625 70.515625 
L 53.515625 60.890625 
Q 47.90625 63.578125 42.921875 64.890625 
Q 37.9375 66.21875 33.296875 66.21875 
Q 25.25 66.21875 20.875 63.09375 
Q 16.5 59.96875 16.5 54.203125 
Q 16.5 49.359375 19.40625 46.890625 
Q 22.3125 44.4375 30.421875 42.921875 
L 36.375 41.703125 
Q 47.40625 39.59375 52.65625 34.296875 
Q 57.90625 29 57.90625 20.125 
Q 57.90625 9.515625 50.796875 4.046875 
Q 43.703125 -1.421875 29.984375 -1.421875 
Q 24.8125 -1.421875 18.96875 -0.25 
Q 13.140625 0.921875 6.890625 3.21875 
L 6.890625 13.375 
Q 12.890625 10.015625 18.65625 8.296875 
Q 24.421875 6.59375 29.984375 6.59375 
Q 38.421875 6.59375 43.015625 9.90625 
Q 47.609375 13.234375 47.609375 19.390625 
Q 47.609375 24.75 44.3125 27.78125 
Q 41.015625 30.8125 33.5 32.328125 
L 27.484375 33.5 
Q 16.453125 35.6875 11.515625 40.375 
Q 6.59375 45.0625 6.59375 53.421875 
Q 6.59375 63.09375 13.40625 68.65625 
Q 20.21875 74.21875 32.171875 74.21875 
Q 37.3125 74.21875 42.625 73.28125 
Q 47.953125 72.359375 53.515625 70.515625 
z
" id="DejaVuSans-53"/>
     </defs>
     <g style="fill:#262626;" transform="translate(102.320553 163.006321)rotate(-90)scale(0.2 -0.2)">
      <use xlink:href="#DejaVuSans-50"/>
      <use x="60.255859" xlink:href="#DejaVuSans-6f"/>
      <use x="121.4375" xlink:href="#DejaVuSans-53"/>
     </g>
    </g>
   </g>
   <g id="PolyCollection_1">
    <path clip-path="url(#p903f742206)" d="M 141.334615 207.440421 
L 141.334615 260.335067 
L 146.7 261.182837 
L 152.065385 260.694792 
L 157.430769 261.648462 
L 162.796154 262.177149 
L 168.161538 262.667839 
L 173.526923 263.659653 
L 178.892308 263.798305 
L 184.257692 262.620275 
L 189.623077 264.672558 
L 194.988462 264.22604 
L 200.353846 264.384586 
L 205.719231 264.300641 
L 211.084615 264.374694 
L 216.45 265.069202 
L 221.815385 263.880161 
L 227.180769 264.654394 
L 232.546154 264.492214 
L 237.911538 266.446985 
L 243.276923 264.558244 
L 248.642308 264.929779 
L 254.007692 264.983328 
L 259.373077 262.865828 
L 264.738462 263.583149 
L 270.103846 263.977918 
L 275.469231 264.785831 
L 280.834615 263.385961 
L 286.2 261.864015 
L 291.565385 261.783551 
L 296.930769 261.842743 
L 302.296154 261.240217 
L 307.661538 260.179015 
L 313.026923 259.535014 
L 318.392308 258.197953 
L 323.757692 259.164331 
L 329.123077 260.688744 
L 334.488462 262.724738 
L 339.853846 262.641923 
L 345.219231 265.017409 
L 350.584615 263.494301 
L 355.95 264.415798 
L 361.315385 264.687233 
L 366.680769 265.34769 
L 372.046154 266.164091 
L 377.411538 264.980183 
L 382.776923 264.335351 
L 388.142308 265.593951 
L 393.507692 265.143316 
L 398.873077 265.983748 
L 404.238462 266.398865 
L 409.603846 266.329978 
L 414.969231 266.163581 
L 420.334615 265.57489 
L 425.7 266.533276 
L 431.065385 265.22674 
L 436.430769 265.236876 
L 441.796154 263.807081 
L 447.161538 266.536039 
L 452.526923 266.194876 
L 457.892308 265.49059 
L 463.257692 264.333457 
L 468.623077 266.321993 
L 473.988462 265.09927 
L 479.353846 264.745514 
L 484.719231 262.761611 
L 490.084615 261.401921 
L 495.45 262.526771 
L 500.815385 264.921843 
L 506.180769 265.330601 
L 511.546154 263.665655 
L 516.911538 262.703427 
L 522.276923 263.628898 
L 527.642308 263.486426 
L 533.007692 265.510382 
L 538.373077 265.890943 
L 543.738462 265.543669 
L 549.103846 264.566088 
L 554.469231 263.103509 
L 559.834615 262.938713 
L 565.2 262.446826 
L 570.565385 262.506486 
L 575.930769 261.279974 
L 581.296154 261.993723 
L 586.661538 261.999811 
L 592.026923 263.264711 
L 597.392308 264.305092 
L 602.757692 263.534088 
L 608.123077 263.452214 
L 613.488462 262.907745 
L 618.853846 262.496785 
L 624.219231 263.086166 
L 629.584615 263.267677 
L 634.95 263.938322 
L 640.315385 263.215284 
L 645.680769 261.456027 
L 651.046154 260.918953 
L 656.411538 262.250818 
L 661.776923 262.248066 
L 667.142308 262.828293 
L 672.507692 264.044026 
L 677.873077 262.237032 
L 683.238462 262.91855 
L 688.603846 261.647741 
L 693.969231 262.283793 
L 699.334615 263.654068 
L 704.7 262.261821 
L 710.065385 262.616405 
L 715.430769 261.421714 
L 720.796154 262.605464 
L 726.161538 262.424411 
L 731.526923 264.538492 
L 736.892308 263.852214 
L 742.257692 264.243982 
L 747.623077 265.372071 
L 752.988462 265.542311 
L 758.353846 264.906318 
L 763.719231 266.179279 
L 769.084615 264.699944 
L 774.45 263.386375 
L 779.815385 264.959942 
L 785.180769 265.112843 
L 790.546154 264.702108 
L 795.911538 263.939783 
L 801.276923 263.69342 
L 806.642308 266.728645 
L 812.007692 266.598123 
L 817.373077 268.059588 
L 822.738462 267.781862 
L 828.103846 266.33063 
L 833.469231 265.769713 
L 838.834615 265.42221 
L 844.2 263.906875 
L 849.565385 264.545082 
L 854.930769 263.528562 
L 860.296154 261.501189 
L 865.661538 261.444823 
L 871.026923 259.660176 
L 876.392308 259.939155 
L 881.757692 260.922597 
L 887.123077 260.962379 
L 892.488462 259.883691 
L 897.853846 260.135954 
L 903.219231 260.222266 
L 908.584615 260.771303 
L 913.95 261.391804 
L 919.315385 261.809125 
L 924.680769 261.184947 
L 930.046154 261.373456 
L 935.411538 260.768663 
L 940.776923 260.328974 
L 946.142308 259.58802 
L 951.507692 261.655859 
L 956.873077 260.543728 
L 962.238462 264.449665 
L 967.603846 263.806411 
L 972.969231 263.460701 
L 978.334615 262.983942 
L 983.7 262.244059 
L 989.065385 262.097599 
L 994.430769 263.115317 
L 999.796154 263.93576 
L 1005.161538 265.792063 
L 1010.526923 266.084682 
L 1015.892308 264.552783 
L 1021.257692 263.99869 
L 1026.623077 263.008002 
L 1031.988462 263.950788 
L 1037.353846 264.016891 
L 1042.719231 265.277284 
L 1048.084615 267.804429 
L 1053.45 266.805981 
L 1058.815385 265.736922 
L 1064.180769 266.451192 
L 1069.546154 267.38047 
L 1074.911538 266.007785 
L 1080.276923 267.186612 
L 1085.642308 265.856101 
L 1091.007692 264.868806 
L 1096.373077 264.322613 
L 1101.738462 262.56962 
L 1107.103846 261.279936 
L 1112.469231 262.032018 
L 1117.834615 260.806467 
L 1123.2 261.47414 
L 1128.565385 263.862649 
L 1133.930769 263.782949 
L 1139.296154 263.274178 
L 1144.661538 262.360135 
L 1150.026923 262.958371 
L 1155.392308 261.58923 
L 1160.757692 261.762324 
L 1166.123077 261.505887 
L 1171.488462 262.09075 
L 1176.853846 261.290766 
L 1182.219231 262.756067 
L 1187.584615 263.049761 
L 1192.95 262.469269 
L 1198.315385 261.730932 
L 1203.680769 261.718223 
L 1209.046154 260.45077 
L 1214.411538 260.889867 
L 1219.776923 261.658421 
L 1225.142308 261.821303 
L 1230.507692 261.478611 
L 1235.873077 260.226781 
L 1241.238462 262.169055 
L 1246.603846 262.477767 
L 1251.969231 261.684968 
L 1251.969231 206.567506 
L 1251.969231 206.567506 
L 1246.603846 205.163968 
L 1241.238462 204.750096 
L 1235.873077 207.819381 
L 1230.507692 205.064529 
L 1225.142308 205.685639 
L 1219.776923 204.203998 
L 1214.411538 205.287895 
L 1209.046154 206.228235 
L 1203.680769 201.666111 
L 1198.315385 201.960727 
L 1192.95 200.772212 
L 1187.584615 198.613068 
L 1182.219231 198.844267 
L 1176.853846 202.458889 
L 1171.488462 199.623256 
L 1166.123077 201.074072 
L 1160.757692 200.125895 
L 1155.392308 201.501069 
L 1150.026923 197.798338 
L 1144.661538 198.24798 
L 1139.296154 196.221746 
L 1133.930769 197.045612 
L 1128.565385 196.959247 
L 1123.2 202.922964 
L 1117.834615 204.489264 
L 1112.469231 201.565973 
L 1107.103846 204.507477 
L 1101.738462 202.479855 
L 1096.373077 201.584699 
L 1091.007692 201.553274 
L 1085.642308 199.617223 
L 1080.276923 197.962177 
L 1074.911538 201.626512 
L 1069.546154 199.959492 
L 1064.180769 201.573103 
L 1058.815385 203.936474 
L 1053.45 203.951314 
L 1048.084615 203.38475 
L 1042.719231 209.831685 
L 1037.353846 211.45978 
L 1031.988462 211.90755 
L 1026.623077 213.427535 
L 1021.257692 210.52111 
L 1015.892308 209.55537 
L 1010.526923 205.068674 
L 1005.161538 206.303182 
L 999.796154 209.800952 
L 994.430769 210.699363 
L 989.065385 212.505716 
L 983.7 211.138916 
L 978.334615 209.721518 
L 972.969231 208.455816 
L 967.603846 207.183607 
L 962.238462 205.684978 
L 956.873077 212.400291 
L 951.507692 208.95865 
L 946.142308 211.154702 
L 940.776923 208.804486 
L 935.411538 206.38619 
L 930.046154 204.941127 
L 924.680769 205.1993 
L 919.315385 202.518082 
L 913.95 200.381788 
L 908.584615 199.690037 
L 903.219231 199.872579 
L 897.853846 199.115666 
L 892.488462 198.947147 
L 887.123077 195.941871 
L 881.757692 196.331536 
L 876.392308 198.363504 
L 871.026923 199.937821 
L 865.661538 196.919415 
L 860.296154 199.220333 
L 854.930769 196.73588 
L 849.565385 196.984214 
L 844.2 198.915843 
L 838.834615 199.738939 
L 833.469231 199.190842 
L 828.103846 198.563389 
L 822.738462 198.161578 
L 817.373077 200.162835 
L 812.007692 205.300335 
L 806.642308 206.360384 
L 801.276923 212.130109 
L 795.911538 210.594403 
L 790.546154 209.152268 
L 785.180769 209.312426 
L 779.815385 209.596458 
L 774.45 212.936054 
L 769.084615 210.432273 
L 763.719231 208.142151 
L 758.353846 210.251213 
L 752.988462 209.65661 
L 747.623077 209.873127 
L 742.257692 210.982207 
L 736.892308 212.212261 
L 731.526923 209.296198 
L 726.161538 213.580732 
L 720.796154 212.610721 
L 715.430769 214.016879 
L 710.065385 210.868014 
L 704.7 210.594635 
L 699.334615 207.474336 
L 693.969231 208.495784 
L 688.603846 208.283487 
L 683.238462 206.136387 
L 677.873077 207.78473 
L 672.507692 204.795133 
L 667.142308 205.539636 
L 661.776923 206.727521 
L 656.411538 206.928359 
L 651.046154 209.191425 
L 645.680769 207.18679 
L 640.315385 205.033876 
L 634.95 204.060033 
L 629.584615 205.143339 
L 624.219231 207.424291 
L 618.853846 208.556381 
L 613.488462 207.053299 
L 608.123077 206.343578 
L 602.757692 206.369019 
L 597.392308 203.524753 
L 592.026923 208.613105 
L 586.661538 210.658545 
L 581.296154 210.964449 
L 575.930769 211.431917 
L 570.565385 209.701837 
L 565.2 209.833012 
L 559.834615 208.438712 
L 554.469231 206.193998 
L 549.103846 202.984126 
L 543.738462 201.387266 
L 538.373077 202.111144 
L 533.007692 203.170724 
L 527.642308 208.038645 
L 522.276923 205.957118 
L 516.911538 206.548242 
L 511.546154 205.090586 
L 506.180769 202.012663 
L 500.815385 203.616276 
L 495.45 208.718921 
L 490.084615 210.397219 
L 484.719231 208.033094 
L 479.353846 204.230301 
L 473.988462 202.815178 
L 468.623077 201.100776 
L 463.257692 203.957639 
L 457.892308 202.039235 
L 452.526923 201.622828 
L 447.161538 199.787774 
L 441.796154 205.894114 
L 436.430769 202.52181 
L 431.065385 204.032508 
L 425.7 201.28206 
L 420.334615 203.092408 
L 414.969231 202.392815 
L 409.603846 203.757112 
L 404.238462 202.491832 
L 398.873077 204.029312 
L 393.507692 203.924433 
L 388.142308 202.035415 
L 382.776923 203.426998 
L 377.411538 203.761986 
L 372.046154 201.58753 
L 366.680769 203.783479 
L 361.315385 205.530249 
L 355.95 206.128873 
L 350.584615 206.053266 
L 345.219231 202.240554 
L 339.853846 206.277026 
L 334.488462 206.527068 
L 329.123077 209.865022 
L 323.757692 211.85506 
L 318.392308 212.824768 
L 313.026923 210.654036 
L 307.661538 208.704716 
L 302.296154 206.099582 
L 296.930769 206.288098 
L 291.565385 204.265146 
L 286.2 203.693522 
L 280.834615 201.142103 
L 275.469231 198.578588 
L 270.103846 200.094091 
L 264.738462 200.355288 
L 259.373077 204.479212 
L 254.007692 201.087506 
L 248.642308 201.562289 
L 243.276923 201.587662 
L 237.911538 196.394987 
L 232.546154 201.371953 
L 227.180769 200.462957 
L 221.815385 202.118513 
L 216.45 200.213868 
L 211.084615 203.383445 
L 205.719231 202.783112 
L 200.353846 202.997778 
L 194.988462 202.521395 
L 189.623077 202.393983 
L 184.257692 206.383053 
L 178.892308 204.741775 
L 173.526923 204.625825 
L 168.161538 205.834033 
L 162.796154 205.300677 
L 157.430769 205.325442 
L 152.065385 206.726694 
L 146.7 207.483499 
L 141.334615 207.440421 
z
" style="fill:#4b0082;fill-opacity:0.2;"/>
   </g>
   <g id="PolyCollection_2">
    <path clip-path="url(#p903f742206)" d="M 141.334615 91.750826 
L 141.334615 209.073415 
L 146.7 207.40726 
L 152.065385 205.273242 
L 157.430769 205.532663 
L 162.796154 205.023394 
L 168.161538 207.187823 
L 173.526923 209.093653 
L 178.892308 206.012645 
L 184.257692 203.233213 
L 189.623077 202.024879 
L 194.988462 201.081578 
L 200.353846 200.087739 
L 205.719231 200.205731 
L 211.084615 202.020293 
L 216.45 202.803484 
L 221.815385 203.082405 
L 227.180769 201.838137 
L 232.546154 203.203131 
L 237.911538 202.922761 
L 243.276923 202.226571 
L 248.642308 202.027228 
L 254.007692 202.838037 
L 259.373077 203.271192 
L 264.738462 205.65666 
L 270.103846 204.680849 
L 275.469231 202.569275 
L 280.834615 203.981379 
L 286.2 202.067185 
L 291.565385 202.644247 
L 296.930769 203.432869 
L 302.296154 207.304144 
L 307.661538 208.617915 
L 313.026923 212.465506 
L 318.392308 212.511777 
L 323.757692 211.67124 
L 329.123077 210.371379 
L 334.488462 211.979453 
L 339.853846 210.884481 
L 345.219231 209.730194 
L 350.584615 210.790374 
L 355.95 210.15597 
L 361.315385 211.897147 
L 366.680769 212.055513 
L 372.046154 212.024056 
L 377.411538 212.153565 
L 382.776923 213.425503 
L 388.142308 213.053903 
L 393.507692 213.070134 
L 398.873077 214.239969 
L 404.238462 214.170262 
L 409.603846 214.241308 
L 414.969231 215.328888 
L 420.334615 213.953341 
L 425.7 214.585226 
L 431.065385 212.004787 
L 436.430769 209.673142 
L 441.796154 209.439292 
L 447.161538 208.473006 
L 452.526923 206.801584 
L 457.892308 206.759832 
L 463.257692 206.152963 
L 468.623077 206.654771 
L 473.988462 204.390807 
L 479.353846 203.744714 
L 484.719231 204.836526 
L 490.084615 204.300508 
L 495.45 205.103427 
L 500.815385 204.827871 
L 506.180769 206.024469 
L 511.546154 202.87011 
L 516.911538 199.197248 
L 522.276923 199.829255 
L 527.642308 199.489611 
L 533.007692 200.327763 
L 538.373077 203.353943 
L 543.738462 203.909111 
L 549.103846 206.050123 
L 554.469231 205.580188 
L 559.834615 203.970286 
L 565.2 204.521807 
L 570.565385 205.383436 
L 575.930769 206.289895 
L 581.296154 207.46977 
L 586.661538 208.165574 
L 592.026923 208.691526 
L 597.392308 207.426107 
L 602.757692 207.181314 
L 608.123077 205.952536 
L 613.488462 203.186373 
L 618.853846 202.239504 
L 624.219231 200.197429 
L 629.584615 201.678245 
L 634.95 198.626767 
L 640.315385 200.508108 
L 645.680769 201.10115 
L 651.046154 201.779776 
L 656.411538 200.926871 
L 661.776923 199.70639 
L 667.142308 202.017572 
L 672.507692 201.614083 
L 677.873077 202.676824 
L 683.238462 204.572725 
L 688.603846 205.911617 
L 693.969231 205.443468 
L 699.334615 201.665965 
L 704.7 202.546516 
L 710.065385 205.359825 
L 715.430769 205.294572 
L 720.796154 206.858928 
L 726.161538 205.005752 
L 731.526923 206.356355 
L 736.892308 207.434785 
L 742.257692 207.163119 
L 747.623077 206.040771 
L 752.988462 206.400581 
L 758.353846 206.928736 
L 763.719231 210.084239 
L 769.084615 212.337611 
L 774.45 212.077765 
L 779.815385 211.014499 
L 785.180769 209.202578 
L 790.546154 208.944162 
L 795.911538 208.630653 
L 801.276923 208.739879 
L 806.642308 209.422483 
L 812.007692 208.278583 
L 817.373077 208.566862 
L 822.738462 206.120164 
L 828.103846 206.324467 
L 833.469231 206.212615 
L 838.834615 203.543374 
L 844.2 202.485978 
L 849.565385 203.781171 
L 854.930769 204.497715 
L 860.296154 203.351818 
L 865.661538 206.44343 
L 871.026923 205.732045 
L 876.392308 208.405942 
L 881.757692 206.97396 
L 887.123077 206.972754 
L 892.488462 207.991754 
L 897.853846 207.759183 
L 903.219231 208.54143 
L 908.584615 206.902759 
L 913.95 206.000641 
L 919.315385 203.889134 
L 924.680769 204.231197 
L 930.046154 205.682637 
L 935.411538 204.196795 
L 940.776923 205.117089 
L 946.142308 202.995604 
L 951.507692 203.822455 
L 956.873077 203.21777 
L 962.238462 203.981678 
L 967.603846 203.442391 
L 972.969231 201.631243 
L 978.334615 202.174316 
L 983.7 202.133054 
L 989.065385 203.593594 
L 994.430769 201.387006 
L 999.796154 199.186944 
L 1005.161538 200.355321 
L 1010.526923 200.426821 
L 1015.892308 197.795088 
L 1021.257692 196.364436 
L 1026.623077 195.419141 
L 1031.988462 194.203056 
L 1037.353846 194.31356 
L 1042.719231 193.919429 
L 1048.084615 195.167106 
L 1053.45 197.8435 
L 1058.815385 197.962444 
L 1064.180769 198.32576 
L 1069.546154 199.260006 
L 1074.911538 200.652696 
L 1080.276923 200.859736 
L 1085.642308 199.644136 
L 1091.007692 197.973032 
L 1096.373077 196.461999 
L 1101.738462 198.099498 
L 1107.103846 196.025252 
L 1112.469231 197.041315 
L 1117.834615 197.187631 
L 1123.2 197.031844 
L 1128.565385 197.746559 
L 1133.930769 196.459775 
L 1139.296154 196.191558 
L 1144.661538 196.250327 
L 1150.026923 197.913652 
L 1155.392308 197.560261 
L 1160.757692 197.581501 
L 1166.123077 197.393673 
L 1171.488462 197.953308 
L 1176.853846 199.417032 
L 1182.219231 199.623479 
L 1187.584615 202.289611 
L 1192.95 202.112117 
L 1198.315385 202.630307 
L 1203.680769 202.358643 
L 1209.046154 200.115521 
L 1214.411538 201.784248 
L 1219.776923 204.635174 
L 1225.142308 205.427324 
L 1230.507692 206.789532 
L 1235.873077 206.665119 
L 1241.238462 206.09576 
L 1246.603846 207.184175 
L 1251.969231 208.16368 
L 1251.969231 88.577265 
L 1251.969231 88.577265 
L 1246.603846 90.32683 
L 1241.238462 95.464486 
L 1235.873077 92.093368 
L 1230.507692 94.170406 
L 1225.142308 93.707039 
L 1219.776923 94.310757 
L 1214.411538 94.86631 
L 1209.046154 86.807408 
L 1203.680769 88.926483 
L 1198.315385 85.894415 
L 1192.95 93.028075 
L 1187.584615 92.782847 
L 1182.219231 91.495523 
L 1176.853846 93.999204 
L 1171.488462 90.646872 
L 1166.123077 87.747521 
L 1160.757692 89.721545 
L 1155.392308 86.883649 
L 1150.026923 87.53937 
L 1144.661538 86.621183 
L 1139.296154 88.471637 
L 1133.930769 86.867076 
L 1128.565385 91.939416 
L 1123.2 88.016578 
L 1117.834615 88.418585 
L 1112.469231 82.696033 
L 1107.103846 79.072282 
L 1101.738462 86.895748 
L 1096.373077 84.555669 
L 1091.007692 84.220349 
L 1085.642308 86.949379 
L 1080.276923 89.658717 
L 1074.911538 86.434135 
L 1069.546154 85.530931 
L 1064.180769 85.440193 
L 1058.815385 89.823588 
L 1053.45 91.625026 
L 1048.084615 88.834489 
L 1042.719231 82.747671 
L 1037.353846 82.196364 
L 1031.988462 80.998043 
L 1026.623077 89.337469 
L 1021.257692 85.388027 
L 1015.892308 87.456303 
L 1010.526923 85.890204 
L 1005.161538 85.960343 
L 999.796154 85.144842 
L 994.430769 82.044499 
L 989.065385 80.315063 
L 983.7 83.206482 
L 978.334615 82.195651 
L 972.969231 84.737044 
L 967.603846 85.201428 
L 962.238462 88.967811 
L 956.873077 93.39758 
L 951.507692 90.211147 
L 946.142308 94.590715 
L 940.776923 93.345659 
L 935.411538 90.532234 
L 930.046154 89.402245 
L 924.680769 87.18699 
L 919.315385 84.811351 
L 913.95 88.054846 
L 908.584615 89.166783 
L 903.219231 91.479232 
L 897.853846 90.402093 
L 892.488462 96.827164 
L 887.123077 97.320237 
L 881.757692 97.682898 
L 876.392308 98.096014 
L 871.026923 99.410239 
L 865.661538 95.460405 
L 860.296154 94.886771 
L 854.930769 92.179572 
L 849.565385 91.803476 
L 844.2 90.56697 
L 838.834615 88.606138 
L 833.469231 90.211892 
L 828.103846 88.059511 
L 822.738462 84.936716 
L 817.373077 89.513099 
L 812.007692 90.234911 
L 806.642308 93.071214 
L 801.276923 94.094238 
L 795.911538 90.453643 
L 790.546154 93.310909 
L 785.180769 87.274486 
L 779.815385 88.885846 
L 774.45 89.788315 
L 769.084615 93.702229 
L 763.719231 96.524391 
L 758.353846 92.94285 
L 752.988462 89.985704 
L 747.623077 92.209656 
L 742.257692 89.098916 
L 736.892308 93.466296 
L 731.526923 93.307961 
L 726.161538 90.903509 
L 720.796154 91.858468 
L 715.430769 90.809749 
L 710.065385 90.274939 
L 704.7 88.451762 
L 699.334615 89.084258 
L 693.969231 91.822852 
L 688.603846 89.047188 
L 683.238462 92.149488 
L 677.873077 93.393995 
L 672.507692 92.49902 
L 667.142308 95.64708 
L 661.776923 89.038526 
L 656.411538 85.83681 
L 651.046154 85.724782 
L 645.680769 88.989254 
L 640.315385 85.666312 
L 634.95 83.877076 
L 629.584615 86.685175 
L 624.219231 86.653529 
L 618.853846 84.315685 
L 613.488462 82.555407 
L 608.123077 83.240371 
L 602.757692 86.765965 
L 597.392308 88.010497 
L 592.026923 91.292848 
L 586.661538 93.47706 
L 581.296154 95.593277 
L 575.930769 92.437849 
L 570.565385 95.910327 
L 565.2 92.505267 
L 559.834615 91.585256 
L 554.469231 94.648811 
L 549.103846 93.972265 
L 543.738462 95.985299 
L 538.373077 95.750383 
L 533.007692 89.135298 
L 527.642308 91.911895 
L 522.276923 86.923203 
L 516.911538 86.339585 
L 511.546154 89.724164 
L 506.180769 92.934063 
L 500.815385 96.37417 
L 495.45 97.639004 
L 490.084615 93.50542 
L 484.719231 91.045074 
L 479.353846 89.026829 
L 473.988462 87.864092 
L 468.623077 89.572036 
L 463.257692 86.045539 
L 457.892308 88.253565 
L 452.526923 93.060892 
L 447.161538 95.115883 
L 441.796154 93.729632 
L 436.430769 90.224994 
L 431.065385 93.291361 
L 425.7 96.991371 
L 420.334615 98.172045 
L 414.969231 99.074742 
L 409.603846 99.934135 
L 404.238462 99.470423 
L 398.873077 107.136898 
L 393.507692 105.197582 
L 388.142308 101.987939 
L 382.776923 99.276644 
L 377.411538 95.687088 
L 372.046154 96.399901 
L 366.680769 96.92815 
L 361.315385 97.642355 
L 355.95 98.120464 
L 350.584615 98.596727 
L 345.219231 93.522558 
L 339.853846 94.264626 
L 334.488462 93.599342 
L 329.123077 87.499358 
L 323.757692 94.967864 
L 318.392308 97.045612 
L 313.026923 101.90145 
L 307.661538 103.924385 
L 302.296154 99.697535 
L 296.930769 92.947199 
L 291.565385 91.49559 
L 286.2 90.656803 
L 280.834615 94.35695 
L 275.469231 97.925744 
L 270.103846 90.687906 
L 264.738462 91.689912 
L 259.373077 88.314528 
L 254.007692 87.784357 
L 248.642308 93.943236 
L 243.276923 91.608647 
L 237.911538 91.710254 
L 232.546154 90.635925 
L 227.180769 96.036425 
L 221.815385 91.787196 
L 216.45 95.519504 
L 211.084615 95.0556 
L 205.719231 91.086267 
L 200.353846 85.434868 
L 194.988462 88.4841 
L 189.623077 87.683652 
L 184.257692 85.94519 
L 178.892308 88.464395 
L 173.526923 91.102684 
L 168.161538 91.371648 
L 162.796154 91.085584 
L 157.430769 91.226147 
L 152.065385 89.4061 
L 146.7 94.358161 
L 141.334615 91.750826 
z
" style="fill:#ff0000;fill-opacity:0.2;"/>
   </g>
   <g id="PolyCollection_3">
    <path clip-path="url(#p903f742206)" d="M 141.334615 26.415994 
L 141.334615 89.083706 
L 146.7 91.245297 
L 152.065385 85.717386 
L 157.430769 85.807489 
L 162.796154 83.587591 
L 168.161538 82.679945 
L 173.526923 80.492653 
L 178.892308 82.699108 
L 184.257692 85.11258 
L 189.623077 88.475648 
L 194.988462 87.124087 
L 200.353846 87.466813 
L 205.719231 85.759068 
L 211.084615 86.135066 
L 216.45 88.386634 
L 221.815385 89.140619 
L 227.180769 88.159466 
L 232.546154 89.670771 
L 237.911538 88.353311 
L 243.276923 86.794152 
L 248.642308 85.84635 
L 254.007692 88.733432 
L 259.373077 88.966651 
L 264.738462 85.192879 
L 270.103846 85.637123 
L 275.469231 89.436439 
L 280.834615 90.566837 
L 286.2 92.043343 
L 291.565385 90.734634 
L 296.930769 89.575341 
L 302.296154 91.30881 
L 307.661538 88.045396 
L 313.026923 87.436638 
L 318.392308 83.235261 
L 323.757692 81.001438 
L 329.123077 83.531339 
L 334.488462 83.161729 
L 339.853846 82.704141 
L 345.219231 85.411541 
L 350.584615 84.998218 
L 355.95 86.811946 
L 361.315385 86.892652 
L 366.680769 84.823405 
L 372.046154 83.95075 
L 377.411538 85.465072 
L 382.776923 82.030593 
L 388.142308 85.813392 
L 393.507692 80.982479 
L 398.873077 83.809059 
L 404.238462 84.997152 
L 409.603846 85.962875 
L 414.969231 87.61805 
L 420.334615 86.582221 
L 425.7 86.155517 
L 431.065385 88.546586 
L 436.430769 87.994262 
L 441.796154 88.769498 
L 447.161538 86.922282 
L 452.526923 85.303902 
L 457.892308 84.019551 
L 463.257692 86.592626 
L 468.623077 86.843661 
L 473.988462 91.154433 
L 479.353846 90.6813 
L 484.719231 90.13752 
L 490.084615 88.446705 
L 495.45 88.506487 
L 500.815385 85.972944 
L 506.180769 81.859016 
L 511.546154 84.200538 
L 516.911538 85.361304 
L 522.276923 82.298679 
L 527.642308 80.22799 
L 533.007692 78.842766 
L 538.373077 81.481165 
L 543.738462 83.977652 
L 549.103846 86.379815 
L 554.469231 85.009597 
L 559.834615 83.365385 
L 565.2 81.887918 
L 570.565385 89.062352 
L 575.930769 89.58971 
L 581.296154 88.635456 
L 586.661538 83.345512 
L 592.026923 83.583567 
L 597.392308 86.646877 
L 602.757692 82.423186 
L 608.123077 81.016697 
L 613.488462 79.655401 
L 618.853846 83.894566 
L 624.219231 85.566045 
L 629.584615 84.408101 
L 634.95 85.010948 
L 640.315385 79.698856 
L 645.680769 78.02702 
L 651.046154 85.006967 
L 656.411538 86.832431 
L 661.776923 85.895957 
L 667.142308 85.765089 
L 672.507692 84.562569 
L 677.873077 85.997262 
L 683.238462 87.198782 
L 688.603846 88.279759 
L 693.969231 89.36295 
L 699.334615 93.857715 
L 704.7 92.650036 
L 710.065385 95.391038 
L 715.430769 91.322651 
L 720.796154 86.446499 
L 726.161538 88.274626 
L 731.526923 84.97153 
L 736.892308 83.962848 
L 742.257692 84.072422 
L 747.623077 85.146349 
L 752.988462 87.697658 
L 758.353846 89.667607 
L 763.719231 89.335404 
L 769.084615 88.690633 
L 774.45 85.70462 
L 779.815385 86.843762 
L 785.180769 87.508727 
L 790.546154 84.751849 
L 795.911538 81.903343 
L 801.276923 85.294162 
L 806.642308 90.641362 
L 812.007692 93.259009 
L 817.373077 93.161244 
L 822.738462 89.929616 
L 828.103846 88.441866 
L 833.469231 86.869665 
L 838.834615 84.855577 
L 844.2 87.007739 
L 849.565385 82.446363 
L 854.930769 83.212548 
L 860.296154 84.699556 
L 865.661538 87.740527 
L 871.026923 90.368192 
L 876.392308 87.116804 
L 881.757692 89.696044 
L 887.123077 87.130137 
L 892.488462 87.116838 
L 897.853846 83.14528 
L 903.219231 81.679213 
L 908.584615 81.929682 
L 913.95 81.464168 
L 919.315385 84.706248 
L 924.680769 85.748487 
L 930.046154 88.307666 
L 935.411538 89.630816 
L 940.776923 87.79623 
L 946.142308 89.568933 
L 951.507692 92.753964 
L 956.873077 91.650266 
L 962.238462 92.331991 
L 967.603846 94.461163 
L 972.969231 95.429281 
L 978.334615 90.218525 
L 983.7 84.751611 
L 989.065385 87.608091 
L 994.430769 86.180655 
L 999.796154 85.759939 
L 1005.161538 80.455992 
L 1010.526923 80.268421 
L 1015.892308 79.798356 
L 1021.257692 85.010935 
L 1026.623077 85.815288 
L 1031.988462 85.718072 
L 1037.353846 89.008784 
L 1042.719231 87.418452 
L 1048.084615 85.229473 
L 1053.45 85.667122 
L 1058.815385 83.61588 
L 1064.180769 83.728333 
L 1069.546154 79.312053 
L 1074.911538 82.47724 
L 1080.276923 82.273456 
L 1085.642308 84.270576 
L 1091.007692 87.677441 
L 1096.373077 89.213053 
L 1101.738462 89.170428 
L 1107.103846 81.985317 
L 1112.469231 84.941026 
L 1117.834615 85.01939 
L 1123.2 87.253106 
L 1128.565385 85.553897 
L 1133.930769 86.396397 
L 1139.296154 81.738264 
L 1144.661538 79.266058 
L 1150.026923 85.9248 
L 1155.392308 85.987735 
L 1160.757692 90.743023 
L 1166.123077 86.307063 
L 1171.488462 86.097064 
L 1176.853846 86.958217 
L 1182.219231 85.013284 
L 1187.584615 88.116778 
L 1192.95 82.661691 
L 1198.315385 82.20634 
L 1203.680769 82.772769 
L 1209.046154 84.380987 
L 1214.411538 82.233205 
L 1219.776923 83.630191 
L 1225.142308 86.259401 
L 1230.507692 88.442277 
L 1235.873077 87.635564 
L 1241.238462 88.25089 
L 1246.603846 84.186544 
L 1251.969231 83.101418 
L 1251.969231 21.895074 
L 1251.969231 21.895074 
L 1246.603846 23.299199 
L 1241.238462 22.125446 
L 1235.873077 24.432834 
L 1230.507692 25.641615 
L 1225.142308 24.802523 
L 1219.776923 24.462002 
L 1214.411538 24.286455 
L 1209.046154 25.094155 
L 1203.680769 22.719533 
L 1198.315385 23.380049 
L 1192.95 24.073278 
L 1187.584615 25.681759 
L 1182.219231 23.359067 
L 1176.853846 23.857058 
L 1171.488462 24.136168 
L 1166.123077 25.279805 
L 1160.757692 27.124018 
L 1155.392308 26.607609 
L 1150.026923 27.047236 
L 1144.661538 22.955484 
L 1139.296154 23.378632 
L 1133.930769 23.751981 
L 1128.565385 25.370997 
L 1123.2 26.62728 
L 1117.834615 24.493165 
L 1112.469231 25.125287 
L 1107.103846 23.320523 
L 1101.738462 24.026502 
L 1096.373077 27.684568 
L 1091.007692 27.326687 
L 1085.642308 26.671761 
L 1080.276923 25.782718 
L 1074.911538 24.326868 
L 1069.546154 23.424749 
L 1064.180769 24.757514 
L 1058.815385 22.240724 
L 1053.45 22.606662 
L 1048.084615 23.502621 
L 1042.719231 24.644724 
L 1037.353846 24.608174 
L 1031.988462 23.754879 
L 1026.623077 24.505296 
L 1021.257692 27.488583 
L 1015.892308 25.08649 
L 1010.526923 22.52154 
L 1005.161538 23.683781 
L 999.796154 22.671229 
L 994.430769 25.878435 
L 989.065385 25.853685 
L 983.7 24.781306 
L 978.334615 23.208158 
L 972.969231 24.795982 
L 967.603846 24.139699 
L 962.238462 23.635872 
L 956.873077 23.64691 
L 951.507692 23.401655 
L 946.142308 26.006047 
L 940.776923 24.388548 
L 935.411538 24.178998 
L 930.046154 25.333782 
L 924.680769 23.710347 
L 919.315385 25.012473 
L 913.95 23.679066 
L 908.584615 24.0419 
L 903.219231 23.477516 
L 897.853846 23.02126 
L 892.488462 24.286544 
L 887.123077 22.772145 
L 881.757692 26.997338 
L 876.392308 24.853562 
L 871.026923 24.741677 
L 865.661538 27.216048 
L 860.296154 27.002646 
L 854.930769 26.533565 
L 849.565385 22.806214 
L 844.2 24.784533 
L 838.834615 24.331821 
L 833.469231 23.95562 
L 828.103846 23.974137 
L 822.738462 23.134335 
L 817.373077 24.85755 
L 812.007692 24.441506 
L 806.642308 26.750534 
L 801.276923 25.273695 
L 795.911538 23.237254 
L 790.546154 24.386059 
L 785.180769 25.392334 
L 779.815385 24.343011 
L 774.45 24.107342 
L 769.084615 24.53687 
L 763.719231 23.066775 
L 758.353846 26.016494 
L 752.988462 25.243476 
L 747.623077 25.539026 
L 742.257692 26.038522 
L 736.892308 23.973778 
L 731.526923 23.247945 
L 726.161538 24.018916 
L 720.796154 22.745962 
L 715.430769 23.088865 
L 710.065385 24.596231 
L 704.7 25.698504 
L 699.334615 26.904948 
L 693.969231 24.843161 
L 688.603846 24.49505 
L 683.238462 27.108809 
L 677.873077 25.04526 
L 672.507692 22.093995 
L 667.142308 25.174055 
L 661.776923 22.716641 
L 656.411538 26.694385 
L 651.046154 27.93841 
L 645.680769 25.287735 
L 640.315385 23.92037 
L 634.95 24.712421 
L 629.584615 23.546639 
L 624.219231 23.728845 
L 618.853846 25.302112 
L 613.488462 24.024944 
L 608.123077 23.161214 
L 602.757692 22.117003 
L 597.392308 25.960667 
L 592.026923 25.261496 
L 586.661538 21.671678 
L 581.296154 23.530171 
L 575.930769 24.064572 
L 570.565385 25.696449 
L 565.2 23.634251 
L 559.834615 22.439603 
L 554.469231 25.545307 
L 549.103846 25.041193 
L 543.738462 24.658016 
L 538.373077 24.284287 
L 533.007692 25.71142 
L 527.642308 23.692896 
L 522.276923 24.390025 
L 516.911538 23.258606 
L 511.546154 24.188557 
L 506.180769 23.433113 
L 500.815385 22.091783 
L 495.45 23.666493 
L 490.084615 26.028097 
L 484.719231 23.385471 
L 479.353846 27.359835 
L 473.988462 26.197765 
L 468.623077 25.248052 
L 463.257692 27.093335 
L 457.892308 27.054834 
L 452.526923 25.310548 
L 447.161538 25.686236 
L 441.796154 23.212373 
L 436.430769 23.738404 
L 431.065385 26.84628 
L 425.7 24.302823 
L 420.334615 24.280865 
L 414.969231 25.852419 
L 409.603846 26.422737 
L 404.238462 25.497111 
L 398.873077 24.295014 
L 393.507692 23.292364 
L 388.142308 25.205901 
L 382.776923 24.476176 
L 377.411538 26.075183 
L 372.046154 24.810702 
L 366.680769 23.460846 
L 361.315385 23.618482 
L 355.95 23.673823 
L 350.584615 23.608336 
L 345.219231 24.047646 
L 339.853846 23.214281 
L 334.488462 24.197679 
L 329.123077 25.445927 
L 323.757692 25.795132 
L 318.392308 22.375622 
L 313.026923 23.407483 
L 307.661538 21.329677 
L 302.296154 23.278488 
L 296.930769 24.985308 
L 291.565385 24.398971 
L 286.2 25.970763 
L 280.834615 25.160927 
L 275.469231 25.516038 
L 270.103846 20.968679 
L 264.738462 22.676409 
L 259.373077 26.261225 
L 254.007692 25.449657 
L 248.642308 23.956018 
L 243.276923 25.37578 
L 237.911538 25.250215 
L 232.546154 24.827332 
L 227.180769 23.691675 
L 221.815385 24.737293 
L 216.45 23.229652 
L 211.084615 23.504424 
L 205.719231 23.236342 
L 200.353846 25.97053 
L 194.988462 25.902426 
L 189.623077 26.96876 
L 184.257692 26.38882 
L 178.892308 26.934957 
L 173.526923 26.766156 
L 168.161538 26.295156 
L 162.796154 22.621139 
L 157.430769 22.216796 
L 152.065385 22.403797 
L 146.7 26.523012 
L 141.334615 26.415994 
z
" style="fill:#32cd32;fill-opacity:0.2;"/>
   </g>
   <g id="line2d_23">
    <path clip-path="url(#p903f742206)" d="M 141.334615 233.887744 
L 146.7 234.333168 
L 152.065385 233.710743 
L 157.430769 233.486952 
L 162.796154 233.738913 
L 168.161538 234.250936 
L 173.526923 234.142739 
L 184.257692 234.501664 
L 189.623077 233.533271 
L 194.988462 233.373717 
L 200.353846 233.691182 
L 205.719231 233.541876 
L 211.084615 233.87907 
L 216.45 232.641535 
L 221.815385 232.999337 
L 227.180769 232.558675 
L 232.546154 232.932083 
L 237.911538 231.420986 
L 243.276923 233.072953 
L 248.642308 233.246034 
L 254.007692 233.035417 
L 259.373077 233.67252 
L 264.738462 231.969219 
L 270.103846 232.036004 
L 275.469231 231.68221 
L 286.2 232.778768 
L 291.565385 233.024348 
L 296.930769 234.065421 
L 302.296154 233.669899 
L 307.661538 234.441866 
L 313.026923 235.094525 
L 318.392308 235.51136 
L 323.757692 235.509695 
L 329.123077 235.276883 
L 334.488462 234.625903 
L 339.853846 234.459474 
L 345.219231 233.628981 
L 350.584615 234.773783 
L 355.95 235.272335 
L 361.315385 235.108741 
L 366.680769 234.565585 
L 372.046154 233.875811 
L 377.411538 234.371084 
L 382.776923 233.881174 
L 388.142308 233.814683 
L 393.507692 234.533874 
L 398.873077 235.00653 
L 404.238462 234.445349 
L 409.603846 235.043545 
L 414.969231 234.278198 
L 420.334615 234.333649 
L 425.7 233.907668 
L 431.065385 234.629624 
L 436.430769 233.879343 
L 441.796154 234.850597 
L 447.161538 233.161907 
L 452.526923 233.908852 
L 457.892308 233.764912 
L 463.257692 234.145548 
L 468.623077 233.711384 
L 473.988462 233.957224 
L 479.353846 234.487907 
L 484.719231 235.397352 
L 490.084615 235.89957 
L 495.45 235.622846 
L 500.815385 234.26906 
L 506.180769 233.671632 
L 511.546154 234.37812 
L 522.276923 234.793008 
L 527.642308 235.762536 
L 533.007692 234.340553 
L 538.373077 234.001044 
L 543.738462 233.465468 
L 549.103846 233.775107 
L 554.469231 234.648754 
L 559.834615 235.688712 
L 565.2 236.139919 
L 570.565385 236.104162 
L 575.930769 236.355946 
L 581.296154 236.479086 
L 586.661538 236.329178 
L 592.026923 235.938908 
L 597.392308 233.914922 
L 602.757692 234.951553 
L 608.123077 234.897896 
L 613.488462 234.980522 
L 618.853846 235.526583 
L 624.219231 235.255228 
L 629.584615 234.205508 
L 634.95 233.999177 
L 645.680769 234.321408 
L 651.046154 235.055189 
L 656.411538 234.589589 
L 661.776923 234.487794 
L 667.142308 234.183964 
L 672.507692 234.419579 
L 677.873077 235.010881 
L 683.238462 234.527469 
L 693.969231 235.389789 
L 699.334615 235.564202 
L 704.7 236.428228 
L 710.065385 236.742209 
L 715.430769 237.719297 
L 720.796154 237.608092 
L 726.161538 238.002572 
L 731.526923 236.917345 
L 736.892308 238.032238 
L 742.257692 237.613094 
L 758.353846 237.578766 
L 763.719231 237.160715 
L 769.084615 237.566109 
L 774.45 238.161214 
L 779.815385 237.2782 
L 785.180769 237.212634 
L 790.546154 236.927188 
L 795.911538 237.267093 
L 801.276923 237.911765 
L 806.642308 236.544514 
L 812.007692 235.949229 
L 817.373077 234.111212 
L 822.738462 232.97172 
L 828.103846 232.44701 
L 838.834615 232.580574 
L 844.2 231.411359 
L 854.930769 230.132221 
L 860.296154 230.360761 
L 865.661538 229.182119 
L 871.026923 229.798998 
L 876.392308 229.15133 
L 881.757692 228.627066 
L 887.123077 228.452125 
L 892.488462 229.415419 
L 897.853846 229.62581 
L 903.219231 230.047422 
L 908.584615 230.23067 
L 913.95 230.886796 
L 919.315385 232.163604 
L 924.680769 233.192124 
L 930.046154 233.157291 
L 935.411538 233.577426 
L 940.776923 234.56673 
L 946.142308 235.371361 
L 951.507692 235.307254 
L 956.873077 236.47201 
L 962.238462 235.067322 
L 989.065385 237.301657 
L 994.430769 236.90734 
L 999.796154 236.868356 
L 1005.161538 236.047623 
L 1010.526923 235.576678 
L 1015.892308 237.054076 
L 1021.257692 237.2599 
L 1026.623077 238.217769 
L 1037.353846 237.738336 
L 1042.719231 237.554484 
L 1048.084615 235.594589 
L 1053.45 235.378648 
L 1058.815385 234.836698 
L 1064.180769 234.012147 
L 1069.546154 233.669981 
L 1074.911538 233.817148 
L 1080.276923 232.574395 
L 1085.642308 232.736662 
L 1091.007692 233.21104 
L 1096.373077 232.953656 
L 1101.738462 232.524738 
L 1107.103846 232.893706 
L 1112.469231 231.798995 
L 1117.834615 232.647866 
L 1123.2 232.198552 
L 1128.565385 230.410948 
L 1133.930769 230.414281 
L 1139.296154 229.747962 
L 1144.661538 230.304057 
L 1150.026923 230.378354 
L 1155.392308 231.54515 
L 1160.757692 230.94411 
L 1166.123077 231.28998 
L 1171.488462 230.857003 
L 1176.853846 231.874828 
L 1182.219231 230.800167 
L 1187.584615 230.831414 
L 1192.95 231.620741 
L 1198.315385 231.84583 
L 1203.680769 231.692167 
L 1209.046154 233.339502 
L 1219.776923 232.93121 
L 1225.142308 233.753471 
L 1230.507692 233.27157 
L 1235.873077 234.023081 
L 1241.238462 233.459575 
L 1251.969231 234.126237 
L 1251.969231 234.126237 
" style="fill:none;stroke:#4b0082;stroke-linecap:round;stroke-width:1.75;"/>
   </g>
   <g id="line2d_24">
    <path clip-path="url(#p903f742206)" d="M 141.334615 150.41212 
L 146.7 150.882711 
L 152.065385 147.339671 
L 157.430769 148.379405 
L 162.796154 148.054489 
L 168.161538 149.279735 
L 173.526923 150.098169 
L 178.892308 147.23852 
L 184.257692 144.589201 
L 189.623077 144.854265 
L 194.988462 144.782839 
L 200.353846 142.761303 
L 211.084615 148.537947 
L 216.45 149.161494 
L 221.815385 147.434801 
L 227.180769 148.937281 
L 232.546154 146.919528 
L 237.911538 147.316508 
L 243.276923 146.917609 
L 248.642308 147.985232 
L 254.007692 145.311197 
L 259.373077 145.79286 
L 264.738462 148.673286 
L 270.103846 147.684378 
L 275.469231 150.247509 
L 280.834615 149.169165 
L 286.2 146.361994 
L 291.565385 147.069919 
L 296.930769 148.190034 
L 302.296154 153.500839 
L 307.661538 156.27115 
L 313.026923 157.183478 
L 318.392308 154.778694 
L 323.757692 153.319552 
L 329.123077 148.935368 
L 334.488462 152.789397 
L 339.853846 152.574554 
L 345.219231 151.626376 
L 350.584615 154.69355 
L 355.95 154.138217 
L 361.315385 154.769751 
L 377.411538 153.920326 
L 382.776923 156.351074 
L 388.142308 157.520921 
L 398.873077 160.688433 
L 404.238462 156.820342 
L 409.603846 157.087721 
L 414.969231 157.201815 
L 420.334615 156.062693 
L 425.7 155.788298 
L 431.065385 152.648074 
L 436.430769 149.949068 
L 441.796154 151.584462 
L 447.161538 151.794444 
L 452.526923 149.931238 
L 457.892308 147.506698 
L 463.257692 146.099251 
L 468.623077 148.113403 
L 473.988462 146.12745 
L 479.353846 146.385771 
L 484.719231 147.9408 
L 490.084615 148.902964 
L 495.45 151.371215 
L 500.815385 150.601021 
L 506.180769 149.479266 
L 511.546154 146.297137 
L 516.911538 142.768416 
L 522.276923 143.376229 
L 527.642308 145.700753 
L 533.007692 144.731531 
L 538.373077 149.552163 
L 543.738462 149.947205 
L 554.469231 150.114499 
L 559.834615 147.777771 
L 565.2 148.513537 
L 570.565385 150.646882 
L 575.930769 149.363872 
L 581.296154 151.531523 
L 586.661538 150.821317 
L 592.026923 149.992187 
L 597.392308 147.718302 
L 602.757692 146.973639 
L 608.123077 144.596454 
L 613.488462 142.87089 
L 618.853846 143.277595 
L 624.219231 143.425479 
L 629.584615 144.18171 
L 634.95 141.251922 
L 640.315385 143.08721 
L 645.680769 145.045202 
L 651.046154 143.752279 
L 656.411538 143.381841 
L 661.776923 144.372458 
L 667.142308 148.832326 
L 672.507692 147.056551 
L 677.873077 148.035409 
L 683.238462 148.361106 
L 688.603846 147.479402 
L 693.969231 148.63316 
L 699.334615 145.375112 
L 704.7 145.499139 
L 710.065385 147.817382 
L 715.430769 148.052161 
L 720.796154 149.358698 
L 726.161538 147.95463 
L 731.526923 149.832158 
L 736.892308 150.450541 
L 742.257692 148.131018 
L 747.623077 149.125214 
L 752.988462 148.193142 
L 758.353846 149.935793 
L 763.719231 153.304315 
L 769.084615 153.01992 
L 774.45 150.93304 
L 779.815385 149.950172 
L 785.180769 148.238532 
L 790.546154 151.127535 
L 795.911538 149.542148 
L 801.276923 151.417058 
L 806.642308 151.246848 
L 812.007692 149.256747 
L 817.373077 149.039981 
L 822.738462 145.52844 
L 828.103846 147.191989 
L 833.469231 148.212254 
L 838.834615 146.074756 
L 844.2 146.526474 
L 849.565385 147.792324 
L 854.930769 148.338644 
L 860.296154 149.119294 
L 865.661538 150.951917 
L 871.026923 152.571142 
L 876.392308 153.250978 
L 881.757692 152.328429 
L 887.123077 152.146495 
L 892.488462 152.409459 
L 897.853846 149.080638 
L 903.219231 150.010331 
L 908.584615 148.034771 
L 913.95 147.027744 
L 919.315385 144.350242 
L 924.680769 145.709093 
L 930.046154 147.542441 
L 935.411538 147.364514 
L 940.776923 149.231374 
L 946.142308 148.79316 
L 951.507692 147.016801 
L 956.873077 148.307675 
L 962.238462 146.474745 
L 967.603846 144.32191 
L 972.969231 143.184144 
L 978.334615 142.184983 
L 983.7 142.669768 
L 989.065385 141.954329 
L 994.430769 141.715753 
L 999.796154 142.165893 
L 1005.161538 143.157832 
L 1010.526923 143.158512 
L 1015.892308 142.625695 
L 1021.257692 140.876232 
L 1026.623077 142.378305 
L 1031.988462 137.600549 
L 1037.353846 138.254962 
L 1042.719231 138.33355 
L 1048.084615 142.000798 
L 1053.45 144.734263 
L 1058.815385 143.893016 
L 1064.180769 141.882976 
L 1069.546154 142.395468 
L 1074.911538 143.543415 
L 1080.276923 145.259227 
L 1085.642308 143.296758 
L 1091.007692 141.096691 
L 1096.373077 140.508834 
L 1101.738462 142.497623 
L 1107.103846 137.548767 
L 1112.469231 139.868674 
L 1117.834615 142.803108 
L 1123.2 142.524211 
L 1128.565385 144.842987 
L 1133.930769 141.663426 
L 1139.296154 142.331597 
L 1144.661538 141.435755 
L 1150.026923 142.726511 
L 1155.392308 142.221955 
L 1160.757692 143.651523 
L 1166.123077 142.570597 
L 1171.488462 144.30009 
L 1176.853846 146.708118 
L 1182.219231 145.559501 
L 1187.584615 147.536229 
L 1192.95 147.570096 
L 1198.315385 144.262361 
L 1203.680769 145.642563 
L 1209.046154 143.461465 
L 1214.411538 148.325279 
L 1219.776923 149.472966 
L 1225.142308 149.567182 
L 1230.507692 150.479969 
L 1235.873077 149.379243 
L 1241.238462 150.780123 
L 1246.603846 148.755502 
L 1251.969231 148.370473 
L 1251.969231 148.370473 
" style="fill:none;stroke:#ff0000;stroke-linecap:round;stroke-width:1.75;"/>
   </g>
   <g id="line2d_25">
    <path clip-path="url(#p903f742206)" d="M 141.334615 57.74985 
L 146.7 58.884154 
L 152.065385 54.060592 
L 157.430769 54.012142 
L 162.796154 53.104365 
L 168.161538 54.487551 
L 173.526923 53.629405 
L 178.892308 54.817032 
L 184.257692 55.7507 
L 189.623077 57.722204 
L 194.988462 56.513257 
L 200.353846 56.718671 
L 205.719231 54.497705 
L 211.084615 54.819745 
L 216.45 55.808143 
L 221.815385 56.938956 
L 227.180769 55.925571 
L 232.546154 57.249052 
L 237.911538 56.801763 
L 243.276923 56.084966 
L 248.642308 54.901184 
L 254.007692 57.091545 
L 259.373077 57.613938 
L 264.738462 53.934644 
L 270.103846 53.302901 
L 275.469231 57.476238 
L 280.834615 57.863882 
L 286.2 59.007053 
L 291.565385 57.566803 
L 296.930769 57.280324 
L 302.296154 57.293649 
L 307.661538 54.687536 
L 313.026923 55.422061 
L 318.392308 52.805441 
L 323.757692 53.398285 
L 329.123077 54.488633 
L 339.853846 52.959211 
L 345.219231 54.729593 
L 350.584615 54.303277 
L 355.95 55.242884 
L 361.315385 55.255567 
L 366.680769 54.142126 
L 372.046154 54.380726 
L 377.411538 55.770127 
L 382.776923 53.253385 
L 388.142308 55.509646 
L 393.507692 52.137422 
L 398.873077 54.052036 
L 404.238462 55.247132 
L 409.603846 56.192806 
L 414.969231 56.735234 
L 420.334615 55.431543 
L 425.7 55.22917 
L 431.065385 57.696433 
L 436.430769 55.866333 
L 441.796154 55.990935 
L 447.161538 56.304259 
L 452.526923 55.307225 
L 457.892308 55.537192 
L 463.257692 56.842981 
L 468.623077 56.045857 
L 473.988462 58.676099 
L 479.353846 59.020567 
L 484.719231 56.761495 
L 490.084615 57.237401 
L 495.45 56.08649 
L 500.815385 54.032364 
L 506.180769 52.646064 
L 511.546154 54.194548 
L 516.911538 54.309955 
L 522.276923 53.344352 
L 527.642308 51.960443 
L 533.007692 52.277093 
L 538.373077 52.882726 
L 549.103846 55.710504 
L 554.469231 55.277452 
L 559.834615 52.902494 
L 565.2 52.761085 
L 570.565385 57.379401 
L 575.930769 56.827141 
L 581.296154 56.082814 
L 586.661538 52.508595 
L 597.392308 56.303772 
L 602.757692 52.270094 
L 613.488462 51.840173 
L 618.853846 54.598339 
L 624.219231 54.647445 
L 629.584615 53.97737 
L 634.95 54.861685 
L 640.315385 51.809613 
L 645.680769 51.657378 
L 651.046154 56.472689 
L 656.411538 56.763408 
L 661.776923 54.306299 
L 667.142308 55.469572 
L 672.507692 53.328282 
L 677.873077 55.521261 
L 683.238462 57.153795 
L 688.603846 56.387405 
L 693.969231 57.103055 
L 699.334615 60.381331 
L 704.7 59.17427 
L 710.065385 59.993634 
L 715.430769 57.205758 
L 720.796154 54.59623 
L 726.161538 56.146771 
L 731.526923 54.109738 
L 736.892308 53.968313 
L 742.257692 55.055472 
L 747.623077 55.342687 
L 752.988462 56.470567 
L 758.353846 57.84205 
L 763.719231 56.201089 
L 769.084615 56.613751 
L 774.45 54.905981 
L 779.815385 55.593387 
L 785.180769 56.450531 
L 795.911538 52.570299 
L 801.276923 55.283929 
L 806.642308 58.695948 
L 817.373077 59.009397 
L 822.738462 56.531975 
L 828.103846 56.208002 
L 838.834615 54.593699 
L 844.2 55.896136 
L 849.565385 52.626289 
L 854.930769 54.873057 
L 860.296154 55.851101 
L 865.661538 57.478288 
L 871.026923 57.554935 
L 876.392308 55.985183 
L 881.757692 58.346691 
L 887.123077 54.951141 
L 892.488462 55.701691 
L 897.853846 53.08327 
L 903.219231 52.578365 
L 908.584615 52.985791 
L 913.95 52.571617 
L 919.315385 54.85936 
L 924.680769 54.729417 
L 930.046154 56.820724 
L 935.411538 56.904907 
L 940.776923 56.092389 
L 946.142308 57.78749 
L 951.507692 58.07781 
L 956.873077 57.648588 
L 962.238462 57.983932 
L 967.603846 59.300431 
L 972.969231 60.112632 
L 978.334615 56.713342 
L 983.7 54.766458 
L 989.065385 56.730888 
L 994.430769 56.029545 
L 999.796154 54.215584 
L 1005.161538 52.069886 
L 1010.526923 51.39498 
L 1015.892308 52.442423 
L 1021.257692 56.249759 
L 1026.623077 55.160292 
L 1031.988462 54.736475 
L 1037.353846 56.808479 
L 1042.719231 56.031588 
L 1048.084615 54.366047 
L 1053.45 54.136892 
L 1058.815385 52.928302 
L 1064.180769 54.242924 
L 1069.546154 51.368401 
L 1074.911538 53.402054 
L 1080.276923 54.028087 
L 1085.642308 55.471168 
L 1091.007692 57.502064 
L 1096.373077 58.44881 
L 1101.738462 56.598465 
L 1107.103846 52.65292 
L 1112.469231 55.033156 
L 1117.834615 54.756278 
L 1123.2 56.940193 
L 1128.565385 55.462447 
L 1133.930769 55.074189 
L 1139.296154 52.558448 
L 1144.661538 51.110771 
L 1150.026923 56.486018 
L 1155.392308 56.297672 
L 1160.757692 58.933521 
L 1166.123077 55.793434 
L 1171.488462 55.116616 
L 1176.853846 55.407638 
L 1182.219231 54.186176 
L 1187.584615 56.899268 
L 1192.95 53.367484 
L 1198.315385 52.793194 
L 1203.680769 52.746151 
L 1209.046154 54.737571 
L 1214.411538 53.25983 
L 1219.776923 54.046096 
L 1230.507692 57.041946 
L 1235.873077 56.034199 
L 1241.238462 55.188168 
L 1246.603846 53.742872 
L 1251.969231 52.498246 
L 1251.969231 52.498246 
" style="fill:none;stroke:#32cd32;stroke-linecap:round;stroke-width:1.75;"/>
   </g>
   <g id="line2d_26">
    <path clip-path="url(#p903f742206)" d="M 420.334615 280.414134 
L 420.334615 8.614134 
" style="fill:none;opacity:0.3;stroke:#000000;stroke-linecap:round;stroke-width:1.75;"/>
   </g>
   <g id="line2d_27">
    <path clip-path="url(#p903f742206)" d="M 699.334615 280.414134 
L 699.334615 8.614134 
" style="fill:none;opacity:0.3;stroke:#000000;stroke-linecap:round;stroke-width:1.75;"/>
   </g>
   <g id="line2d_28">
    <path clip-path="url(#p903f742206)" d="M 978.334615 280.414134 
L 978.334615 8.614134 
" style="fill:none;opacity:0.3;stroke:#000000;stroke-linecap:round;stroke-width:1.75;"/>
   </g>
   <g id="patch_3">
    <path d="M 141.334615 280.414134 
L 141.334615 8.614134 
" style="fill:none;"/>
   </g>
   <g id="patch_4">
    <path d="M 1257.334615 280.414134 
L 1257.334615 8.614134 
" style="fill:none;"/>
   </g>
   <g id="patch_5">
    <path d="M 141.334615 280.414134 
L 1257.334615 280.414134 
" style="fill:none;"/>
   </g>
   <g id="patch_6">
    <path d="M 141.334615 8.614134 
L 1257.334615 8.614134 
" style="fill:none;"/>
   </g>
   <g id="text_14">
    <!-- Insecure -->
    <defs>
     <path d="M 9.8125 72.90625 
L 19.671875 72.90625 
L 19.671875 0 
L 9.8125 0 
z
" id="DejaVuSans-49"/>
     <path d="M 54.890625 33.015625 
L 54.890625 0 
L 45.90625 0 
L 45.90625 32.71875 
Q 45.90625 40.484375 42.875 44.328125 
Q 39.84375 48.1875 33.796875 48.1875 
Q 26.515625 48.1875 22.3125 43.546875 
Q 18.109375 38.921875 18.109375 30.90625 
L 18.109375 0 
L 9.078125 0 
L 9.078125 54.6875 
L 18.109375 54.6875 
L 18.109375 46.1875 
Q 21.34375 51.125 25.703125 53.5625 
Q 30.078125 56 35.796875 56 
Q 45.21875 56 50.046875 50.171875 
Q 54.890625 44.34375 54.890625 33.015625 
z
" id="DejaVuSans-6e"/>
     <path d="M 48.78125 52.59375 
L 48.78125 44.1875 
Q 44.96875 46.296875 41.140625 47.34375 
Q 37.3125 48.390625 33.40625 48.390625 
Q 24.65625 48.390625 19.8125 42.84375 
Q 14.984375 37.3125 14.984375 27.296875 
Q 14.984375 17.28125 19.8125 11.734375 
Q 24.65625 6.203125 33.40625 6.203125 
Q 37.3125 6.203125 41.140625 7.25 
Q 44.96875 8.296875 48.78125 10.40625 
L 48.78125 2.09375 
Q 45.015625 0.34375 40.984375 -0.53125 
Q 36.96875 -1.421875 32.421875 -1.421875 
Q 20.0625 -1.421875 12.78125 6.34375 
Q 5.515625 14.109375 5.515625 27.296875 
Q 5.515625 40.671875 12.859375 48.328125 
Q 20.21875 56 33.015625 56 
Q 37.15625 56 41.109375 55.140625 
Q 45.0625 54.296875 48.78125 52.59375 
z
" id="DejaVuSans-63"/>
     <path d="M 8.5 21.578125 
L 8.5 54.6875 
L 17.484375 54.6875 
L 17.484375 21.921875 
Q 17.484375 14.15625 20.5 10.265625 
Q 23.53125 6.390625 29.59375 6.390625 
Q 36.859375 6.390625 41.078125 11.03125 
Q 45.3125 15.671875 45.3125 23.6875 
L 45.3125 54.6875 
L 54.296875 54.6875 
L 54.296875 0 
L 45.3125 0 
L 45.3125 8.40625 
Q 42.046875 3.421875 37.71875 1 
Q 33.40625 -1.421875 27.6875 -1.421875 
Q 18.265625 -1.421875 13.375 4.4375 
Q 8.5 10.296875 8.5 21.578125 
z
M 31.109375 56 
z
" id="DejaVuSans-75"/>
    </defs>
    <g style="fill:#262626;" transform="translate(7.2 22.396875)scale(0.2 -0.2)">
     <use xlink:href="#DejaVuSans-49"/>
     <use x="29.492188" xlink:href="#DejaVuSans-6e"/>
     <use x="92.871094" xlink:href="#DejaVuSans-73"/>
     <use x="144.970703" xlink:href="#DejaVuSans-65"/>
     <use x="206.494141" xlink:href="#DejaVuSans-63"/>
     <use x="261.474609" xlink:href="#DejaVuSans-75"/>
     <use x="324.853516" xlink:href="#DejaVuSans-72"/>
     <use x="365.935547" xlink:href="#DejaVuSans-65"/>
    </g>
   </g>
   <g id="text_15">
    <!-- Secure -->
    <g style="fill:#262626;" transform="translate(7.2 257.735757)scale(0.2 -0.2)">
     <use xlink:href="#DejaVuSans-53"/>
     <use x="63.476562" xlink:href="#DejaVuSans-65"/>
     <use x="125" xlink:href="#DejaVuSans-63"/>
     <use x="179.980469" xlink:href="#DejaVuSans-75"/>
     <use x="243.359375" xlink:href="#DejaVuSans-72"/>
     <use x="284.441406" xlink:href="#DejaVuSans-65"/>
    </g>
   </g>
   <g id="legend_1">
    <g id="line2d_29">
     <path d="M 149.334615 378.151009 
L 189.334615 378.151009 
" style="fill:none;stroke:#4b0082;stroke-linecap:round;stroke-width:1.75;"/>
    </g>
    <g id="line2d_30"/>
    <g id="text_16">
     <!-- immune -->
     <g style="fill:#262626;" transform="translate(205.334615 385.151009)scale(0.2 -0.2)">
      <use xlink:href="#DejaVuSans-69"/>
      <use x="27.783203" xlink:href="#DejaVuSans-6d"/>
      <use x="125.195312" xlink:href="#DejaVuSans-6d"/>
      <use x="222.607422" xlink:href="#DejaVuSans-75"/>
      <use x="285.986328" xlink:href="#DejaVuSans-6e"/>
      <use x="349.365234" xlink:href="#DejaVuSans-65"/>
     </g>
    </g>
    <g id="line2d_31">
     <path d="M 327.509615 378.151009 
L 367.509615 378.151009 
" style="fill:none;stroke:#ff0000;stroke-linecap:round;stroke-width:1.75;"/>
    </g>
    <g id="line2d_32"/>
    <g id="text_17">
     <!-- susceptible -->
     <defs>
      <path d="M 18.109375 8.203125 
L 18.109375 -20.796875 
L 9.078125 -20.796875 
L 9.078125 54.6875 
L 18.109375 54.6875 
L 18.109375 46.390625 
Q 20.953125 51.265625 25.265625 53.625 
Q 29.59375 56 35.59375 56 
Q 45.5625 56 51.78125 48.09375 
Q 58.015625 40.1875 58.015625 27.296875 
Q 58.015625 14.40625 51.78125 6.484375 
Q 45.5625 -1.421875 35.59375 -1.421875 
Q 29.59375 -1.421875 25.265625 0.953125 
Q 20.953125 3.328125 18.109375 8.203125 
z
M 48.6875 27.296875 
Q 48.6875 37.203125 44.609375 42.84375 
Q 40.53125 48.484375 33.40625 48.484375 
Q 26.265625 48.484375 22.1875 42.84375 
Q 18.109375 37.203125 18.109375 27.296875 
Q 18.109375 17.390625 22.1875 11.75 
Q 26.265625 6.109375 33.40625 6.109375 
Q 40.53125 6.109375 44.609375 11.75 
Q 48.6875 17.390625 48.6875 27.296875 
z
" id="DejaVuSans-70"/>
      <path d="M 18.3125 70.21875 
L 18.3125 54.6875 
L 36.8125 54.6875 
L 36.8125 47.703125 
L 18.3125 47.703125 
L 18.3125 18.015625 
Q 18.3125 11.328125 20.140625 9.421875 
Q 21.96875 7.515625 27.59375 7.515625 
L 36.8125 7.515625 
L 36.8125 0 
L 27.59375 0 
Q 17.1875 0 13.234375 3.875 
Q 9.28125 7.765625 9.28125 18.015625 
L 9.28125 47.703125 
L 2.6875 47.703125 
L 2.6875 54.6875 
L 9.28125 54.6875 
L 9.28125 70.21875 
z
" id="DejaVuSans-74"/>
      <path d="M 48.6875 27.296875 
Q 48.6875 37.203125 44.609375 42.84375 
Q 40.53125 48.484375 33.40625 48.484375 
Q 26.265625 48.484375 22.1875 42.84375 
Q 18.109375 37.203125 18.109375 27.296875 
Q 18.109375 17.390625 22.1875 11.75 
Q 26.265625 6.109375 33.40625 6.109375 
Q 40.53125 6.109375 44.609375 11.75 
Q 48.6875 17.390625 48.6875 27.296875 
z
M 18.109375 46.390625 
Q 20.953125 51.265625 25.265625 53.625 
Q 29.59375 56 35.59375 56 
Q 45.5625 56 51.78125 48.09375 
Q 58.015625 40.1875 58.015625 27.296875 
Q 58.015625 14.40625 51.78125 6.484375 
Q 45.5625 -1.421875 35.59375 -1.421875 
Q 29.59375 -1.421875 25.265625 0.953125 
Q 20.953125 3.328125 18.109375 8.203125 
L 18.109375 0 
L 9.078125 0 
L 9.078125 75.984375 
L 18.109375 75.984375 
z
" id="DejaVuSans-62"/>
      <path d="M 9.421875 75.984375 
L 18.40625 75.984375 
L 18.40625 0 
L 9.421875 0 
z
" id="DejaVuSans-6c"/>
     </defs>
     <g style="fill:#262626;" transform="translate(383.509615 385.151009)scale(0.2 -0.2)">
      <use xlink:href="#DejaVuSans-73"/>
      <use x="52.099609" xlink:href="#DejaVuSans-75"/>
      <use x="115.478516" xlink:href="#DejaVuSans-73"/>
      <use x="167.578125" xlink:href="#DejaVuSans-63"/>
      <use x="222.558594" xlink:href="#DejaVuSans-65"/>
      <use x="284.082031" xlink:href="#DejaVuSans-70"/>
      <use x="347.558594" xlink:href="#DejaVuSans-74"/>
      <use x="386.767578" xlink:href="#DejaVuSans-69"/>
      <use x="414.550781" xlink:href="#DejaVuSans-62"/>
      <use x="478.027344" xlink:href="#DejaVuSans-6c"/>
      <use x="505.810547" xlink:href="#DejaVuSans-65"/>
     </g>
    </g>
    <g id="line2d_33">
     <path d="M 536.978365 378.151009 
L 576.978365 378.151009 
" style="fill:none;stroke:#32cd32;stroke-linecap:round;stroke-width:1.75;"/>
    </g>
    <g id="line2d_34"/>
    <g id="text_18">
     <!-- highly susceptible -->
     <defs>
      <path d="M 54.890625 33.015625 
L 54.890625 0 
L 45.90625 0 
L 45.90625 32.71875 
Q 45.90625 40.484375 42.875 44.328125 
Q 39.84375 48.1875 33.796875 48.1875 
Q 26.515625 48.1875 22.3125 43.546875 
Q 18.109375 38.921875 18.109375 30.90625 
L 18.109375 0 
L 9.078125 0 
L 9.078125 75.984375 
L 18.109375 75.984375 
L 18.109375 46.1875 
Q 21.34375 51.125 25.703125 53.5625 
Q 30.078125 56 35.796875 56 
Q 45.21875 56 50.046875 50.171875 
Q 54.890625 44.34375 54.890625 33.015625 
z
" id="DejaVuSans-68"/>
      <path d="M 45.40625 27.984375 
Q 45.40625 37.75 41.375 43.109375 
Q 37.359375 48.484375 30.078125 48.484375 
Q 22.859375 48.484375 18.828125 43.109375 
Q 14.796875 37.75 14.796875 27.984375 
Q 14.796875 18.265625 18.828125 12.890625 
Q 22.859375 7.515625 30.078125 7.515625 
Q 37.359375 7.515625 41.375 12.890625 
Q 45.40625 18.265625 45.40625 27.984375 
z
M 54.390625 6.78125 
Q 54.390625 -7.171875 48.1875 -13.984375 
Q 42 -20.796875 29.203125 -20.796875 
Q 24.46875 -20.796875 20.265625 -20.09375 
Q 16.0625 -19.390625 12.109375 -17.921875 
L 12.109375 -9.1875 
Q 16.0625 -11.328125 19.921875 -12.34375 
Q 23.78125 -13.375 27.78125 -13.375 
Q 36.625 -13.375 41.015625 -8.765625 
Q 45.40625 -4.15625 45.40625 5.171875 
L 45.40625 9.625 
Q 42.625 4.78125 38.28125 2.390625 
Q 33.9375 0 27.875 0 
Q 17.828125 0 11.671875 7.65625 
Q 5.515625 15.328125 5.515625 27.984375 
Q 5.515625 40.671875 11.671875 48.328125 
Q 17.828125 56 27.875 56 
Q 33.9375 56 38.28125 53.609375 
Q 42.625 51.21875 45.40625 46.390625 
L 45.40625 54.6875 
L 54.390625 54.6875 
z
" id="DejaVuSans-67"/>
     </defs>
     <g style="fill:#262626;" transform="translate(592.978365 385.151009)scale(0.2 -0.2)">
      <use xlink:href="#DejaVuSans-68"/>
      <use x="63.378906" xlink:href="#DejaVuSans-69"/>
      <use x="91.162109" xlink:href="#DejaVuSans-67"/>
      <use x="154.638672" xlink:href="#DejaVuSans-68"/>
      <use x="218.017578" xlink:href="#DejaVuSans-6c"/>
      <use x="245.800781" xlink:href="#DejaVuSans-79"/>
      <use x="304.980469" xlink:href="#DejaVuSans-20"/>
      <use x="336.767578" xlink:href="#DejaVuSans-73"/>
      <use x="388.867188" xlink:href="#DejaVuSans-75"/>
      <use x="452.246094" xlink:href="#DejaVuSans-73"/>
      <use x="504.345703" xlink:href="#DejaVuSans-63"/>
      <use x="559.326172" xlink:href="#DejaVuSans-65"/>
      <use x="620.849609" xlink:href="#DejaVuSans-70"/>
      <use x="684.326172" xlink:href="#DejaVuSans-74"/>
      <use x="723.535156" xlink:href="#DejaVuSans-69"/>
      <use x="751.318359" xlink:href="#DejaVuSans-62"/>
      <use x="814.794922" xlink:href="#DejaVuSans-6c"/>
      <use x="842.578125" xlink:href="#DejaVuSans-65"/>
     </g>
    </g>
   </g>
  </g>
 </g>
 <defs>
  <clipPath id="p903f742206">
   <rect height="271.8" width="1116" x="141.334615" y="8.614134"/>
  </clipPath>
 </defs>
</svg>
