<?xml version="1.0" encoding="utf-8" standalone="no"?>
<!DOCTYPE svg PUBLIC "-//W3C//DTD SVG 1.1//EN"
  "http://www.w3.org/Graphics/SVG/1.1/DTD/svg11.dtd">
<!-- Created with matplotlib (http://matplotlib.org/) -->
<svg height="404pt" version="1.1" viewBox="0 0 1269 404" width="1269pt" xmlns="http://www.w3.org/2000/svg" xmlns:xlink="http://www.w3.org/1999/xlink">
 <defs>
  <style type="text/css">
*{stroke-linecap:butt;stroke-linejoin:round;}
  </style>
 </defs>
 <g id="figure_1">
  <g id="patch_1">
   <path d="M 0 404.683728 
L 1269.30649 404.683728 
L 1269.30649 0 
L 0 0 
z
" style="fill:#ffffff;"/>
  </g>
  <g id="axes_1">
   <g id="patch_2">
    <path d="M 141.334615 280.587478 
L 1257.334615 280.587478 
L 1257.334615 8.787478 
L 141.334615 8.787478 
z
" style="fill:#eaeaf2;"/>
   </g>
   <g id="matplotlib.axis_1">
    <g id="xtick_1">
     <g id="line2d_1">
      <path clip-path="url(#p9fadb40ebb)" d="M 141.334615 280.587478 
L 141.334615 8.787478 
" style="fill:none;stroke:#ffffff;stroke-linecap:round;"/>
     </g>
     <g id="line2d_2"/>
     <g id="text_1">
      <!-- 0 -->
      <defs>
       <path d="M 31.78125 66.40625 
Q 24.171875 66.40625 20.328125 58.90625 
Q 16.5 51.421875 16.5 36.375 
Q 16.5 21.390625 20.328125 13.890625 
Q 24.171875 6.390625 31.78125 6.390625 
Q 39.453125 6.390625 43.28125 13.890625 
Q 47.125 21.390625 47.125 36.375 
Q 47.125 51.421875 43.28125 58.90625 
Q 39.453125 66.40625 31.78125 66.40625 
z
M 31.78125 74.21875 
Q 44.046875 74.21875 50.515625 64.515625 
Q 56.984375 54.828125 56.984375 36.375 
Q 56.984375 17.96875 50.515625 8.265625 
Q 44.046875 -1.421875 31.78125 -1.421875 
Q 19.53125 -1.421875 13.0625 8.265625 
Q 6.59375 17.96875 6.59375 36.375 
Q 6.59375 54.828125 13.0625 64.515625 
Q 19.53125 74.21875 31.78125 74.21875 
z
" id="DejaVuSans-30"/>
      </defs>
      <g style="fill:#262626;" transform="translate(136.56274 298.985134)scale(0.15 -0.15)">
       <use xlink:href="#DejaVuSans-30"/>
      </g>
     </g>
    </g>
    <g id="xtick_2">
     <g id="line2d_3">
      <path clip-path="url(#p9fadb40ebb)" d="M 420.334615 280.587478 
L 420.334615 8.787478 
" style="fill:none;stroke:#ffffff;stroke-linecap:round;"/>
     </g>
     <g id="line2d_4"/>
     <g id="text_2">
      <!-- 1 -->
      <defs>
       <path d="M 12.40625 8.296875 
L 28.515625 8.296875 
L 28.515625 63.921875 
L 10.984375 60.40625 
L 10.984375 69.390625 
L 28.421875 72.90625 
L 38.28125 72.90625 
L 38.28125 8.296875 
L 54.390625 8.296875 
L 54.390625 0 
L 12.40625 0 
z
" id="DejaVuSans-31"/>
      </defs>
      <g style="fill:#262626;" transform="translate(415.56274 298.985134)scale(0.15 -0.15)">
       <use xlink:href="#DejaVuSans-31"/>
      </g>
     </g>
    </g>
    <g id="xtick_3">
     <g id="line2d_5">
      <path clip-path="url(#p9fadb40ebb)" d="M 699.334615 280.587478 
L 699.334615 8.787478 
" style="fill:none;stroke:#ffffff;stroke-linecap:round;"/>
     </g>
     <g id="line2d_6"/>
     <g id="text_3">
      <!-- 2 -->
      <defs>
       <path d="M 19.1875 8.296875 
L 53.609375 8.296875 
L 53.609375 0 
L 7.328125 0 
L 7.328125 8.296875 
Q 12.9375 14.109375 22.625 23.890625 
Q 32.328125 33.6875 34.8125 36.53125 
Q 39.546875 41.84375 41.421875 45.53125 
Q 43.3125 49.21875 43.3125 52.78125 
Q 43.3125 58.59375 39.234375 62.25 
Q 35.15625 65.921875 28.609375 65.921875 
Q 23.96875 65.921875 18.8125 64.3125 
Q 13.671875 62.703125 7.8125 59.421875 
L 7.8125 69.390625 
Q 13.765625 71.78125 18.9375 73 
Q 24.125 74.21875 28.421875 74.21875 
Q 39.75 74.21875 46.484375 68.546875 
Q 53.21875 62.890625 53.21875 53.421875 
Q 53.21875 48.921875 51.53125 44.890625 
Q 49.859375 40.875 45.40625 35.40625 
Q 44.1875 33.984375 37.640625 27.21875 
Q 31.109375 20.453125 19.1875 8.296875 
z
" id="DejaVuSans-32"/>
      </defs>
      <g style="fill:#262626;" transform="translate(694.56274 298.985134)scale(0.15 -0.15)">
       <use xlink:href="#DejaVuSans-32"/>
      </g>
     </g>
    </g>
    <g id="xtick_4">
     <g id="line2d_7">
      <path clip-path="url(#p9fadb40ebb)" d="M 978.334615 280.587478 
L 978.334615 8.787478 
" style="fill:none;stroke:#ffffff;stroke-linecap:round;"/>
     </g>
     <g id="line2d_8"/>
     <g id="text_4">
      <!-- 3 -->
      <defs>
       <path d="M 40.578125 39.3125 
Q 47.65625 37.796875 51.625 33 
Q 55.609375 28.21875 55.609375 21.1875 
Q 55.609375 10.40625 48.1875 4.484375 
Q 40.765625 -1.421875 27.09375 -1.421875 
Q 22.515625 -1.421875 17.65625 -0.515625 
Q 12.796875 0.390625 7.625 2.203125 
L 7.625 11.71875 
Q 11.71875 9.328125 16.59375 8.109375 
Q 21.484375 6.890625 26.8125 6.890625 
Q 36.078125 6.890625 40.9375 10.546875 
Q 45.796875 14.203125 45.796875 21.1875 
Q 45.796875 27.640625 41.28125 31.265625 
Q 36.765625 34.90625 28.71875 34.90625 
L 20.21875 34.90625 
L 20.21875 43.015625 
L 29.109375 43.015625 
Q 36.375 43.015625 40.234375 45.921875 
Q 44.09375 48.828125 44.09375 54.296875 
Q 44.09375 59.90625 40.109375 62.90625 
Q 36.140625 65.921875 28.71875 65.921875 
Q 24.65625 65.921875 20.015625 65.03125 
Q 15.375 64.15625 9.8125 62.3125 
L 9.8125 71.09375 
Q 15.4375 72.65625 20.34375 73.4375 
Q 25.25 74.21875 29.59375 74.21875 
Q 40.828125 74.21875 47.359375 69.109375 
Q 53.90625 64.015625 53.90625 55.328125 
Q 53.90625 49.265625 50.4375 45.09375 
Q 46.96875 40.921875 40.578125 39.3125 
z
" id="DejaVuSans-33"/>
      </defs>
      <g style="fill:#262626;" transform="translate(973.56274 298.985134)scale(0.15 -0.15)">
       <use xlink:href="#DejaVuSans-33"/>
      </g>
     </g>
    </g>
    <g id="xtick_5">
     <g id="line2d_9">
      <path clip-path="url(#p9fadb40ebb)" d="M 1257.334615 280.587478 
L 1257.334615 8.787478 
" style="fill:none;stroke:#ffffff;stroke-linecap:round;"/>
     </g>
     <g id="line2d_10"/>
     <g id="text_5">
      <!-- 4 -->
      <defs>
       <path d="M 37.796875 64.3125 
L 12.890625 25.390625 
L 37.796875 25.390625 
z
M 35.203125 72.90625 
L 47.609375 72.90625 
L 47.609375 25.390625 
L 58.015625 25.390625 
L 58.015625 17.1875 
L 47.609375 17.1875 
L 47.609375 0 
L 37.796875 0 
L 37.796875 17.1875 
L 4.890625 17.1875 
L 4.890625 26.703125 
z
" id="DejaVuSans-34"/>
      </defs>
      <g style="fill:#262626;" transform="translate(1252.56274 298.985134)scale(0.15 -0.15)">
       <use xlink:href="#DejaVuSans-34"/>
      </g>
     </g>
    </g>
    <g id="text_6">
     <!-- Time (years) -->
     <defs>
      <path d="M -0.296875 72.90625 
L 61.375 72.90625 
L 61.375 64.59375 
L 35.5 64.59375 
L 35.5 0 
L 25.59375 0 
L 25.59375 64.59375 
L -0.296875 64.59375 
z
" id="DejaVuSans-54"/>
      <path d="M 9.421875 54.6875 
L 18.40625 54.6875 
L 18.40625 0 
L 9.421875 0 
z
M 9.421875 75.984375 
L 18.40625 75.984375 
L 18.40625 64.59375 
L 9.421875 64.59375 
z
" id="DejaVuSans-69"/>
      <path d="M 52 44.1875 
Q 55.375 50.25 60.0625 53.125 
Q 64.75 56 71.09375 56 
Q 79.640625 56 84.28125 50.015625 
Q 88.921875 44.046875 88.921875 33.015625 
L 88.921875 0 
L 79.890625 0 
L 79.890625 32.71875 
Q 79.890625 40.578125 77.09375 44.375 
Q 74.3125 48.1875 68.609375 48.1875 
Q 61.625 48.1875 57.5625 43.546875 
Q 53.515625 38.921875 53.515625 30.90625 
L 53.515625 0 
L 44.484375 0 
L 44.484375 32.71875 
Q 44.484375 40.625 41.703125 44.40625 
Q 38.921875 48.1875 33.109375 48.1875 
Q 26.21875 48.1875 22.15625 43.53125 
Q 18.109375 38.875 18.109375 30.90625 
L 18.109375 0 
L 9.078125 0 
L 9.078125 54.6875 
L 18.109375 54.6875 
L 18.109375 46.1875 
Q 21.1875 51.21875 25.484375 53.609375 
Q 29.78125 56 35.6875 56 
Q 41.65625 56 45.828125 52.96875 
Q 50 49.953125 52 44.1875 
z
" id="DejaVuSans-6d"/>
      <path d="M 56.203125 29.59375 
L 56.203125 25.203125 
L 14.890625 25.203125 
Q 15.484375 15.921875 20.484375 11.0625 
Q 25.484375 6.203125 34.421875 6.203125 
Q 39.59375 6.203125 44.453125 7.46875 
Q 49.3125 8.734375 54.109375 11.28125 
L 54.109375 2.78125 
Q 49.265625 0.734375 44.1875 -0.34375 
Q 39.109375 -1.421875 33.890625 -1.421875 
Q 20.796875 -1.421875 13.15625 6.1875 
Q 5.515625 13.8125 5.515625 26.8125 
Q 5.515625 40.234375 12.765625 48.109375 
Q 20.015625 56 32.328125 56 
Q 43.359375 56 49.78125 48.890625 
Q 56.203125 41.796875 56.203125 29.59375 
z
M 47.21875 32.234375 
Q 47.125 39.59375 43.09375 43.984375 
Q 39.0625 48.390625 32.421875 48.390625 
Q 24.90625 48.390625 20.390625 44.140625 
Q 15.875 39.890625 15.1875 32.171875 
z
" id="DejaVuSans-65"/>
      <path id="DejaVuSans-20"/>
      <path d="M 31 75.875 
Q 24.46875 64.65625 21.28125 53.65625 
Q 18.109375 42.671875 18.109375 31.390625 
Q 18.109375 20.125 21.3125 9.0625 
Q 24.515625 -2 31 -13.1875 
L 23.1875 -13.1875 
Q 15.875 -1.703125 12.234375 9.375 
Q 8.59375 20.453125 8.59375 31.390625 
Q 8.59375 42.28125 12.203125 53.3125 
Q 15.828125 64.359375 23.1875 75.875 
z
" id="DejaVuSans-28"/>
      <path d="M 32.171875 -5.078125 
Q 28.375 -14.84375 24.75 -17.8125 
Q 21.140625 -20.796875 15.09375 -20.796875 
L 7.90625 -20.796875 
L 7.90625 -13.28125 
L 13.1875 -13.28125 
Q 16.890625 -13.28125 18.9375 -11.515625 
Q 21 -9.765625 23.484375 -3.21875 
L 25.09375 0.875 
L 2.984375 54.6875 
L 12.5 54.6875 
L 29.59375 11.921875 
L 46.6875 54.6875 
L 56.203125 54.6875 
z
" id="DejaVuSans-79"/>
      <path d="M 34.28125 27.484375 
Q 23.390625 27.484375 19.1875 25 
Q 14.984375 22.515625 14.984375 16.5 
Q 14.984375 11.71875 18.140625 8.90625 
Q 21.296875 6.109375 26.703125 6.109375 
Q 34.1875 6.109375 38.703125 11.40625 
Q 43.21875 16.703125 43.21875 25.484375 
L 43.21875 27.484375 
z
M 52.203125 31.203125 
L 52.203125 0 
L 43.21875 0 
L 43.21875 8.296875 
Q 40.140625 3.328125 35.546875 0.953125 
Q 30.953125 -1.421875 24.3125 -1.421875 
Q 15.921875 -1.421875 10.953125 3.296875 
Q 6 8.015625 6 15.921875 
Q 6 25.140625 12.171875 29.828125 
Q 18.359375 34.515625 30.609375 34.515625 
L 43.21875 34.515625 
L 43.21875 35.40625 
Q 43.21875 41.609375 39.140625 45 
Q 35.0625 48.390625 27.6875 48.390625 
Q 23 48.390625 18.546875 47.265625 
Q 14.109375 46.140625 10.015625 43.890625 
L 10.015625 52.203125 
Q 14.9375 54.109375 19.578125 55.046875 
Q 24.21875 56 28.609375 56 
Q 40.484375 56 46.34375 49.84375 
Q 52.203125 43.703125 52.203125 31.203125 
z
" id="DejaVuSans-61"/>
      <path d="M 41.109375 46.296875 
Q 39.59375 47.171875 37.8125 47.578125 
Q 36.03125 48 33.890625 48 
Q 26.265625 48 22.1875 43.046875 
Q 18.109375 38.09375 18.109375 28.8125 
L 18.109375 0 
L 9.078125 0 
L 9.078125 54.6875 
L 18.109375 54.6875 
L 18.109375 46.1875 
Q 20.953125 51.171875 25.484375 53.578125 
Q 30.03125 56 36.53125 56 
Q 37.453125 56 38.578125 55.875 
Q 39.703125 55.765625 41.0625 55.515625 
z
" id="DejaVuSans-72"/>
      <path d="M 44.28125 53.078125 
L 44.28125 44.578125 
Q 40.484375 46.53125 36.375 47.5 
Q 32.28125 48.484375 27.875 48.484375 
Q 21.1875 48.484375 17.84375 46.4375 
Q 14.5 44.390625 14.5 40.28125 
Q 14.5 37.15625 16.890625 35.375 
Q 19.28125 33.59375 26.515625 31.984375 
L 29.59375 31.296875 
Q 39.15625 29.25 43.1875 25.515625 
Q 47.21875 21.78125 47.21875 15.09375 
Q 47.21875 7.46875 41.1875 3.015625 
Q 35.15625 -1.421875 24.609375 -1.421875 
Q 20.21875 -1.421875 15.453125 -0.5625 
Q 10.6875 0.296875 5.421875 2 
L 5.421875 11.28125 
Q 10.40625 8.6875 15.234375 7.390625 
Q 20.0625 6.109375 24.8125 6.109375 
Q 31.15625 6.109375 34.5625 8.28125 
Q 37.984375 10.453125 37.984375 14.40625 
Q 37.984375 18.0625 35.515625 20.015625 
Q 33.0625 21.96875 24.703125 23.78125 
L 21.578125 24.515625 
Q 13.234375 26.265625 9.515625 29.90625 
Q 5.8125 33.546875 5.8125 39.890625 
Q 5.8125 47.609375 11.28125 51.796875 
Q 16.75 56 26.8125 56 
Q 31.78125 56 36.171875 55.265625 
Q 40.578125 54.546875 44.28125 53.078125 
z
" id="DejaVuSans-73"/>
      <path d="M 8.015625 75.875 
L 15.828125 75.875 
Q 23.140625 64.359375 26.78125 53.3125 
Q 30.421875 42.28125 30.421875 31.390625 
Q 30.421875 20.453125 26.78125 9.375 
Q 23.140625 -1.703125 15.828125 -13.1875 
L 8.015625 -13.1875 
Q 14.5 -2 17.703125 9.0625 
Q 20.90625 20.125 20.90625 31.390625 
Q 20.90625 42.671875 17.703125 53.65625 
Q 14.5 64.65625 8.015625 75.875 
z
" id="DejaVuSans-29"/>
     </defs>
     <g style="fill:#262626;" transform="translate(636.058053 321.301541)scale(0.2 -0.2)">
      <use xlink:href="#DejaVuSans-54"/>
      <use x="61.037109" xlink:href="#DejaVuSans-69"/>
      <use x="88.820312" xlink:href="#DejaVuSans-6d"/>
      <use x="186.232422" xlink:href="#DejaVuSans-65"/>
      <use x="247.755859" xlink:href="#DejaVuSans-20"/>
      <use x="279.542969" xlink:href="#DejaVuSans-28"/>
      <use x="318.556641" xlink:href="#DejaVuSans-79"/>
      <use x="377.736328" xlink:href="#DejaVuSans-65"/>
      <use x="439.259766" xlink:href="#DejaVuSans-61"/>
      <use x="500.539062" xlink:href="#DejaVuSans-72"/>
      <use x="541.652344" xlink:href="#DejaVuSans-73"/>
      <use x="593.751953" xlink:href="#DejaVuSans-29"/>
     </g>
    </g>
   </g>
   <g id="matplotlib.axis_2">
    <g id="ytick_1">
     <g id="line2d_11">
      <path clip-path="url(#p9fadb40ebb)" d="M 141.334615 280.587478 
L 1257.334615 280.587478 
" style="fill:none;stroke:#ffffff;stroke-linecap:round;"/>
     </g>
     <g id="line2d_12"/>
     <g id="text_7">
      <!-- 0.0 -->
      <defs>
       <path d="M 10.6875 12.40625 
L 21 12.40625 
L 21 0 
L 10.6875 0 
z
" id="DejaVuSans-2e"/>
      </defs>
      <g style="fill:#262626;" transform="translate(110.479928 286.286306)scale(0.15 -0.15)">
       <use xlink:href="#DejaVuSans-30"/>
       <use x="63.623047" xlink:href="#DejaVuSans-2e"/>
       <use x="95.410156" xlink:href="#DejaVuSans-30"/>
      </g>
     </g>
    </g>
    <g id="ytick_2">
     <g id="line2d_13">
      <path clip-path="url(#p9fadb40ebb)" d="M 141.334615 229.96187 
L 1257.334615 229.96187 
" style="fill:none;stroke:#ffffff;stroke-linecap:round;"/>
     </g>
     <g id="line2d_14"/>
     <g id="text_8">
      <!-- 0.2 -->
      <g style="fill:#262626;" transform="translate(110.479928 235.660698)scale(0.15 -0.15)">
       <use xlink:href="#DejaVuSans-30"/>
       <use x="63.623047" xlink:href="#DejaVuSans-2e"/>
       <use x="95.410156" xlink:href="#DejaVuSans-32"/>
      </g>
     </g>
    </g>
    <g id="ytick_3">
     <g id="line2d_15">
      <path clip-path="url(#p9fadb40ebb)" d="M 141.334615 179.336261 
L 1257.334615 179.336261 
" style="fill:none;stroke:#ffffff;stroke-linecap:round;"/>
     </g>
     <g id="line2d_16"/>
     <g id="text_9">
      <!-- 0.4 -->
      <g style="fill:#262626;" transform="translate(110.479928 185.035089)scale(0.15 -0.15)">
       <use xlink:href="#DejaVuSans-30"/>
       <use x="63.623047" xlink:href="#DejaVuSans-2e"/>
       <use x="95.410156" xlink:href="#DejaVuSans-34"/>
      </g>
     </g>
    </g>
    <g id="ytick_4">
     <g id="line2d_17">
      <path clip-path="url(#p9fadb40ebb)" d="M 141.334615 128.710653 
L 1257.334615 128.710653 
" style="fill:none;stroke:#ffffff;stroke-linecap:round;"/>
     </g>
     <g id="line2d_18"/>
     <g id="text_10">
      <!-- 0.6 -->
      <defs>
       <path d="M 33.015625 40.375 
Q 26.375 40.375 22.484375 35.828125 
Q 18.609375 31.296875 18.609375 23.390625 
Q 18.609375 15.53125 22.484375 10.953125 
Q 26.375 6.390625 33.015625 6.390625 
Q 39.65625 6.390625 43.53125 10.953125 
Q 47.40625 15.53125 47.40625 23.390625 
Q 47.40625 31.296875 43.53125 35.828125 
Q 39.65625 40.375 33.015625 40.375 
z
M 52.59375 71.296875 
L 52.59375 62.3125 
Q 48.875 64.0625 45.09375 64.984375 
Q 41.3125 65.921875 37.59375 65.921875 
Q 27.828125 65.921875 22.671875 59.328125 
Q 17.53125 52.734375 16.796875 39.40625 
Q 19.671875 43.65625 24.015625 45.921875 
Q 28.375 48.1875 33.59375 48.1875 
Q 44.578125 48.1875 50.953125 41.515625 
Q 57.328125 34.859375 57.328125 23.390625 
Q 57.328125 12.15625 50.6875 5.359375 
Q 44.046875 -1.421875 33.015625 -1.421875 
Q 20.359375 -1.421875 13.671875 8.265625 
Q 6.984375 17.96875 6.984375 36.375 
Q 6.984375 53.65625 15.1875 63.9375 
Q 23.390625 74.21875 37.203125 74.21875 
Q 40.921875 74.21875 44.703125 73.484375 
Q 48.484375 72.75 52.59375 71.296875 
z
" id="DejaVuSans-36"/>
      </defs>
      <g style="fill:#262626;" transform="translate(110.479928 134.409481)scale(0.15 -0.15)">
       <use xlink:href="#DejaVuSans-30"/>
       <use x="63.623047" xlink:href="#DejaVuSans-2e"/>
       <use x="95.410156" xlink:href="#DejaVuSans-36"/>
      </g>
     </g>
    </g>
    <g id="ytick_5">
     <g id="line2d_19">
      <path clip-path="url(#p9fadb40ebb)" d="M 141.334615 78.085044 
L 1257.334615 78.085044 
" style="fill:none;stroke:#ffffff;stroke-linecap:round;"/>
     </g>
     <g id="line2d_20"/>
     <g id="text_11">
      <!-- 0.8 -->
      <defs>
       <path d="M 31.78125 34.625 
Q 24.75 34.625 20.71875 30.859375 
Q 16.703125 27.09375 16.703125 20.515625 
Q 16.703125 13.921875 20.71875 10.15625 
Q 24.75 6.390625 31.78125 6.390625 
Q 38.8125 6.390625 42.859375 10.171875 
Q 46.921875 13.96875 46.921875 20.515625 
Q 46.921875 27.09375 42.890625 30.859375 
Q 38.875 34.625 31.78125 34.625 
z
M 21.921875 38.8125 
Q 15.578125 40.375 12.03125 44.71875 
Q 8.5 49.078125 8.5 55.328125 
Q 8.5 64.0625 14.71875 69.140625 
Q 20.953125 74.21875 31.78125 74.21875 
Q 42.671875 74.21875 48.875 69.140625 
Q 55.078125 64.0625 55.078125 55.328125 
Q 55.078125 49.078125 51.53125 44.71875 
Q 48 40.375 41.703125 38.8125 
Q 48.828125 37.15625 52.796875 32.3125 
Q 56.78125 27.484375 56.78125 20.515625 
Q 56.78125 9.90625 50.3125 4.234375 
Q 43.84375 -1.421875 31.78125 -1.421875 
Q 19.734375 -1.421875 13.25 4.234375 
Q 6.78125 9.90625 6.78125 20.515625 
Q 6.78125 27.484375 10.78125 32.3125 
Q 14.796875 37.15625 21.921875 38.8125 
z
M 18.3125 54.390625 
Q 18.3125 48.734375 21.84375 45.5625 
Q 25.390625 42.390625 31.78125 42.390625 
Q 38.140625 42.390625 41.71875 45.5625 
Q 45.3125 48.734375 45.3125 54.390625 
Q 45.3125 60.0625 41.71875 63.234375 
Q 38.140625 66.40625 31.78125 66.40625 
Q 25.390625 66.40625 21.84375 63.234375 
Q 18.3125 60.0625 18.3125 54.390625 
z
" id="DejaVuSans-38"/>
      </defs>
      <g style="fill:#262626;" transform="translate(110.479928 83.783872)scale(0.15 -0.15)">
       <use xlink:href="#DejaVuSans-30"/>
       <use x="63.623047" xlink:href="#DejaVuSans-2e"/>
       <use x="95.410156" xlink:href="#DejaVuSans-38"/>
      </g>
     </g>
    </g>
    <g id="ytick_6">
     <g id="line2d_21">
      <path clip-path="url(#p9fadb40ebb)" d="M 141.334615 27.459436 
L 1257.334615 27.459436 
" style="fill:none;stroke:#ffffff;stroke-linecap:round;"/>
     </g>
     <g id="line2d_22"/>
     <g id="text_12">
      <!-- 1.0 -->
      <g style="fill:#262626;" transform="translate(110.479928 33.158264)scale(0.15 -0.15)">
       <use xlink:href="#DejaVuSans-31"/>
       <use x="63.623047" xlink:href="#DejaVuSans-2e"/>
       <use x="95.410156" xlink:href="#DejaVuSans-30"/>
      </g>
     </g>
    </g>
    <g id="text_13">
     <!-- PoS -->
     <defs>
      <path d="M 19.671875 64.796875 
L 19.671875 37.40625 
L 32.078125 37.40625 
Q 38.96875 37.40625 42.71875 40.96875 
Q 46.484375 44.53125 46.484375 51.125 
Q 46.484375 57.671875 42.71875 61.234375 
Q 38.96875 64.796875 32.078125 64.796875 
z
M 9.8125 72.90625 
L 32.078125 72.90625 
Q 44.34375 72.90625 50.609375 67.359375 
Q 56.890625 61.8125 56.890625 51.125 
Q 56.890625 40.328125 50.609375 34.8125 
Q 44.34375 29.296875 32.078125 29.296875 
L 19.671875 29.296875 
L 19.671875 0 
L 9.8125 0 
z
" id="DejaVuSans-50"/>
      <path d="M 30.609375 48.390625 
Q 23.390625 48.390625 19.1875 42.75 
Q 14.984375 37.109375 14.984375 27.296875 
Q 14.984375 17.484375 19.15625 11.84375 
Q 23.34375 6.203125 30.609375 6.203125 
Q 37.796875 6.203125 41.984375 11.859375 
Q 46.1875 17.53125 46.1875 27.296875 
Q 46.1875 37.015625 41.984375 42.703125 
Q 37.796875 48.390625 30.609375 48.390625 
z
M 30.609375 56 
Q 42.328125 56 49.015625 48.375 
Q 55.71875 40.765625 55.71875 27.296875 
Q 55.71875 13.875 49.015625 6.21875 
Q 42.328125 -1.421875 30.609375 -1.421875 
Q 18.84375 -1.421875 12.171875 6.21875 
Q 5.515625 13.875 5.515625 27.296875 
Q 5.515625 40.765625 12.171875 48.375 
Q 18.84375 56 30.609375 56 
z
" id="DejaVuSans-6f"/>
      <path d="M 53.515625 70.515625 
L 53.515625 60.890625 
Q 47.90625 63.578125 42.921875 64.890625 
Q 37.9375 66.21875 33.296875 66.21875 
Q 25.25 66.21875 20.875 63.09375 
Q 16.5 59.96875 16.5 54.203125 
Q 16.5 49.359375 19.40625 46.890625 
Q 22.3125 44.4375 30.421875 42.921875 
L 36.375 41.703125 
Q 47.40625 39.59375 52.65625 34.296875 
Q 57.90625 29 57.90625 20.125 
Q 57.90625 9.515625 50.796875 4.046875 
Q 43.703125 -1.421875 29.984375 -1.421875 
Q 24.8125 -1.421875 18.96875 -0.25 
Q 13.140625 0.921875 6.890625 3.21875 
L 6.890625 13.375 
Q 12.890625 10.015625 18.65625 8.296875 
Q 24.421875 6.59375 29.984375 6.59375 
Q 38.421875 6.59375 43.015625 9.90625 
Q 47.609375 13.234375 47.609375 19.390625 
Q 47.609375 24.75 44.3125 27.78125 
Q 41.015625 30.8125 33.5 32.328125 
L 27.484375 33.5 
Q 16.453125 35.6875 11.515625 40.375 
Q 6.59375 45.0625 6.59375 53.421875 
Q 6.59375 63.09375 13.40625 68.65625 
Q 20.21875 74.21875 32.171875 74.21875 
Q 37.3125 74.21875 42.625 73.28125 
Q 47.953125 72.359375 53.515625 70.515625 
z
" id="DejaVuSans-53"/>
     </defs>
     <g style="fill:#262626;" transform="translate(102.320553 163.179666)rotate(-90)scale(0.2 -0.2)">
      <use xlink:href="#DejaVuSans-50"/>
      <use x="60.255859" xlink:href="#DejaVuSans-6f"/>
      <use x="121.4375" xlink:href="#DejaVuSans-53"/>
     </g>
    </g>
   </g>
   <g id="PolyCollection_1">
    <path clip-path="url(#p9fadb40ebb)" d="M 141.334615 130.806824 
L 141.334615 230.942166 
L 146.7 231.069257 
L 152.065385 230.835592 
L 157.430769 232.225535 
L 162.796154 231.887501 
L 168.161538 232.384881 
L 173.526923 231.741551 
L 178.892308 230.403237 
L 184.257692 227.652366 
L 189.623077 228.537209 
L 194.988462 226.77125 
L 200.353846 224.66384 
L 205.719231 224.768071 
L 211.084615 226.090507 
L 216.45 224.707146 
L 221.815385 223.813209 
L 227.180769 224.347746 
L 232.546154 223.917791 
L 237.911538 225.06877 
L 243.276923 223.925044 
L 248.642308 223.555153 
L 254.007692 225.456554 
L 259.373077 227.346341 
L 264.738462 229.025965 
L 270.103846 230.083544 
L 275.469231 230.750274 
L 280.834615 231.416039 
L 286.2 231.02662 
L 291.565385 231.006696 
L 296.930769 231.910235 
L 302.296154 232.664174 
L 307.661538 232.9393 
L 313.026923 232.684026 
L 318.392308 231.892459 
L 323.757692 230.170166 
L 329.123077 229.277097 
L 334.488462 227.026692 
L 339.853846 227.192943 
L 345.219231 227.616156 
L 350.584615 229.039139 
L 355.95 229.455913 
L 361.315385 230.275747 
L 366.680769 229.13505 
L 372.046154 229.244704 
L 377.411538 229.167534 
L 382.776923 227.652942 
L 388.142308 227.118719 
L 393.507692 228.037583 
L 398.873077 228.18278 
L 404.238462 229.267353 
L 409.603846 229.5208 
L 414.969231 231.488276 
L 420.334615 232.289795 
L 425.7 234.028758 
L 431.065385 234.184667 
L 436.430769 233.129875 
L 441.796154 232.546293 
L 447.161538 232.170207 
L 452.526923 229.652349 
L 457.892308 229.821581 
L 463.257692 229.215908 
L 468.623077 226.284318 
L 473.988462 224.029685 
L 479.353846 221.713502 
L 484.719231 223.69285 
L 490.084615 226.345305 
L 495.45 227.769963 
L 500.815385 227.944258 
L 506.180769 227.530978 
L 511.546154 229.150962 
L 516.911538 229.435619 
L 522.276923 227.867426 
L 527.642308 228.584273 
L 533.007692 230.167636 
L 538.373077 229.548105 
L 543.738462 230.480512 
L 549.103846 230.722003 
L 554.469231 232.035144 
L 559.834615 234.525538 
L 565.2 233.543967 
L 570.565385 230.697585 
L 575.930769 231.229096 
L 581.296154 230.110956 
L 586.661538 229.5436 
L 592.026923 229.724891 
L 597.392308 229.346683 
L 602.757692 229.008504 
L 608.123077 229.213194 
L 613.488462 229.458785 
L 618.853846 229.321823 
L 624.219231 231.293679 
L 629.584615 231.634094 
L 634.95 230.79355 
L 640.315385 229.766159 
L 645.680769 229.842841 
L 651.046154 229.673663 
L 656.411538 229.200689 
L 661.776923 229.969088 
L 667.142308 227.146125 
L 672.507692 228.478883 
L 677.873077 228.492551 
L 683.238462 228.261524 
L 688.603846 227.953107 
L 693.969231 228.891815 
L 699.334615 229.380924 
L 704.7 231.175 
L 710.065385 228.933602 
L 715.430769 227.979152 
L 720.796154 230.082749 
L 726.161538 231.511912 
L 731.526923 230.98043 
L 736.892308 230.208487 
L 742.257692 230.782539 
L 747.623077 231.313972 
L 752.988462 231.683454 
L 758.353846 233.589271 
L 763.719231 233.452651 
L 769.084615 232.664934 
L 774.45 233.611913 
L 779.815385 232.531329 
L 785.180769 232.922274 
L 790.546154 232.545161 
L 795.911538 233.80344 
L 801.276923 235.388907 
L 806.642308 233.185344 
L 812.007692 232.14347 
L 817.373077 233.037896 
L 822.738462 229.976765 
L 828.103846 230.525816 
L 833.469231 228.589893 
L 838.834615 228.728705 
L 844.2 229.710221 
L 849.565385 230.222768 
L 854.930769 230.51695 
L 860.296154 228.019712 
L 865.661538 230.375762 
L 871.026923 230.852866 
L 876.392308 230.234363 
L 881.757692 230.16006 
L 887.123077 229.440767 
L 892.488462 230.028989 
L 897.853846 230.595158 
L 903.219231 231.698135 
L 908.584615 231.837383 
L 913.95 231.775879 
L 919.315385 230.889044 
L 924.680769 229.830541 
L 930.046154 229.96922 
L 935.411538 229.740202 
L 940.776923 229.105661 
L 946.142308 228.667353 
L 951.507692 230.49051 
L 956.873077 230.503195 
L 962.238462 229.287009 
L 967.603846 229.248633 
L 972.969231 228.283809 
L 978.334615 230.945988 
L 983.7 231.261323 
L 989.065385 232.244772 
L 994.430769 230.396903 
L 999.796154 230.010225 
L 1005.161538 226.842482 
L 1010.526923 229.267703 
L 1015.892308 230.826404 
L 1021.257692 232.010231 
L 1026.623077 233.029887 
L 1031.988462 232.665861 
L 1037.353846 233.891221 
L 1042.719231 232.311538 
L 1048.084615 230.215469 
L 1053.45 231.969889 
L 1058.815385 233.798252 
L 1064.180769 233.809162 
L 1069.546154 231.569059 
L 1074.911538 231.059801 
L 1080.276923 230.577271 
L 1085.642308 230.271273 
L 1091.007692 230.528074 
L 1096.373077 229.325756 
L 1101.738462 230.778875 
L 1107.103846 230.341947 
L 1112.469231 232.401302 
L 1117.834615 231.504829 
L 1123.2 231.819143 
L 1128.565385 233.267324 
L 1133.930769 231.989989 
L 1139.296154 233.382141 
L 1144.661538 233.003752 
L 1150.026923 231.111266 
L 1155.392308 230.57789 
L 1160.757692 230.239778 
L 1166.123077 230.470255 
L 1171.488462 229.092433 
L 1176.853846 229.08068 
L 1182.219231 228.037451 
L 1187.584615 228.825611 
L 1192.95 227.919246 
L 1198.315385 225.683579 
L 1203.680769 226.252133 
L 1209.046154 224.912716 
L 1214.411538 224.478103 
L 1219.776923 226.138094 
L 1225.142308 227.554729 
L 1230.507692 228.316392 
L 1235.873077 229.300191 
L 1241.238462 229.261031 
L 1246.603846 231.617557 
L 1251.969231 232.44258 
L 1251.969231 133.381303 
L 1251.969231 133.381303 
L 1246.603846 130.012704 
L 1241.238462 130.908877 
L 1235.873077 130.263591 
L 1230.507692 129.008388 
L 1225.142308 127.192443 
L 1219.776923 128.718756 
L 1214.411538 126.544409 
L 1209.046154 126.194853 
L 1203.680769 127.192974 
L 1198.315385 127.938075 
L 1192.95 129.667974 
L 1187.584615 129.63836 
L 1182.219231 127.019449 
L 1176.853846 128.126728 
L 1171.488462 127.140046 
L 1166.123077 128.739416 
L 1160.757692 128.78557 
L 1155.392308 130.583322 
L 1150.026923 134.586438 
L 1144.661538 133.600014 
L 1139.296154 136.286388 
L 1133.930769 132.348322 
L 1128.565385 133.399386 
L 1123.2 132.905028 
L 1117.834615 134.89606 
L 1112.469231 134.794552 
L 1107.103846 133.902598 
L 1101.738462 135.749593 
L 1096.373077 130.625576 
L 1091.007692 133.769383 
L 1085.642308 132.573014 
L 1080.276923 131.928887 
L 1074.911538 130.089737 
L 1069.546154 128.870304 
L 1064.180769 129.870808 
L 1058.815385 131.43204 
L 1053.45 128.665024 
L 1048.084615 128.271478 
L 1042.719231 132.410972 
L 1037.353846 134.73043 
L 1031.988462 133.571581 
L 1026.623077 131.787709 
L 1021.257692 133.99816 
L 1015.892308 131.931442 
L 1010.526923 130.059685 
L 1005.161538 133.967109 
L 999.796154 133.605605 
L 994.430769 131.147741 
L 989.065385 129.84124 
L 983.7 130.66811 
L 978.334615 131.355579 
L 972.969231 132.475227 
L 967.603846 132.976366 
L 962.238462 131.043145 
L 956.873077 130.662238 
L 951.507692 130.331765 
L 946.142308 132.706844 
L 940.776923 133.537703 
L 935.411538 134.023774 
L 930.046154 130.078329 
L 924.680769 130.290904 
L 919.315385 130.913898 
L 913.95 130.679351 
L 908.584615 135.334727 
L 903.219231 135.504666 
L 897.853846 133.32403 
L 892.488462 132.805511 
L 887.123077 130.732223 
L 881.757692 132.352904 
L 876.392308 134.190591 
L 871.026923 131.349061 
L 865.661538 131.06418 
L 860.296154 134.479251 
L 854.930769 133.752904 
L 849.565385 132.096859 
L 844.2 135.048421 
L 838.834615 132.482254 
L 833.469231 133.316363 
L 828.103846 132.852848 
L 822.738462 129.556648 
L 817.373077 132.537603 
L 812.007692 133.930142 
L 806.642308 132.8496 
L 801.276923 134.195015 
L 795.911538 132.969491 
L 790.546154 137.217782 
L 785.180769 137.559845 
L 779.815385 132.44616 
L 774.45 135.176677 
L 769.084615 135.501725 
L 763.719231 134.042506 
L 758.353846 135.347022 
L 752.988462 131.785634 
L 747.623077 131.682897 
L 742.257692 133.676096 
L 736.892308 134.347949 
L 731.526923 131.170882 
L 726.161538 129.702138 
L 720.796154 131.151478 
L 715.430769 129.981643 
L 710.065385 128.749701 
L 704.7 131.445064 
L 699.334615 129.593265 
L 693.969231 128.531575 
L 688.603846 125.459711 
L 683.238462 125.847609 
L 677.873077 131.531892 
L 672.507692 127.793348 
L 667.142308 128.86887 
L 661.776923 125.714018 
L 656.411538 126.814293 
L 651.046154 129.044501 
L 645.680769 130.288328 
L 640.315385 130.127765 
L 634.95 126.937951 
L 629.584615 131.527042 
L 624.219231 133.580297 
L 618.853846 131.178888 
L 613.488462 129.946208 
L 608.123077 132.315093 
L 602.757692 133.452487 
L 597.392308 131.606375 
L 592.026923 132.785256 
L 586.661538 132.275417 
L 581.296154 135.079712 
L 575.930769 132.252647 
L 570.565385 131.545554 
L 565.2 131.156189 
L 559.834615 134.868129 
L 554.469231 135.429841 
L 549.103846 131.55058 
L 543.738462 127.727864 
L 538.373077 129.05995 
L 533.007692 129.13696 
L 527.642308 129.131375 
L 522.276923 129.631042 
L 516.911538 132.545076 
L 511.546154 129.588414 
L 506.180769 132.329687 
L 500.815385 130.2575 
L 495.45 132.797831 
L 490.084615 131.970669 
L 484.719231 131.895385 
L 479.353846 128.749765 
L 473.988462 126.685052 
L 468.623077 126.806813 
L 463.257692 127.88066 
L 457.892308 131.158193 
L 452.526923 129.700515 
L 447.161538 126.819487 
L 441.796154 125.910567 
L 436.430769 128.603414 
L 431.065385 130.141194 
L 425.7 131.945073 
L 420.334615 130.783514 
L 414.969231 134.617594 
L 409.603846 129.713541 
L 404.238462 130.104392 
L 398.873077 130.653411 
L 393.507692 128.607783 
L 388.142308 126.89774 
L 382.776923 130.808339 
L 377.411538 130.445688 
L 372.046154 129.144991 
L 366.680769 132.319145 
L 361.315385 131.948379 
L 355.95 132.025104 
L 350.584615 130.732073 
L 345.219231 129.630725 
L 339.853846 131.469666 
L 334.488462 128.845693 
L 329.123077 130.754382 
L 323.757692 132.794458 
L 318.392308 132.112184 
L 313.026923 131.900229 
L 307.661538 132.909129 
L 302.296154 133.8033 
L 296.930769 133.128292 
L 291.565385 133.16585 
L 286.2 132.721858 
L 280.834615 133.244682 
L 275.469231 132.385905 
L 270.103846 134.351898 
L 264.738462 135.080871 
L 259.373077 135.769232 
L 254.007692 134.857267 
L 248.642308 132.056801 
L 243.276923 130.466188 
L 237.911538 130.693355 
L 232.546154 133.066379 
L 227.180769 132.04867 
L 221.815385 130.065638 
L 216.45 126.358479 
L 211.084615 129.080086 
L 205.719231 126.841715 
L 200.353846 125.85056 
L 194.988462 128.462097 
L 189.623077 129.286083 
L 184.257692 128.072409 
L 178.892308 131.130337 
L 173.526923 128.625284 
L 168.161538 131.641698 
L 162.796154 130.33846 
L 157.430769 132.886049 
L 152.065385 132.913211 
L 146.7 130.076365 
L 141.334615 130.806824 
z
" style="fill:#4b0082;fill-opacity:0.2;"/>
   </g>
   <g id="PolyCollection_2">
    <path clip-path="url(#p9fadb40ebb)" d="M 141.334615 82.220509 
L 141.334615 202.999295 
L 146.7 202.307541 
L 152.065385 200.894269 
L 157.430769 199.905961 
L 162.796154 200.217661 
L 168.161538 201.504883 
L 173.526923 202.599712 
L 178.892308 202.659368 
L 184.257692 206.11027 
L 189.623077 207.632757 
L 194.988462 208.767505 
L 200.353846 207.88885 
L 205.719231 205.471015 
L 211.084615 204.724483 
L 216.45 203.862067 
L 221.815385 203.449337 
L 227.180769 203.888455 
L 232.546154 206.892173 
L 237.911538 208.066086 
L 243.276923 206.362736 
L 248.642308 202.101783 
L 254.007692 201.245666 
L 259.373077 202.327276 
L 264.738462 203.943665 
L 270.103846 203.441095 
L 275.469231 204.683211 
L 280.834615 205.445608 
L 286.2 206.468932 
L 291.565385 206.999834 
L 296.930769 208.106234 
L 302.296154 208.63876 
L 307.661538 210.473287 
L 313.026923 209.237689 
L 318.392308 205.913387 
L 323.757692 208.344602 
L 329.123077 205.030945 
L 334.488462 205.175446 
L 339.853846 205.864365 
L 345.219231 207.057826 
L 350.584615 207.99063 
L 355.95 208.034217 
L 361.315385 206.517821 
L 366.680769 205.705639 
L 372.046154 207.751995 
L 377.411538 206.325377 
L 382.776923 206.223187 
L 388.142308 210.592285 
L 393.507692 212.062622 
L 398.873077 214.265315 
L 404.238462 217.215798 
L 409.603846 219.031706 
L 414.969231 216.606815 
L 420.334615 214.708326 
L 425.7 214.564904 
L 431.065385 211.369731 
L 436.430769 208.17269 
L 441.796154 207.292332 
L 447.161538 206.580793 
L 452.526923 206.939789 
L 457.892308 203.577731 
L 463.257692 205.459105 
L 468.623077 209.614432 
L 473.988462 212.188206 
L 479.353846 215.038338 
L 484.719231 212.538383 
L 490.084615 212.962018 
L 495.45 209.724305 
L 500.815385 210.929895 
L 506.180769 210.095116 
L 511.546154 209.325686 
L 516.911538 208.466554 
L 522.276923 209.095152 
L 527.642308 210.529294 
L 533.007692 208.041102 
L 538.373077 210.213791 
L 543.738462 212.045708 
L 549.103846 208.442477 
L 554.469231 206.026063 
L 559.834615 202.552132 
L 565.2 202.376035 
L 570.565385 203.103433 
L 575.930769 204.632621 
L 581.296154 203.463073 
L 586.661538 205.149406 
L 592.026923 205.393848 
L 597.392308 206.275349 
L 602.757692 208.146197 
L 608.123077 209.355896 
L 613.488462 210.083086 
L 618.853846 211.300448 
L 624.219231 206.21853 
L 629.584615 206.048108 
L 634.95 205.211883 
L 640.315385 207.730776 
L 645.680769 208.189734 
L 651.046154 209.753496 
L 656.411538 213.476944 
L 661.776923 212.135729 
L 667.142308 213.953498 
L 672.507692 213.946752 
L 677.873077 211.839441 
L 683.238462 213.458601 
L 688.603846 212.752871 
L 693.969231 210.716742 
L 699.334615 206.369488 
L 704.7 204.579144 
L 710.065385 204.134075 
L 715.430769 206.391044 
L 720.796154 208.115173 
L 726.161538 208.083098 
L 731.526923 208.187681 
L 736.892308 207.91887 
L 742.257692 205.713756 
L 747.623077 205.80236 
L 752.988462 207.338642 
L 758.353846 205.309471 
L 763.719231 207.392755 
L 769.084615 207.684849 
L 774.45 209.789007 
L 779.815385 212.897424 
L 785.180769 212.661607 
L 790.546154 213.135545 
L 795.911538 214.045011 
L 801.276923 212.047172 
L 806.642308 213.207104 
L 812.007692 211.870896 
L 817.373077 209.774766 
L 822.738462 208.854069 
L 828.103846 206.94269 
L 833.469231 204.114948 
L 838.834615 207.870587 
L 844.2 208.323613 
L 849.565385 209.236224 
L 854.930769 209.169738 
L 860.296154 209.267213 
L 865.661538 210.880404 
L 871.026923 208.406751 
L 876.392308 208.821237 
L 881.757692 210.012737 
L 887.123077 209.836218 
L 892.488462 210.757762 
L 897.853846 210.721965 
L 903.219231 209.908037 
L 908.584615 208.058074 
L 913.95 210.127276 
L 919.315385 211.899595 
L 924.680769 210.860192 
L 930.046154 210.166248 
L 935.411538 208.378852 
L 940.776923 209.014065 
L 946.142308 208.666694 
L 951.507692 208.789758 
L 956.873077 209.080929 
L 962.238462 209.397477 
L 967.603846 209.663164 
L 972.969231 211.603976 
L 978.334615 210.333938 
L 983.7 211.336538 
L 989.065385 210.590288 
L 994.430769 211.867598 
L 999.796154 212.561105 
L 1005.161538 213.037646 
L 1010.526923 214.395863 
L 1015.892308 213.458438 
L 1021.257692 212.623145 
L 1026.623077 213.764171 
L 1031.988462 213.769719 
L 1037.353846 213.212074 
L 1042.719231 213.390554 
L 1048.084615 215.37233 
L 1053.45 213.762834 
L 1058.815385 210.376841 
L 1064.180769 210.413239 
L 1069.546154 209.531406 
L 1074.911538 210.199383 
L 1080.276923 211.820487 
L 1085.642308 209.960501 
L 1091.007692 207.432348 
L 1096.373077 209.432393 
L 1101.738462 209.496162 
L 1107.103846 210.204278 
L 1112.469231 209.803198 
L 1117.834615 211.362237 
L 1123.2 209.636986 
L 1128.565385 204.530103 
L 1133.930769 204.533892 
L 1139.296154 201.886759 
L 1144.661538 202.126372 
L 1150.026923 201.99025 
L 1155.392308 202.865179 
L 1160.757692 204.903724 
L 1166.123077 203.361418 
L 1171.488462 204.328066 
L 1176.853846 206.727333 
L 1182.219231 207.829579 
L 1187.584615 209.093771 
L 1192.95 210.523386 
L 1198.315385 213.503904 
L 1203.680769 213.57753 
L 1209.046154 214.710361 
L 1214.411538 213.60181 
L 1219.776923 212.962016 
L 1225.142308 213.88632 
L 1230.507692 209.111644 
L 1235.873077 206.738502 
L 1241.238462 206.134097 
L 1246.603846 208.829114 
L 1251.969231 208.020898 
L 1251.969231 80.890837 
L 1251.969231 80.890837 
L 1246.603846 90.498215 
L 1241.238462 87.087251 
L 1235.873077 90.532865 
L 1230.507692 86.032443 
L 1225.142308 89.184908 
L 1219.776923 89.928463 
L 1214.411538 87.295392 
L 1209.046154 91.736851 
L 1203.680769 93.809648 
L 1198.315385 95.863707 
L 1192.95 96.417784 
L 1187.584615 93.843218 
L 1182.219231 92.171726 
L 1176.853846 91.685344 
L 1171.488462 92.852133 
L 1166.123077 89.795137 
L 1160.757692 90.0764 
L 1155.392308 86.395946 
L 1150.026923 87.38358 
L 1144.661538 85.773967 
L 1139.296154 85.693075 
L 1133.930769 87.907441 
L 1128.565385 81.727015 
L 1123.2 84.383598 
L 1117.834615 88.704857 
L 1112.469231 94.799163 
L 1107.103846 92.030689 
L 1101.738462 89.748948 
L 1096.373077 96.083291 
L 1091.007692 90.692812 
L 1085.642308 90.210536 
L 1080.276923 88.419011 
L 1074.911538 89.921479 
L 1069.546154 91.202105 
L 1064.180769 88.318212 
L 1058.815385 84.040013 
L 1053.45 90.914535 
L 1048.084615 90.906946 
L 1042.719231 94.292616 
L 1037.353846 92.887877 
L 1031.988462 94.050205 
L 1026.623077 92.784512 
L 1021.257692 93.355074 
L 1015.892308 94.180495 
L 1010.526923 94.386017 
L 1005.161538 96.477575 
L 999.796154 94.952706 
L 994.430769 95.020703 
L 989.065385 90.017187 
L 983.7 89.107557 
L 978.334615 91.181297 
L 972.969231 95.69462 
L 967.603846 93.920755 
L 962.238462 90.375919 
L 956.873077 84.615522 
L 951.507692 84.317385 
L 946.142308 80.488747 
L 940.776923 88.078591 
L 935.411538 84.103335 
L 930.046154 89.343169 
L 924.680769 89.126254 
L 919.315385 93.754859 
L 913.95 88.117164 
L 908.584615 85.073423 
L 903.219231 91.188452 
L 897.853846 88.310464 
L 892.488462 92.853373 
L 887.123077 90.365727 
L 881.757692 89.002802 
L 876.392308 88.033382 
L 871.026923 88.540222 
L 865.661538 93.053497 
L 860.296154 90.841726 
L 854.930769 89.532307 
L 849.565385 92.953274 
L 844.2 86.397227 
L 838.834615 87.403945 
L 833.469231 86.815044 
L 828.103846 85.717033 
L 822.738462 85.866853 
L 817.373077 79.882455 
L 812.007692 85.673667 
L 806.642308 91.824931 
L 801.276923 94.589304 
L 795.911538 95.465968 
L 790.546154 98.359895 
L 785.180769 98.15054 
L 779.815385 97.305527 
L 774.45 91.499849 
L 769.084615 90.003954 
L 763.719231 90.992988 
L 758.353846 90.000582 
L 752.988462 89.83692 
L 747.623077 85.359788 
L 742.257692 81.112493 
L 736.892308 85.280061 
L 731.526923 93.032635 
L 726.161538 95.417696 
L 720.796154 90.602769 
L 715.430769 90.534782 
L 710.065385 84.47579 
L 704.7 80.941339 
L 699.334615 83.518719 
L 693.969231 86.084495 
L 688.603846 87.849535 
L 683.238462 94.012946 
L 677.873077 89.168505 
L 672.507692 87.700974 
L 667.142308 94.146515 
L 661.776923 96.565654 
L 656.411538 96.551129 
L 651.046154 98.159728 
L 645.680769 94.83474 
L 640.315385 92.734014 
L 634.95 89.694861 
L 629.584615 89.914823 
L 624.219231 85.503412 
L 618.853846 92.22227 
L 613.488462 91.464599 
L 608.123077 91.396286 
L 602.757692 94.032373 
L 597.392308 93.884374 
L 592.026923 92.543694 
L 586.661538 86.056009 
L 581.296154 84.03662 
L 575.930769 87.193011 
L 570.565385 84.929578 
L 565.2 86.241238 
L 559.834615 82.166339 
L 554.469231 81.895555 
L 549.103846 87.486236 
L 543.738462 92.541839 
L 538.373077 93.739041 
L 533.007692 91.128547 
L 527.642308 86.214829 
L 522.276923 83.694749 
L 516.911538 81.615943 
L 511.546154 88.232753 
L 506.180769 90.98867 
L 500.815385 88.122812 
L 495.45 84.481102 
L 490.084615 87.009254 
L 484.719231 91.991651 
L 479.353846 93.238094 
L 473.988462 90.804422 
L 468.623077 88.97069 
L 463.257692 85.522951 
L 457.892308 84.861945 
L 452.526923 83.805156 
L 447.161538 89.80164 
L 441.796154 90.087174 
L 436.430769 84.882813 
L 431.065385 82.808474 
L 425.7 85.066702 
L 420.334615 83.804712 
L 414.969231 87.510365 
L 409.603846 93.378255 
L 404.238462 95.105677 
L 398.873077 96.024233 
L 393.507692 96.951397 
L 388.142308 98.138038 
L 382.776923 90.924224 
L 377.411538 91.55749 
L 372.046154 92.64569 
L 366.680769 89.437215 
L 361.315385 88.739414 
L 355.95 90.021346 
L 350.584615 90.62547 
L 345.219231 88.657471 
L 339.853846 90.463139 
L 334.488462 88.67732 
L 329.123077 81.884029 
L 323.757692 82.911761 
L 318.392308 85.683033 
L 313.026923 85.621115 
L 307.661538 87.305081 
L 302.296154 93.42653 
L 296.930769 91.440937 
L 291.565385 88.203532 
L 286.2 86.965395 
L 280.834615 85.555512 
L 275.469231 85.420464 
L 270.103846 83.844204 
L 264.738462 82.625512 
L 259.373077 82.11534 
L 254.007692 83.928084 
L 248.642308 81.39059 
L 243.276923 84.765108 
L 237.911538 90.513054 
L 232.546154 90.039445 
L 227.180769 86.41712 
L 221.815385 84.917075 
L 216.45 86.989721 
L 211.084615 84.548429 
L 205.719231 88.162619 
L 200.353846 91.203816 
L 194.988462 93.382377 
L 189.623077 84.768694 
L 184.257692 86.356017 
L 178.892308 84.073726 
L 173.526923 86.651057 
L 168.161538 86.896568 
L 162.796154 84.016059 
L 157.430769 83.164754 
L 152.065385 83.260852 
L 146.7 82.340155 
L 141.334615 82.220509 
z
" style="fill:#ff0000;fill-opacity:0.2;"/>
   </g>
   <g id="PolyCollection_3">
    <path clip-path="url(#p9fadb40ebb)" d="M 141.334615 24.660016 
L 141.334615 98.336132 
L 146.7 99.816862 
L 152.065385 101.30084 
L 157.430769 95.699196 
L 162.796154 93.679244 
L 168.161538 91.99462 
L 173.526923 98.975519 
L 178.892308 97.690385 
L 184.257692 91.599959 
L 189.623077 94.818898 
L 194.988462 95.911915 
L 200.353846 99.226025 
L 205.719231 102.134112 
L 211.084615 99.965471 
L 216.45 98.838939 
L 221.815385 100.560475 
L 227.180769 96.523206 
L 232.546154 93.4112 
L 237.911538 93.523179 
L 243.276923 97.125299 
L 248.642308 96.680769 
L 254.007692 96.415946 
L 259.373077 95.912346 
L 264.738462 95.634257 
L 270.103846 97.222288 
L 275.469231 98.314807 
L 280.834615 97.919415 
L 286.2 96.99993 
L 291.565385 94.587873 
L 296.930769 96.393407 
L 302.296154 93.219461 
L 307.661538 91.70712 
L 313.026923 94.531864 
L 318.392308 94.955426 
L 323.757692 94.691859 
L 329.123077 92.298981 
L 334.488462 93.763138 
L 339.853846 97.355237 
L 345.219231 95.057159 
L 350.584615 95.848404 
L 355.95 93.589902 
L 361.315385 92.579914 
L 366.680769 94.920878 
L 372.046154 95.090652 
L 377.411538 98.469207 
L 382.776923 100.701648 
L 388.142308 102.076749 
L 393.507692 96.114568 
L 398.873077 98.832162 
L 404.238462 98.856522 
L 409.603846 97.46073 
L 414.969231 101.944594 
L 420.334615 105.113856 
L 425.7 98.736444 
L 431.065385 97.256723 
L 436.430769 91.297911 
L 441.796154 90.610544 
L 447.161538 91.117382 
L 452.526923 94.574198 
L 457.892308 97.490894 
L 463.257692 100.571437 
L 468.623077 101.075309 
L 473.988462 99.654868 
L 479.353846 98.222901 
L 484.719231 99.263318 
L 490.084615 101.660511 
L 495.45 103.693229 
L 500.815385 98.241701 
L 506.180769 94.18388 
L 511.546154 94.481403 
L 516.911538 93.655841 
L 522.276923 96.006328 
L 527.642308 98.763066 
L 533.007692 98.636674 
L 538.373077 93.889216 
L 543.738462 95.108962 
L 549.103846 93.27496 
L 554.469231 90.946345 
L 559.834615 92.576194 
L 565.2 90.905743 
L 570.565385 93.492651 
L 575.930769 94.313119 
L 581.296154 97.536884 
L 586.661538 97.028255 
L 592.026923 96.459549 
L 597.392308 95.756465 
L 602.757692 93.256953 
L 608.123077 95.370395 
L 613.488462 98.203696 
L 618.853846 99.921925 
L 624.219231 96.113476 
L 629.584615 93.831254 
L 634.95 97.055781 
L 640.315385 96.656985 
L 645.680769 97.399552 
L 651.046154 96.079552 
L 656.411538 96.958348 
L 661.776923 95.300244 
L 667.142308 94.761288 
L 672.507692 96.286583 
L 677.873077 97.454704 
L 683.238462 98.096467 
L 688.603846 95.364708 
L 693.969231 94.823893 
L 699.334615 97.486594 
L 704.7 98.840756 
L 710.065385 101.951166 
L 715.430769 102.582676 
L 720.796154 101.896608 
L 726.161538 100.192588 
L 731.526923 99.773751 
L 736.892308 98.7349 
L 742.257692 94.142491 
L 747.623077 98.863512 
L 752.988462 101.808099 
L 758.353846 101.058225 
L 763.719231 98.565087 
L 769.084615 102.235135 
L 774.45 106.33757 
L 779.815385 109.184353 
L 785.180769 109.259331 
L 790.546154 109.545365 
L 795.911538 102.658887 
L 801.276923 101.382025 
L 806.642308 97.912581 
L 812.007692 98.347221 
L 817.373077 96.162714 
L 822.738462 93.469308 
L 828.103846 97.418203 
L 833.469231 96.468012 
L 838.834615 93.898375 
L 844.2 97.532684 
L 849.565385 97.632874 
L 854.930769 98.270153 
L 860.296154 95.787521 
L 865.661538 95.488132 
L 871.026923 90.425766 
L 876.392308 89.020373 
L 881.757692 91.001431 
L 887.123077 96.432345 
L 892.488462 98.733575 
L 897.853846 97.173312 
L 903.219231 96.303215 
L 908.584615 98.502626 
L 913.95 98.426117 
L 919.315385 96.971315 
L 924.680769 97.553912 
L 930.046154 101.126866 
L 935.411538 96.057738 
L 940.776923 99.686398 
L 946.142308 100.085903 
L 951.507692 98.576418 
L 956.873077 96.164015 
L 962.238462 98.732508 
L 967.603846 98.297525 
L 972.969231 98.662539 
L 978.334615 98.116786 
L 983.7 98.018756 
L 989.065385 95.192087 
L 994.430769 96.710326 
L 999.796154 99.434209 
L 1005.161538 92.282218 
L 1010.526923 91.939041 
L 1015.892308 93.886287 
L 1021.257692 96.346747 
L 1026.623077 99.204231 
L 1031.988462 100.919133 
L 1037.353846 97.081523 
L 1042.719231 97.221399 
L 1048.084615 104.123157 
L 1053.45 98.076741 
L 1058.815385 97.603532 
L 1064.180769 97.225053 
L 1069.546154 98.522733 
L 1074.911538 95.853109 
L 1080.276923 97.087556 
L 1085.642308 95.35761 
L 1091.007692 91.48732 
L 1096.373077 94.439584 
L 1101.738462 93.235578 
L 1107.103846 95.8889 
L 1112.469231 94.993495 
L 1117.834615 96.784302 
L 1123.2 103.12675 
L 1128.565385 103.850229 
L 1133.930769 96.974952 
L 1139.296154 94.01767 
L 1144.661538 91.859747 
L 1150.026923 90.815382 
L 1155.392308 92.985681 
L 1160.757692 99.884285 
L 1166.123077 101.987184 
L 1171.488462 103.482115 
L 1176.853846 104.934697 
L 1182.219231 103.456632 
L 1187.584615 107.234084 
L 1192.95 104.501774 
L 1198.315385 103.939159 
L 1203.680769 101.640848 
L 1209.046154 106.511307 
L 1214.411538 104.014358 
L 1219.776923 96.335077 
L 1225.142308 93.670223 
L 1230.507692 95.242696 
L 1235.873077 96.397689 
L 1241.238462 97.948098 
L 1246.603846 98.347594 
L 1251.969231 93.231012 
L 1251.969231 21.679649 
L 1251.969231 21.679649 
L 1246.603846 24.110456 
L 1241.238462 25.168256 
L 1235.873077 28.381324 
L 1230.507692 25.632698 
L 1225.142308 22.872027 
L 1219.776923 22.163104 
L 1214.411538 23.986495 
L 1209.046154 24.686831 
L 1203.680769 23.182272 
L 1198.315385 24.555253 
L 1192.95 23.725561 
L 1187.584615 25.108537 
L 1182.219231 25.152397 
L 1176.853846 24.43435 
L 1171.488462 26.12244 
L 1166.123077 25.830136 
L 1160.757692 27.895117 
L 1155.392308 27.831109 
L 1150.026923 24.146503 
L 1144.661538 22.23061 
L 1139.296154 23.047432 
L 1133.930769 23.649661 
L 1128.565385 24.877108 
L 1123.2 26.462382 
L 1117.834615 24.578879 
L 1112.469231 22.523187 
L 1107.103846 26.078269 
L 1101.738462 24.096609 
L 1096.373077 25.84827 
L 1091.007692 24.466779 
L 1085.642308 24.735775 
L 1080.276923 23.692361 
L 1074.911538 23.50092 
L 1069.546154 25.333256 
L 1064.180769 24.968019 
L 1058.815385 23.269372 
L 1053.45 22.851828 
L 1048.084615 26.381541 
L 1042.719231 24.245741 
L 1037.353846 23.728417 
L 1031.988462 25.121198 
L 1026.623077 26.684801 
L 1021.257692 25.54136 
L 1015.892308 22.508188 
L 1010.526923 25.072118 
L 1005.161538 22.324595 
L 999.796154 26.145506 
L 994.430769 24.323183 
L 989.065385 23.939933 
L 983.7 26.057927 
L 978.334615 24.18272 
L 972.969231 23.118077 
L 967.603846 24.971995 
L 962.238462 23.91755 
L 956.873077 24.445209 
L 951.507692 24.116877 
L 946.142308 24.377524 
L 940.776923 24.612044 
L 935.411538 25.243135 
L 930.046154 26.449787 
L 924.680769 24.244867 
L 919.315385 25.335261 
L 913.95 23.252375 
L 908.584615 23.311338 
L 903.219231 22.872962 
L 897.853846 23.006549 
L 892.488462 25.377573 
L 887.123077 26.93902 
L 881.757692 24.765638 
L 876.392308 24.30361 
L 871.026923 24.360654 
L 865.661538 25.335212 
L 860.296154 23.200758 
L 854.930769 25.33732 
L 849.565385 24.884528 
L 844.2 24.654956 
L 838.834615 27.214023 
L 833.469231 23.101955 
L 828.103846 24.242652 
L 822.738462 22.498661 
L 817.373077 24.740897 
L 812.007692 23.938468 
L 806.642308 24.172609 
L 801.276923 21.992322 
L 795.911538 20.507845 
L 790.546154 23.452342 
L 785.180769 23.735332 
L 779.815385 23.776083 
L 774.45 25.024977 
L 769.084615 24.872306 
L 763.719231 26.338594 
L 758.353846 25.111985 
L 752.988462 24.211303 
L 747.623077 24.15116 
L 742.257692 19.578022 
L 736.892308 20.695086 
L 731.526923 20.481742 
L 726.161538 22.537406 
L 720.796154 23.884337 
L 715.430769 25.090832 
L 710.065385 25.993832 
L 704.7 24.472969 
L 699.334615 24.504091 
L 693.969231 23.452507 
L 688.603846 23.056494 
L 683.238462 23.372604 
L 677.873077 23.432461 
L 672.507692 22.70487 
L 667.142308 21.082839 
L 661.776923 24.417095 
L 656.411538 24.725879 
L 651.046154 24.515535 
L 645.680769 26.251742 
L 640.315385 27.479198 
L 634.95 24.012102 
L 629.584615 24.784895 
L 624.219231 21.36299 
L 618.853846 25.818266 
L 613.488462 24.256499 
L 608.123077 24.348573 
L 602.757692 21.067183 
L 597.392308 23.601113 
L 592.026923 23.455677 
L 586.661538 25.466303 
L 581.296154 22.707353 
L 575.930769 24.821565 
L 570.565385 24.263052 
L 565.2 26.371495 
L 559.834615 23.216578 
L 554.469231 22.87907 
L 549.103846 21.019715 
L 543.738462 26.295563 
L 538.373077 23.726972 
L 533.007692 22.443767 
L 527.642308 23.944187 
L 522.276923 26.256211 
L 516.911538 23.324607 
L 511.546154 24.364189 
L 506.180769 24.023873 
L 500.815385 20.755886 
L 495.45 24.283464 
L 490.084615 22.936331 
L 484.719231 22.99204 
L 479.353846 22.873516 
L 473.988462 22.422605 
L 468.623077 25.550503 
L 463.257692 25.176981 
L 457.892308 24.800392 
L 452.526923 24.9311 
L 447.161538 22.157257 
L 441.796154 22.540514 
L 436.430769 21.010924 
L 431.065385 25.435681 
L 425.7 25.205932 
L 420.334615 22.596501 
L 414.969231 25.930362 
L 409.603846 23.470096 
L 404.238462 23.141355 
L 398.873077 25.480194 
L 393.507692 23.517175 
L 388.142308 24.363165 
L 382.776923 24.492922 
L 377.411538 24.433671 
L 372.046154 23.983853 
L 366.680769 25.159233 
L 361.315385 23.914747 
L 355.95 22.449518 
L 350.584615 22.98102 
L 345.219231 25.007817 
L 339.853846 22.801106 
L 334.488462 23.009247 
L 329.123077 22.840759 
L 323.757692 22.455338 
L 318.392308 23.023583 
L 313.026923 23.928729 
L 307.661538 23.742718 
L 302.296154 21.506727 
L 296.930769 23.185761 
L 291.565385 24.235688 
L 286.2 24.778989 
L 280.834615 23.790725 
L 275.469231 24.443577 
L 270.103846 23.995383 
L 264.738462 24.358918 
L 259.373077 26.299553 
L 254.007692 24.635817 
L 248.642308 24.797632 
L 243.276923 23.086502 
L 237.911538 23.222264 
L 232.546154 23.827471 
L 227.180769 21.887814 
L 221.815385 23.417457 
L 216.45 25.498522 
L 211.084615 21.700856 
L 205.719231 26.029796 
L 200.353846 24.226117 
L 194.988462 24.556045 
L 189.623077 23.449287 
L 184.257692 20.72632 
L 178.892308 23.844944 
L 173.526923 26.898343 
L 168.161538 23.313391 
L 162.796154 24.095604 
L 157.430769 23.654919 
L 152.065385 24.631798 
L 146.7 25.810236 
L 141.334615 24.660016 
z
" style="fill:#32cd32;fill-opacity:0.2;"/>
   </g>
   <g id="line2d_23">
    <path clip-path="url(#p9fadb40ebb)" d="M 141.334615 180.874495 
L 146.7 180.572811 
L 152.065385 181.874401 
L 157.430769 182.555792 
L 162.796154 181.112981 
L 168.161538 182.013289 
L 173.526923 180.183417 
L 178.892308 180.766787 
L 184.257692 177.862388 
L 189.623077 178.911646 
L 194.988462 177.616673 
L 200.353846 175.2572 
L 205.719231 175.804893 
L 211.084615 177.585297 
L 216.45 175.532813 
L 221.815385 176.939424 
L 227.180769 178.198208 
L 232.546154 178.492085 
L 243.276923 177.195616 
L 248.642308 177.805977 
L 254.007692 180.15691 
L 259.373077 181.557786 
L 264.738462 182.053418 
L 270.103846 182.217721 
L 275.469231 181.56809 
L 280.834615 182.33036 
L 286.2 181.874239 
L 291.565385 182.086273 
L 296.930769 182.519263 
L 302.296154 183.233737 
L 307.661538 182.924214 
L 313.026923 182.292127 
L 318.392308 182.002322 
L 323.757692 181.482312 
L 329.123077 180.01574 
L 334.488462 177.936192 
L 339.853846 179.331304 
L 345.219231 178.62344 
L 350.584615 179.885606 
L 355.95 180.740509 
L 361.315385 181.112063 
L 366.680769 180.727097 
L 372.046154 179.194847 
L 377.411538 179.806611 
L 382.776923 179.230641 
L 388.142308 177.00823 
L 393.507692 178.322683 
L 398.873077 179.418095 
L 404.238462 179.685872 
L 409.603846 179.61717 
L 414.969231 183.052935 
L 420.334615 181.536655 
L 425.7 182.986916 
L 431.065385 182.162931 
L 436.430769 180.866645 
L 441.796154 179.22843 
L 452.526923 179.676432 
L 457.892308 180.489887 
L 468.623077 176.545566 
L 473.988462 175.357369 
L 479.353846 175.231634 
L 484.719231 177.794118 
L 490.084615 179.157987 
L 495.45 180.283897 
L 500.815385 179.100879 
L 506.180769 179.930333 
L 511.546154 179.369688 
L 516.911538 180.990347 
L 522.276923 178.749234 
L 527.642308 178.857824 
L 533.007692 179.652298 
L 538.373077 179.304028 
L 543.738462 179.104188 
L 549.103846 181.136292 
L 554.469231 183.732493 
L 559.834615 184.696834 
L 565.2 182.350078 
L 570.565385 181.12157 
L 575.930769 181.740871 
L 581.296154 182.595334 
L 586.661538 180.909509 
L 592.026923 181.255073 
L 597.392308 180.476529 
L 602.757692 181.230495 
L 608.123077 180.764144 
L 613.488462 179.702497 
L 618.853846 180.250356 
L 624.219231 182.436988 
L 629.584615 181.580568 
L 634.95 178.865751 
L 640.315385 179.946962 
L 645.680769 180.065585 
L 651.046154 179.359082 
L 656.411538 178.007491 
L 661.776923 177.841553 
L 672.507692 178.136115 
L 677.873077 180.012222 
L 683.238462 177.054566 
L 688.603846 176.706409 
L 693.969231 178.711695 
L 699.334615 179.487095 
L 704.7 181.310032 
L 710.065385 178.841652 
L 715.430769 178.980398 
L 720.796154 180.617114 
L 726.161538 180.607025 
L 731.526923 181.075656 
L 736.892308 182.278218 
L 742.257692 182.229317 
L 747.623077 181.498435 
L 752.988462 181.734544 
L 758.353846 184.468146 
L 763.719231 183.747578 
L 774.45 184.394295 
L 779.815385 182.488745 
L 785.180769 185.241059 
L 790.546154 184.881472 
L 795.911538 183.386465 
L 801.276923 184.791961 
L 806.642308 183.017472 
L 812.007692 183.036806 
L 817.373077 182.787749 
L 822.738462 179.766706 
L 828.103846 181.689332 
L 833.469231 180.953128 
L 838.834615 180.605479 
L 844.2 182.379321 
L 849.565385 181.159813 
L 854.930769 182.134927 
L 860.296154 181.249481 
L 865.661538 180.719971 
L 871.026923 181.100963 
L 876.392308 182.212477 
L 881.757692 181.256482 
L 887.123077 180.086495 
L 892.488462 181.41725 
L 897.853846 181.959594 
L 903.219231 183.6014 
L 908.584615 183.586055 
L 913.95 181.227615 
L 919.315385 180.901471 
L 924.680769 180.060723 
L 930.046154 180.023775 
L 935.411538 181.881988 
L 946.142308 180.687099 
L 951.507692 180.411138 
L 956.873077 180.582716 
L 962.238462 180.165077 
L 967.603846 181.1125 
L 972.969231 180.379518 
L 978.334615 181.150784 
L 983.7 180.964717 
L 989.065385 181.043006 
L 994.430769 180.772322 
L 999.796154 181.807915 
L 1005.161538 180.404796 
L 1010.526923 179.663694 
L 1021.257692 183.004195 
L 1026.623077 182.408798 
L 1031.988462 183.118721 
L 1037.353846 184.310825 
L 1042.719231 182.361255 
L 1048.084615 179.243474 
L 1053.45 180.317457 
L 1058.815385 182.615146 
L 1064.180769 181.839985 
L 1069.546154 180.219681 
L 1074.911538 180.574769 
L 1080.276923 181.253079 
L 1085.642308 181.422143 
L 1091.007692 182.148728 
L 1096.373077 179.975666 
L 1101.738462 183.264234 
L 1107.103846 182.122272 
L 1112.469231 183.597927 
L 1117.834615 183.200444 
L 1123.2 182.362085 
L 1128.565385 183.333355 
L 1133.930769 182.169155 
L 1139.296154 184.834264 
L 1144.661538 183.301883 
L 1150.026923 182.848852 
L 1155.392308 180.580606 
L 1160.757692 179.512674 
L 1166.123077 179.604835 
L 1171.488462 178.116239 
L 1176.853846 178.603704 
L 1182.219231 177.52845 
L 1187.584615 179.231985 
L 1192.95 178.79361 
L 1198.315385 176.810827 
L 1203.680769 176.722554 
L 1209.046154 175.553785 
L 1214.411538 175.511256 
L 1219.776923 177.428425 
L 1225.142308 177.373586 
L 1230.507692 178.66239 
L 1235.873077 179.781891 
L 1241.238462 180.084954 
L 1246.603846 180.81513 
L 1251.969231 182.911941 
L 1251.969231 182.911941 
" style="fill:none;stroke:#4b0082;stroke-linecap:round;stroke-width:1.75;"/>
   </g>
   <g id="line2d_24">
    <path clip-path="url(#p9fadb40ebb)" d="M 141.334615 142.609902 
L 152.065385 142.077561 
L 157.430769 141.535357 
L 162.796154 142.11686 
L 168.161538 144.200726 
L 173.526923 144.625384 
L 178.892308 143.366547 
L 184.257692 146.233143 
L 189.623077 146.200725 
L 194.988462 151.074941 
L 200.353846 149.546333 
L 205.719231 146.816817 
L 211.084615 144.636456 
L 216.45 145.425894 
L 221.815385 144.183206 
L 227.180769 145.152788 
L 232.546154 148.465809 
L 237.911538 149.28957 
L 248.642308 141.746186 
L 254.007692 142.586875 
L 259.373077 142.221308 
L 264.738462 143.284588 
L 270.103846 143.64265 
L 275.469231 145.051838 
L 280.834615 145.50056 
L 286.2 146.717163 
L 291.565385 147.601683 
L 296.930769 149.773586 
L 302.296154 151.032645 
L 307.661538 148.889184 
L 313.026923 147.429402 
L 318.392308 145.79821 
L 323.757692 145.628181 
L 329.123077 143.457487 
L 334.488462 146.926383 
L 339.853846 148.163752 
L 345.219231 147.857649 
L 350.584615 149.30805 
L 355.95 149.027782 
L 361.315385 147.628617 
L 366.680769 147.571427 
L 372.046154 150.198842 
L 377.411538 148.941434 
L 382.776923 148.573705 
L 388.142308 154.365161 
L 393.507692 154.507009 
L 398.873077 155.144774 
L 404.238462 156.160737 
L 409.603846 156.20498 
L 414.969231 152.05859 
L 420.334615 149.256519 
L 425.7 149.815803 
L 431.065385 147.089102 
L 436.430769 146.527752 
L 441.796154 148.689753 
L 447.161538 148.191216 
L 452.526923 145.372472 
L 457.892308 144.219838 
L 463.257692 145.491028 
L 468.623077 149.292561 
L 473.988462 151.496314 
L 479.353846 154.138216 
L 484.719231 152.265017 
L 490.084615 149.985636 
L 495.45 147.102703 
L 500.815385 149.526353 
L 506.180769 150.541893 
L 511.546154 148.779219 
L 516.911538 145.041248 
L 522.276923 146.394951 
L 527.642308 148.372062 
L 533.007692 149.584824 
L 538.373077 151.976416 
L 543.738462 152.293773 
L 549.103846 147.964356 
L 554.469231 143.960809 
L 559.834615 142.359236 
L 565.2 144.308636 
L 570.565385 144.016506 
L 575.930769 145.912816 
L 581.296154 143.749846 
L 586.661538 145.602708 
L 592.026923 148.968771 
L 602.757692 151.089285 
L 608.123077 150.376091 
L 613.488462 150.773842 
L 618.853846 151.761359 
L 624.219231 145.860971 
L 629.584615 147.981466 
L 634.95 147.453372 
L 640.315385 150.232395 
L 645.680769 151.512237 
L 651.046154 153.956612 
L 656.411538 155.014036 
L 661.776923 154.350691 
L 667.142308 154.050006 
L 672.507692 150.823863 
L 677.873077 150.503973 
L 683.238462 153.735774 
L 688.603846 150.301203 
L 693.969231 148.400618 
L 699.334615 144.944104 
L 704.7 142.760241 
L 710.065385 144.304932 
L 715.430769 148.462913 
L 720.796154 149.358971 
L 726.161538 151.750397 
L 731.526923 150.610158 
L 736.892308 146.599466 
L 742.257692 143.413125 
L 747.623077 145.581074 
L 752.988462 148.587781 
L 758.353846 147.655026 
L 763.719231 149.192871 
L 769.084615 148.844402 
L 774.45 150.644428 
L 779.815385 155.101476 
L 790.546154 155.74772 
L 795.911538 154.755489 
L 801.276923 153.318238 
L 806.642308 152.516018 
L 812.007692 148.772282 
L 817.373077 144.82861 
L 822.738462 147.360461 
L 828.103846 146.329862 
L 833.469231 145.464996 
L 838.834615 147.637266 
L 844.2 147.36042 
L 849.565385 151.094749 
L 854.930769 149.351022 
L 860.296154 150.054469 
L 865.661538 151.966951 
L 871.026923 148.473487 
L 876.392308 148.42731 
L 881.757692 149.507769 
L 887.123077 150.100973 
L 892.488462 151.805568 
L 897.853846 149.516214 
L 903.219231 150.548244 
L 908.584615 146.565748 
L 913.95 149.12222 
L 919.315385 152.827227 
L 924.680769 149.993223 
L 930.046154 149.754709 
L 935.411538 146.241094 
L 940.776923 148.546328 
L 946.142308 144.577721 
L 951.507692 146.553572 
L 956.873077 146.848226 
L 962.238462 149.886698 
L 972.969231 153.649298 
L 978.334615 150.757617 
L 983.7 150.222047 
L 989.065385 150.303738 
L 994.430769 153.444151 
L 999.796154 153.756905 
L 1005.161538 154.757611 
L 1010.526923 154.39094 
L 1015.892308 153.819467 
L 1021.257692 152.98911 
L 1026.623077 153.274342 
L 1031.988462 153.909962 
L 1037.353846 153.049975 
L 1042.719231 153.841585 
L 1053.45 152.338684 
L 1058.815385 147.208427 
L 1064.180769 149.365725 
L 1069.546154 150.366756 
L 1074.911538 150.060431 
L 1085.642308 150.085519 
L 1091.007692 149.06258 
L 1096.373077 152.757842 
L 1101.738462 149.622555 
L 1107.103846 151.117484 
L 1112.469231 152.30118 
L 1117.834615 150.033547 
L 1123.2 147.010292 
L 1128.565385 143.128559 
L 1133.930769 146.220667 
L 1139.296154 143.789917 
L 1144.661538 143.95017 
L 1150.026923 144.686915 
L 1155.392308 144.630562 
L 1160.757692 147.490062 
L 1166.123077 146.578277 
L 1171.488462 148.5901 
L 1176.853846 149.206339 
L 1182.219231 150.000652 
L 1187.584615 151.468495 
L 1192.95 153.470585 
L 1198.315385 154.683805 
L 1203.680769 153.693589 
L 1209.046154 153.223606 
L 1214.411538 150.448601 
L 1219.776923 151.44524 
L 1225.142308 151.535614 
L 1230.507692 147.572043 
L 1235.873077 148.635683 
L 1241.238462 146.610674 
L 1246.603846 149.663665 
L 1251.969231 144.455868 
L 1251.969231 144.455868 
" style="fill:none;stroke:#ff0000;stroke-linecap:round;stroke-width:1.75;"/>
   </g>
   <g id="line2d_25">
    <path clip-path="url(#p9fadb40ebb)" d="M 141.334615 61.498074 
L 146.7 62.813549 
L 152.065385 62.966319 
L 157.430769 59.677058 
L 162.796154 58.887424 
L 168.161538 57.654005 
L 173.526923 62.936931 
L 178.892308 60.767665 
L 184.257692 56.16314 
L 189.623077 59.134092 
L 194.988462 60.23398 
L 200.353846 61.726071 
L 205.719231 64.081954 
L 211.084615 60.833163 
L 216.45 62.16873 
L 221.815385 61.988966 
L 227.180769 59.20551 
L 232.546154 58.619336 
L 237.911538 58.372721 
L 243.276923 60.1059 
L 248.642308 60.7392 
L 254.007692 60.525882 
L 259.373077 61.10595 
L 264.738462 59.996587 
L 270.103846 60.608836 
L 275.469231 61.379192 
L 280.834615 60.85507 
L 286.2 60.889459 
L 291.565385 59.41178 
L 296.930769 59.789584 
L 302.296154 57.363094 
L 307.661538 57.724919 
L 313.026923 59.230296 
L 318.392308 58.989505 
L 323.757692 58.573598 
L 329.123077 57.56987 
L 334.488462 58.386192 
L 339.853846 60.078172 
L 345.219231 60.032488 
L 350.584615 59.414712 
L 355.95 58.01971 
L 361.315385 58.24733 
L 366.680769 60.040055 
L 372.046154 59.537253 
L 377.411538 61.451439 
L 382.776923 62.597285 
L 388.142308 63.219957 
L 393.507692 59.815871 
L 398.873077 62.156178 
L 404.238462 60.998938 
L 409.603846 60.465413 
L 414.969231 63.937478 
L 420.334615 63.855179 
L 425.7 61.971188 
L 431.065385 61.346202 
L 436.430769 56.154417 
L 441.796154 56.575529 
L 447.161538 56.637319 
L 452.526923 59.752649 
L 457.892308 61.145643 
L 463.257692 62.874209 
L 468.623077 63.312906 
L 473.988462 61.038737 
L 479.353846 60.548209 
L 484.719231 61.127679 
L 490.084615 62.298421 
L 495.45 63.988347 
L 500.815385 59.498793 
L 506.180769 59.103877 
L 511.546154 59.422796 
L 516.911538 58.490224 
L 522.276923 61.13127 
L 527.642308 61.353627 
L 533.007692 60.540221 
L 538.373077 58.808094 
L 543.738462 60.702263 
L 549.103846 57.147337 
L 554.469231 56.912708 
L 559.834615 57.896386 
L 565.2 58.638619 
L 570.565385 58.877852 
L 575.930769 59.567342 
L 581.296154 60.122119 
L 586.661538 61.247279 
L 592.026923 59.957613 
L 597.392308 59.678789 
L 602.757692 57.162068 
L 608.123077 59.859484 
L 613.488462 61.230098 
L 618.853846 62.870095 
L 624.219231 58.738233 
L 629.584615 59.308074 
L 634.95 60.533941 
L 640.315385 62.068092 
L 645.680769 61.825647 
L 651.046154 60.297544 
L 656.411538 60.842113 
L 661.776923 59.85867 
L 667.142308 57.922063 
L 672.507692 59.495727 
L 677.873077 60.443582 
L 683.238462 60.734536 
L 688.603846 59.210601 
L 693.969231 59.1382 
L 699.334615 60.995342 
L 704.7 61.656862 
L 710.065385 63.972499 
L 715.430769 63.836754 
L 720.796154 62.890473 
L 726.161538 61.364997 
L 731.526923 60.127746 
L 736.892308 59.714993 
L 742.257692 56.860257 
L 747.623077 61.507336 
L 752.988462 63.009701 
L 758.353846 63.085105 
L 763.719231 62.45184 
L 769.084615 63.553721 
L 774.45 65.681273 
L 779.815385 66.480218 
L 790.546154 66.498853 
L 795.911538 61.583366 
L 801.276923 61.687174 
L 806.642308 61.042595 
L 812.007692 61.142844 
L 817.373077 60.451806 
L 822.738462 57.983985 
L 828.103846 60.830428 
L 833.469231 59.784983 
L 838.834615 60.556199 
L 844.2 61.09382 
L 849.565385 61.258701 
L 854.930769 61.803736 
L 860.296154 59.49414 
L 865.661538 60.411672 
L 871.026923 57.39321 
L 876.392308 56.661991 
L 881.757692 57.883535 
L 887.123077 61.685683 
L 892.488462 62.055574 
L 897.853846 60.089931 
L 903.219231 59.588089 
L 908.584615 60.906982 
L 913.95 60.839246 
L 919.315385 61.153288 
L 924.680769 60.899389 
L 930.046154 63.788327 
L 935.411538 60.650437 
L 940.776923 62.149221 
L 946.142308 62.231713 
L 951.507692 61.346647 
L 956.873077 60.304612 
L 962.238462 61.325029 
L 967.603846 61.63476 
L 972.969231 60.890308 
L 978.334615 61.149753 
L 983.7 62.038342 
L 989.065385 59.56601 
L 994.430769 60.516755 
L 999.796154 62.789858 
L 1005.161538 57.303406 
L 1010.526923 58.505579 
L 1015.892308 58.197238 
L 1021.257692 60.944054 
L 1026.623077 62.944516 
L 1031.988462 63.020165 
L 1037.353846 60.40497 
L 1042.719231 60.73357 
L 1048.084615 65.252349 
L 1053.45 60.464285 
L 1058.815385 60.436452 
L 1064.180769 61.096536 
L 1069.546154 61.927994 
L 1074.911538 59.677015 
L 1080.276923 60.389959 
L 1085.642308 60.046693 
L 1091.007692 57.97705 
L 1096.373077 60.143927 
L 1101.738462 58.666094 
L 1107.103846 60.983584 
L 1112.469231 58.758341 
L 1117.834615 60.68159 
L 1123.2 64.794566 
L 1128.565385 64.363669 
L 1133.930769 60.312306 
L 1139.296154 58.532551 
L 1144.661538 57.045178 
L 1150.026923 57.480942 
L 1155.392308 60.408395 
L 1160.757692 63.889701 
L 1166.123077 63.90866 
L 1171.488462 64.802278 
L 1176.853846 64.684523 
L 1182.219231 64.304514 
L 1187.584615 66.171311 
L 1192.95 64.113668 
L 1198.315385 64.247206 
L 1203.680769 62.41156 
L 1209.046154 65.599069 
L 1214.411538 64.000426 
L 1219.776923 59.24909 
L 1225.142308 58.271125 
L 1230.507692 60.437697 
L 1235.873077 62.389507 
L 1241.238462 61.558177 
L 1246.603846 61.229025 
L 1251.969231 57.455331 
L 1251.969231 57.455331 
" style="fill:none;stroke:#32cd32;stroke-linecap:round;stroke-width:1.75;"/>
   </g>
   <g id="line2d_26">
    <path clip-path="url(#p9fadb40ebb)" d="M 420.334615 280.587478 
L 420.334615 8.787478 
" style="fill:none;opacity:0.3;stroke:#000000;stroke-linecap:round;stroke-width:1.75;"/>
   </g>
   <g id="line2d_27">
    <path clip-path="url(#p9fadb40ebb)" d="M 699.334615 280.587478 
L 699.334615 8.787478 
" style="fill:none;opacity:0.3;stroke:#000000;stroke-linecap:round;stroke-width:1.75;"/>
   </g>
   <g id="line2d_28">
    <path clip-path="url(#p9fadb40ebb)" d="M 978.334615 280.587478 
L 978.334615 8.787478 
" style="fill:none;opacity:0.3;stroke:#000000;stroke-linecap:round;stroke-width:1.75;"/>
   </g>
   <g id="patch_3">
    <path d="M 141.334615 280.587478 
L 141.334615 8.787478 
" style="fill:none;"/>
   </g>
   <g id="patch_4">
    <path d="M 1257.334615 280.587478 
L 1257.334615 8.787478 
" style="fill:none;"/>
   </g>
   <g id="patch_5">
    <path d="M 141.334615 280.587478 
L 1257.334615 280.587478 
" style="fill:none;"/>
   </g>
   <g id="patch_6">
    <path d="M 141.334615 8.787478 
L 1257.334615 8.787478 
" style="fill:none;"/>
   </g>
   <g id="text_14">
    <!-- Insecure -->
    <defs>
     <path d="M 9.8125 72.90625 
L 19.671875 72.90625 
L 19.671875 0 
L 9.8125 0 
z
" id="DejaVuSans-49"/>
     <path d="M 54.890625 33.015625 
L 54.890625 0 
L 45.90625 0 
L 45.90625 32.71875 
Q 45.90625 40.484375 42.875 44.328125 
Q 39.84375 48.1875 33.796875 48.1875 
Q 26.515625 48.1875 22.3125 43.546875 
Q 18.109375 38.921875 18.109375 30.90625 
L 18.109375 0 
L 9.078125 0 
L 9.078125 54.6875 
L 18.109375 54.6875 
L 18.109375 46.1875 
Q 21.34375 51.125 25.703125 53.5625 
Q 30.078125 56 35.796875 56 
Q 45.21875 56 50.046875 50.171875 
Q 54.890625 44.34375 54.890625 33.015625 
z
" id="DejaVuSans-6e"/>
     <path d="M 48.78125 52.59375 
L 48.78125 44.1875 
Q 44.96875 46.296875 41.140625 47.34375 
Q 37.3125 48.390625 33.40625 48.390625 
Q 24.65625 48.390625 19.8125 42.84375 
Q 14.984375 37.3125 14.984375 27.296875 
Q 14.984375 17.28125 19.8125 11.734375 
Q 24.65625 6.203125 33.40625 6.203125 
Q 37.3125 6.203125 41.140625 7.25 
Q 44.96875 8.296875 48.78125 10.40625 
L 48.78125 2.09375 
Q 45.015625 0.34375 40.984375 -0.53125 
Q 36.96875 -1.421875 32.421875 -1.421875 
Q 20.0625 -1.421875 12.78125 6.34375 
Q 5.515625 14.109375 5.515625 27.296875 
Q 5.515625 40.671875 12.859375 48.328125 
Q 20.21875 56 33.015625 56 
Q 37.15625 56 41.109375 55.140625 
Q 45.0625 54.296875 48.78125 52.59375 
z
" id="DejaVuSans-63"/>
     <path d="M 8.5 21.578125 
L 8.5 54.6875 
L 17.484375 54.6875 
L 17.484375 21.921875 
Q 17.484375 14.15625 20.5 10.265625 
Q 23.53125 6.390625 29.59375 6.390625 
Q 36.859375 6.390625 41.078125 11.03125 
Q 45.3125 15.671875 45.3125 23.6875 
L 45.3125 54.6875 
L 54.296875 54.6875 
L 54.296875 0 
L 45.3125 0 
L 45.3125 8.40625 
Q 42.046875 3.421875 37.71875 1 
Q 33.40625 -1.421875 27.6875 -1.421875 
Q 18.265625 -1.421875 13.375 4.4375 
Q 8.5 10.296875 8.5 21.578125 
z
M 31.109375 56 
z
" id="DejaVuSans-75"/>
    </defs>
    <g style="fill:#262626;" transform="translate(7.2 22.396875)scale(0.2 -0.2)">
     <use xlink:href="#DejaVuSans-49"/>
     <use x="29.492188" xlink:href="#DejaVuSans-6e"/>
     <use x="92.871094" xlink:href="#DejaVuSans-73"/>
     <use x="144.970703" xlink:href="#DejaVuSans-65"/>
     <use x="206.494141" xlink:href="#DejaVuSans-63"/>
     <use x="261.474609" xlink:href="#DejaVuSans-75"/>
     <use x="324.853516" xlink:href="#DejaVuSans-72"/>
     <use x="365.935547" xlink:href="#DejaVuSans-65"/>
    </g>
   </g>
   <g id="text_15">
    <!-- Secure -->
    <g style="fill:#262626;" transform="translate(7.2 280.587478)scale(0.2 -0.2)">
     <use xlink:href="#DejaVuSans-53"/>
     <use x="63.476562" xlink:href="#DejaVuSans-65"/>
     <use x="125" xlink:href="#DejaVuSans-63"/>
     <use x="179.980469" xlink:href="#DejaVuSans-75"/>
     <use x="243.359375" xlink:href="#DejaVuSans-72"/>
     <use x="284.441406" xlink:href="#DejaVuSans-65"/>
    </g>
   </g>
   <g id="legend_1">
    <g id="line2d_29">
     <path d="M 149.334615 378.324353 
L 189.334615 378.324353 
" style="fill:none;stroke:#4b0082;stroke-linecap:round;stroke-width:1.75;"/>
    </g>
    <g id="line2d_30"/>
    <g id="text_16">
     <!-- immune -->
     <g style="fill:#262626;" transform="translate(205.334615 385.324353)scale(0.2 -0.2)">
      <use xlink:href="#DejaVuSans-69"/>
      <use x="27.783203" xlink:href="#DejaVuSans-6d"/>
      <use x="125.195312" xlink:href="#DejaVuSans-6d"/>
      <use x="222.607422" xlink:href="#DejaVuSans-75"/>
      <use x="285.986328" xlink:href="#DejaVuSans-6e"/>
      <use x="349.365234" xlink:href="#DejaVuSans-65"/>
     </g>
    </g>
    <g id="line2d_31">
     <path d="M 327.509615 378.324353 
L 367.509615 378.324353 
" style="fill:none;stroke:#ff0000;stroke-linecap:round;stroke-width:1.75;"/>
    </g>
    <g id="line2d_32"/>
    <g id="text_17">
     <!-- susceptible -->
     <defs>
      <path d="M 18.109375 8.203125 
L 18.109375 -20.796875 
L 9.078125 -20.796875 
L 9.078125 54.6875 
L 18.109375 54.6875 
L 18.109375 46.390625 
Q 20.953125 51.265625 25.265625 53.625 
Q 29.59375 56 35.59375 56 
Q 45.5625 56 51.78125 48.09375 
Q 58.015625 40.1875 58.015625 27.296875 
Q 58.015625 14.40625 51.78125 6.484375 
Q 45.5625 -1.421875 35.59375 -1.421875 
Q 29.59375 -1.421875 25.265625 0.953125 
Q 20.953125 3.328125 18.109375 8.203125 
z
M 48.6875 27.296875 
Q 48.6875 37.203125 44.609375 42.84375 
Q 40.53125 48.484375 33.40625 48.484375 
Q 26.265625 48.484375 22.1875 42.84375 
Q 18.109375 37.203125 18.109375 27.296875 
Q 18.109375 17.390625 22.1875 11.75 
Q 26.265625 6.109375 33.40625 6.109375 
Q 40.53125 6.109375 44.609375 11.75 
Q 48.6875 17.390625 48.6875 27.296875 
z
" id="DejaVuSans-70"/>
      <path d="M 18.3125 70.21875 
L 18.3125 54.6875 
L 36.8125 54.6875 
L 36.8125 47.703125 
L 18.3125 47.703125 
L 18.3125 18.015625 
Q 18.3125 11.328125 20.140625 9.421875 
Q 21.96875 7.515625 27.59375 7.515625 
L 36.8125 7.515625 
L 36.8125 0 
L 27.59375 0 
Q 17.1875 0 13.234375 3.875 
Q 9.28125 7.765625 9.28125 18.015625 
L 9.28125 47.703125 
L 2.6875 47.703125 
L 2.6875 54.6875 
L 9.28125 54.6875 
L 9.28125 70.21875 
z
" id="DejaVuSans-74"/>
      <path d="M 48.6875 27.296875 
Q 48.6875 37.203125 44.609375 42.84375 
Q 40.53125 48.484375 33.40625 48.484375 
Q 26.265625 48.484375 22.1875 42.84375 
Q 18.109375 37.203125 18.109375 27.296875 
Q 18.109375 17.390625 22.1875 11.75 
Q 26.265625 6.109375 33.40625 6.109375 
Q 40.53125 6.109375 44.609375 11.75 
Q 48.6875 17.390625 48.6875 27.296875 
z
M 18.109375 46.390625 
Q 20.953125 51.265625 25.265625 53.625 
Q 29.59375 56 35.59375 56 
Q 45.5625 56 51.78125 48.09375 
Q 58.015625 40.1875 58.015625 27.296875 
Q 58.015625 14.40625 51.78125 6.484375 
Q 45.5625 -1.421875 35.59375 -1.421875 
Q 29.59375 -1.421875 25.265625 0.953125 
Q 20.953125 3.328125 18.109375 8.203125 
L 18.109375 0 
L 9.078125 0 
L 9.078125 75.984375 
L 18.109375 75.984375 
z
" id="DejaVuSans-62"/>
      <path d="M 9.421875 75.984375 
L 18.40625 75.984375 
L 18.40625 0 
L 9.421875 0 
z
" id="DejaVuSans-6c"/>
     </defs>
     <g style="fill:#262626;" transform="translate(383.509615 385.324353)scale(0.2 -0.2)">
      <use xlink:href="#DejaVuSans-73"/>
      <use x="52.099609" xlink:href="#DejaVuSans-75"/>
      <use x="115.478516" xlink:href="#DejaVuSans-73"/>
      <use x="167.578125" xlink:href="#DejaVuSans-63"/>
      <use x="222.558594" xlink:href="#DejaVuSans-65"/>
      <use x="284.082031" xlink:href="#DejaVuSans-70"/>
      <use x="347.558594" xlink:href="#DejaVuSans-74"/>
      <use x="386.767578" xlink:href="#DejaVuSans-69"/>
      <use x="414.550781" xlink:href="#DejaVuSans-62"/>
      <use x="478.027344" xlink:href="#DejaVuSans-6c"/>
      <use x="505.810547" xlink:href="#DejaVuSans-65"/>
     </g>
    </g>
    <g id="line2d_33">
     <path d="M 536.978365 378.324353 
L 576.978365 378.324353 
" style="fill:none;stroke:#32cd32;stroke-linecap:round;stroke-width:1.75;"/>
    </g>
    <g id="line2d_34"/>
    <g id="text_18">
     <!-- highly susceptible -->
     <defs>
      <path d="M 54.890625 33.015625 
L 54.890625 0 
L 45.90625 0 
L 45.90625 32.71875 
Q 45.90625 40.484375 42.875 44.328125 
Q 39.84375 48.1875 33.796875 48.1875 
Q 26.515625 48.1875 22.3125 43.546875 
Q 18.109375 38.921875 18.109375 30.90625 
L 18.109375 0 
L 9.078125 0 
L 9.078125 75.984375 
L 18.109375 75.984375 
L 18.109375 46.1875 
Q 21.34375 51.125 25.703125 53.5625 
Q 30.078125 56 35.796875 56 
Q 45.21875 56 50.046875 50.171875 
Q 54.890625 44.34375 54.890625 33.015625 
z
" id="DejaVuSans-68"/>
      <path d="M 45.40625 27.984375 
Q 45.40625 37.75 41.375 43.109375 
Q 37.359375 48.484375 30.078125 48.484375 
Q 22.859375 48.484375 18.828125 43.109375 
Q 14.796875 37.75 14.796875 27.984375 
Q 14.796875 18.265625 18.828125 12.890625 
Q 22.859375 7.515625 30.078125 7.515625 
Q 37.359375 7.515625 41.375 12.890625 
Q 45.40625 18.265625 45.40625 27.984375 
z
M 54.390625 6.78125 
Q 54.390625 -7.171875 48.1875 -13.984375 
Q 42 -20.796875 29.203125 -20.796875 
Q 24.46875 -20.796875 20.265625 -20.09375 
Q 16.0625 -19.390625 12.109375 -17.921875 
L 12.109375 -9.1875 
Q 16.0625 -11.328125 19.921875 -12.34375 
Q 23.78125 -13.375 27.78125 -13.375 
Q 36.625 -13.375 41.015625 -8.765625 
Q 45.40625 -4.15625 45.40625 5.171875 
L 45.40625 9.625 
Q 42.625 4.78125 38.28125 2.390625 
Q 33.9375 0 27.875 0 
Q 17.828125 0 11.671875 7.65625 
Q 5.515625 15.328125 5.515625 27.984375 
Q 5.515625 40.671875 11.671875 48.328125 
Q 17.828125 56 27.875 56 
Q 33.9375 56 38.28125 53.609375 
Q 42.625 51.21875 45.40625 46.390625 
L 45.40625 54.6875 
L 54.390625 54.6875 
z
" id="DejaVuSans-67"/>
     </defs>
     <g style="fill:#262626;" transform="translate(592.978365 385.324353)scale(0.2 -0.2)">
      <use xlink:href="#DejaVuSans-68"/>
      <use x="63.378906" xlink:href="#DejaVuSans-69"/>
      <use x="91.162109" xlink:href="#DejaVuSans-67"/>
      <use x="154.638672" xlink:href="#DejaVuSans-68"/>
      <use x="218.017578" xlink:href="#DejaVuSans-6c"/>
      <use x="245.800781" xlink:href="#DejaVuSans-79"/>
      <use x="304.980469" xlink:href="#DejaVuSans-20"/>
      <use x="336.767578" xlink:href="#DejaVuSans-73"/>
      <use x="388.867188" xlink:href="#DejaVuSans-75"/>
      <use x="452.246094" xlink:href="#DejaVuSans-73"/>
      <use x="504.345703" xlink:href="#DejaVuSans-63"/>
      <use x="559.326172" xlink:href="#DejaVuSans-65"/>
      <use x="620.849609" xlink:href="#DejaVuSans-70"/>
      <use x="684.326172" xlink:href="#DejaVuSans-74"/>
      <use x="723.535156" xlink:href="#DejaVuSans-69"/>
      <use x="751.318359" xlink:href="#DejaVuSans-62"/>
      <use x="814.794922" xlink:href="#DejaVuSans-6c"/>
      <use x="842.578125" xlink:href="#DejaVuSans-65"/>
     </g>
    </g>
   </g>
  </g>
 </g>
 <defs>
  <clipPath id="p9fadb40ebb">
   <rect height="271.8" width="1116" x="141.334615" y="8.787478"/>
  </clipPath>
 </defs>
</svg>
